<svg width="135" height="44" viewBox="0 0 135 44" fill="none" xmlns="http://www.w3.org/2000/svg">
<rect x="0.5" y="0.5" width="134" height="43" rx="4.5" fill="white"/>
<path d="M68.136 23.9262C65.784 23.9262 63.867 25.8941 63.867 28.6045C63.867 31.2984 65.784 33.2828 68.136 33.2828C70.489 33.2828 72.406 31.2984 72.406 28.6045C72.405 25.8941 70.488 23.9262 68.136 23.9262ZM68.136 31.4414C66.847 31.4414 65.736 30.2721 65.736 28.6056C65.736 26.9215 66.848 25.7698 68.136 25.7698C69.425 25.7698 70.536 26.9215 70.536 28.6056C70.536 30.271 69.425 31.4414 68.136 31.4414ZM58.822 23.9262C56.47 23.9262 54.553 25.8941 54.553 28.6045C54.553 31.2984 56.47 33.2828 58.822 33.2828C61.175 33.2828 63.092 31.2984 63.092 28.6045C63.092 25.8941 61.175 23.9262 58.822 23.9262ZM58.822 31.4414C57.533 31.4414 56.422 30.2721 56.422 28.6056C56.422 26.9215 57.534 25.7698 58.822 25.7698C60.111 25.7698 61.222 26.9215 61.222 28.6056C61.223 30.271 60.111 31.4414 58.822 31.4414ZM47.744 25.3628V27.3472H52.062C51.933 28.4637 51.595 29.2788 51.079 29.8453C50.451 30.5361 49.468 31.2984 47.744 31.2984C45.086 31.2984 43.008 28.9411 43.008 26.0173C43.008 23.0935 45.086 20.7362 47.744 20.7362C49.178 20.7362 50.225 21.3566 50.998 22.1541L52.271 20.7538C51.191 19.6197 49.758 18.7518 47.744 18.7518C44.103 18.7518 41.042 22.0122 41.042 26.0173C41.042 30.0224 44.103 33.2828 47.744 33.2828C49.709 33.2828 51.192 32.5733 52.351 31.2445C53.543 29.9333 53.914 28.0897 53.914 26.6014C53.914 26.1416 53.882 25.7159 53.817 25.3617H47.744V25.3628ZM93.052 26.9039C92.698 25.8589 91.618 23.9262 89.411 23.9262C87.22 23.9262 85.399 25.8226 85.399 28.6045C85.399 31.2269 87.204 33.2828 89.62 33.2828C91.569 33.2828 92.697 31.9716 93.165 31.2093L91.715 30.1456C91.232 30.9255 90.571 31.4392 89.62 31.4392C88.67 31.4392 87.993 30.9607 87.558 30.0213L93.245 27.4341L93.052 26.9039ZM87.252 28.4637C87.204 26.6553 88.525 25.7346 89.476 25.7346C90.217 25.7346 90.845 26.1427 91.055 26.7268L87.252 28.4637ZM82.629 33.0001H84.497V19.249H82.629V33.0001ZM79.567 24.9723H79.503C79.084 24.4223 78.278 23.9262 77.264 23.9262C75.137 23.9262 73.188 25.9821 73.188 28.6232C73.188 31.2456 75.137 33.2839 77.264 33.2839C78.279 33.2839 79.084 32.7878 79.503 32.2213H79.567V32.8945C79.567 34.6842 78.697 35.6412 77.296 35.6412C76.152 35.6412 75.443 34.7381 75.153 33.9758L73.526 34.7205C73.993 35.9602 75.233 37.4848 77.296 37.4848C79.487 37.4848 81.34 36.0669 81.34 32.6107V24.2111H79.568V24.9723H79.567ZM77.425 31.4414C76.136 31.4414 75.057 30.2534 75.057 28.6232C75.057 26.9743 76.136 25.7698 77.425 25.7698C78.697 25.7698 79.696 26.9743 79.696 28.6232C79.696 30.2534 78.697 31.4414 77.425 31.4414ZM101.806 19.249H97.335V33.0001H99.2V27.7905H101.805C103.873 27.7905 105.907 26.1438 105.907 23.5203C105.907 20.8968 103.874 19.249 101.806 19.249ZM101.854 25.8765H99.2V21.163H101.854C103.249 21.163 104.041 22.4335 104.041 23.5203C104.041 24.5851 103.249 25.8765 101.854 25.8765ZM113.386 23.902C112.035 23.902 110.636 24.5565 110.057 26.0074L111.713 26.7675C112.067 26.0074 112.727 25.7588 113.418 25.7588C114.383 25.7588 115.364 26.3957 115.38 27.5276V27.6695C115.042 27.4572 114.318 27.1393 113.434 27.1393C111.649 27.1393 109.831 28.2184 109.831 30.2347C109.831 32.075 111.295 33.2597 112.935 33.2597C114.189 33.2597 114.881 32.6404 115.315 31.9144H115.379V32.9759H117.181V27.7036C117.182 25.2638 115.524 23.902 113.386 23.902ZM113.16 31.4381C112.55 31.4381 111.697 31.1015 111.697 30.2699C111.697 29.2084 112.759 28.8014 113.676 28.8014C114.495 28.8014 114.882 28.9961 115.38 29.2612C115.235 30.5361 114.238 31.4381 113.16 31.4381ZM123.743 24.2023L121.604 30.1643H121.54L119.32 24.2023H117.31L120.639 32.5348L118.741 37.1702H120.687L125.818 24.2023H123.743ZM106.937 33.0001H108.802V19.249H106.937V33.0001Z" fill="black"/>
<path d="M47.4176 11.2673C47.4176 12.1891 47.1696 12.9228 46.6726 13.4706C46.1086 14.1218 45.3726 14.4474 44.4686 14.4474C43.6026 14.4474 42.8656 14.1174 42.2606 13.4574C41.6546 12.7963 41.3516 11.9779 41.3516 11.0011C41.3516 10.0232 41.6546 9.20476 42.2606 8.54476C42.8656 7.88366 43.6026 7.55366 44.4686 7.55366C44.8986 7.55366 45.3096 7.64606 45.6996 7.82976C46.0906 8.01456 46.4036 8.25986 46.6376 8.56676L46.1106 9.14756C45.7136 8.62506 45.1666 8.36436 44.4676 8.36436C43.8356 8.36436 43.2896 8.60856 42.8286 9.09696C42.3676 9.58536 42.1376 10.2201 42.1376 11C42.1376 11.7799 42.3676 12.4146 42.8286 12.903C43.2896 13.3914 43.8356 13.6356 44.4676 13.6356C45.1376 13.6356 45.6966 13.3903 46.1436 12.8986C46.4336 12.5785 46.6016 12.133 46.6466 11.5621H44.4676V10.769H47.3746C47.4046 10.9417 47.4176 11.1078 47.4176 11.2673Z" fill="black"/>
<path d="M52.0277 8.51072H49.2957V10.6029H51.7597V11.396H49.2957V13.4882H52.0277V14.3H48.5247V7.70002H52.0277V8.51072Z" fill="black"/>
<path d="M55.2785 14.3H54.5075V8.51072H52.8315V7.70002H56.9545V8.51072H55.2785V14.3Z" fill="black"/>
<path d="M59.9375 14.3V7.70002H60.7085V14.3H59.9375Z" fill="black"/>
<path d="M64.1277 14.3H63.3567V8.51072H61.6807V7.70002H65.8037V8.51072H64.1277V14.3Z" fill="black"/>
<path d="M73.6084 13.4475C73.0184 14.1141 72.2854 14.4474 71.4084 14.4474C70.5314 14.4474 69.7984 14.1141 69.2094 13.4475C68.6194 12.7809 68.3254 11.9647 68.3254 11C68.3254 10.0353 68.6194 9.21911 69.2094 8.55251C69.7984 7.88591 70.5314 7.55151 71.4084 7.55151C72.2804 7.55151 73.0124 7.88701 73.6044 8.55691C74.1964 9.22681 74.4924 10.0408 74.4924 11C74.4924 11.9647 74.1974 12.7809 73.6084 13.4475ZM69.7784 12.8942C70.2224 13.3892 70.7654 13.6356 71.4084 13.6356C72.0514 13.6356 72.5954 13.3881 73.0384 12.8942C73.4824 12.3992 73.7054 11.7678 73.7054 11C73.7054 10.2322 73.4824 9.60081 73.0384 9.10581C72.5954 8.61081 72.0514 8.36441 71.4084 8.36441C70.7654 8.36441 70.2224 8.61191 69.7784 9.10581C69.3354 9.60081 69.1124 10.2322 69.1124 11C69.1124 11.7678 69.3354 12.3992 69.7784 12.8942Z" fill="black"/>
<path d="M75.5745 14.3V7.70002H76.5125L79.4285 12.8337H79.4615L79.4285 11.5621V7.70002H80.1995V14.3H79.3945L76.3435 8.91663H76.3105L76.3435 10.1882V14.3H75.5745Z" fill="black"/>
<path d="M47.4176 11.2673C47.4176 12.1891 47.1696 12.9228 46.6726 13.4706C46.1086 14.1218 45.3726 14.4474 44.4686 14.4474C43.6026 14.4474 42.8656 14.1174 42.2606 13.4574C41.6546 12.7963 41.3516 11.9779 41.3516 11.0011C41.3516 10.0232 41.6546 9.20476 42.2606 8.54476C42.8656 7.88366 43.6026 7.55366 44.4686 7.55366C44.8986 7.55366 45.3096 7.64606 45.6996 7.82976C46.0906 8.01456 46.4036 8.25986 46.6376 8.56676L46.1106 9.14756C45.7136 8.62506 45.1666 8.36436 44.4676 8.36436C43.8356 8.36436 43.2896 8.60856 42.8286 9.09696C42.3676 9.58536 42.1376 10.2201 42.1376 11C42.1376 11.7799 42.3676 12.4146 42.8286 12.903C43.2896 13.3914 43.8356 13.6356 44.4676 13.6356C45.1376 13.6356 45.6966 13.3903 46.1436 12.8986C46.4336 12.5785 46.6016 12.133 46.6466 11.5621H44.4676V10.769H47.3746C47.4046 10.9417 47.4176 11.1078 47.4176 11.2673Z" stroke="black" stroke-width="0.2" stroke-miterlimit="10"/>
<path d="M52.0277 8.51072H49.2957V10.6029H51.7597V11.396H49.2957V13.4882H52.0277V14.3H48.5247V7.70002H52.0277V8.51072Z" stroke="black" stroke-width="0.2" stroke-miterlimit="10"/>
<path d="M55.2785 14.3H54.5075V8.51072H52.8315V7.70002H56.9545V8.51072H55.2785V14.3Z" stroke="black" stroke-width="0.2" stroke-miterlimit="10"/>
<path d="M59.9375 14.3V7.70002H60.7085V14.3H59.9375Z" stroke="black" stroke-width="0.2" stroke-miterlimit="10"/>
<path d="M64.1277 14.3H63.3567V8.51072H61.6807V7.70002H65.8037V8.51072H64.1277V14.3Z" stroke="black" stroke-width="0.2" stroke-miterlimit="10"/>
<path d="M73.6084 13.4475C73.0184 14.1141 72.2854 14.4474 71.4084 14.4474C70.5314 14.4474 69.7984 14.1141 69.2094 13.4475C68.6194 12.7809 68.3254 11.9647 68.3254 11C68.3254 10.0353 68.6194 9.21911 69.2094 8.55251C69.7984 7.88591 70.5314 7.55151 71.4084 7.55151C72.2804 7.55151 73.0124 7.88701 73.6044 8.55691C74.1964 9.22681 74.4924 10.0408 74.4924 11C74.4924 11.9647 74.1974 12.7809 73.6084 13.4475ZM69.7784 12.8942C70.2224 13.3892 70.7654 13.6356 71.4084 13.6356C72.0514 13.6356 72.5954 13.3881 73.0384 12.8942C73.4824 12.3992 73.7054 11.7678 73.7054 11C73.7054 10.2322 73.4824 9.60081 73.0384 9.10581C72.5954 8.61081 72.0514 8.36441 71.4084 8.36441C70.7654 8.36441 70.2224 8.61191 69.7784 9.10581C69.3354 9.60081 69.1124 10.2322 69.1124 11C69.1124 11.7678 69.3354 12.3992 69.7784 12.8942Z" stroke="black" stroke-width="0.2" stroke-miterlimit="10"/>
<path d="M75.5745 14.3V7.70002H76.5125L79.4285 12.8337H79.4615L79.4285 11.5621V7.70002H80.1995V14.3H79.3945L76.3435 8.91663H76.3105L76.3435 10.1882V14.3H75.5745Z" stroke="black" stroke-width="0.2" stroke-miterlimit="10"/>
<path fill-rule="evenodd" clip-rule="evenodd" d="M10.1658 8.73928C10.0415 9.03781 9.97266 9.40649 9.97266 9.83725V34.1649C9.97266 34.5966 10.0416 34.9653 10.166 35.2637L22.2215 22.0006L10.1658 8.73928ZM10.8294 36.0205C11.2783 36.243 11.8688 36.1808 12.5137 35.7786L26.6908 26.9168L22.8973 22.7439L10.8294 36.0205ZM27.5532 26.3789L32.0147 23.5906C33.4116 22.7161 33.4116 21.2872 32.0147 20.4138L27.5512 17.6239L23.573 22.0006L27.5532 26.3789ZM26.6894 17.0852L12.5137 8.22466C11.8687 7.82154 11.2782 7.75977 10.8294 7.98264L22.8972 21.2573L26.6894 17.0852Z" fill="black"/>
<rect x="0.5" y="0.5" width="134" height="43" rx="4.5" stroke="black"/>
</svg>
