<svg width="310" height="220" viewBox="0 0 310 220" fill="none" xmlns="http://www.w3.org/2000/svg">
<path d="M142.383 37.6748C103.251 47.9044 74.9722 25.549 41.4267 45.1616C7.52518 64.984 1.88216 125.736 19.6327 159.622C45.3583 208.729 95.6458 220.394 192.036 219.096C280.204 217.909 302.537 152.53 301.06 84.1288C299.876 29.3255 268.186 -5.67126 216.077 0.759C184.109 4.70432 164.261 31.9542 142.385 37.6725L142.383 37.6748Z" fill="#FDECF2"/>
<path d="M260.329 60.5915H253.871V91.6909H260.329V60.5915Z" fill="url(#paint0_linear_291_7217)"/>
<path d="M253.415 61.0479V61.6731H259.149V92.1472H259.873V61.0479H253.415Z" fill="white"/>
<path d="M274.243 72.0464H267.785V91.6886H274.243V72.0464Z" fill="white"/>
<path d="M267.786 72.2883L267.474 73.0892H272.996V92.2978H273.931V72.2883H267.786Z" fill="white"/>
<path d="M288.161 66.5905H281.703V91.6909H288.161V66.5905Z" fill="url(#paint1_linear_291_7217)"/>
<path d="M281.736 66.8256L281.17 67.7588H286.927V92.291H287.628V66.8256H281.736Z" fill="white"/>
<path d="M260.927 92.2887H253.273V59.9937H260.927V92.2887ZM254.469 91.093H259.729V61.1893H254.469V91.093Z" fill="#2E2E2E"/>
<path d="M274.84 92.2887H267.187V71.4485H274.84V92.2887ZM268.382 91.093H273.642V72.6465H268.382V91.093Z" fill="#2E2E2E"/>
<path d="M288.759 92.2887H281.105V65.9927H288.759V92.2887ZM282.301 91.0931H287.561V67.1906H282.301V91.0931Z" fill="#2E2E2E"/>
<path d="M290.974 97.359H250.779C250.449 97.359 250.182 97.092 250.182 96.7611C250.182 96.4302 250.449 96.1633 250.779 96.1633H290.974C291.305 96.1633 291.572 96.4302 291.572 96.7611C291.572 97.092 291.305 97.359 290.974 97.359Z" fill="#2E2E2E"/>
<path d="M275.059 201.683C266.438 189.758 272.889 168.016 294.322 154.704C297.204 167.578 295.415 201.669 275.059 201.683Z" fill="#F15A8C"/>
<path d="M294.185 156.527C294.069 155.818 294.324 155.521 294.185 154.903C272.752 168.215 265.92 189.584 274.541 201.509C274.771 201.509 274.999 201.503 275.228 201.493C268.056 189.573 274.399 169.417 294.185 156.525V156.527Z" fill="#F15A8C"/>
<path d="M274.704 210.251C280.183 199.552 274.743 188.081 269.725 182.495C265.7 178.011 259.494 173.938 255.27 171.681C254.334 181.828 254.642 201.395 264.749 208.239L274.704 210.251Z" fill="#F15A8C"/>
<path d="M292.754 185.865C292.697 185.865 292.64 185.856 292.583 185.838C292.279 185.744 292.11 185.42 292.206 185.119C295.248 175.398 295.36 162.926 293.929 155.628C281.929 163.291 274.262 173.698 272.308 185.012C272.254 185.324 271.959 185.534 271.644 185.479C271.332 185.425 271.122 185.128 271.177 184.815C273.226 172.959 281.338 162.09 294.02 154.214L294.707 153.787L294.883 154.576C296.558 162.061 296.553 175.072 293.304 185.461C293.226 185.708 293 185.865 292.756 185.865H292.754Z" fill="#2E2E2E"/>
<path d="M300.764 182.506C300.768 181.828 300.515 181.247 300.465 180.58C291.91 185.185 270.664 197.055 275.949 208.072C275.996 208.175 276.307 208.204 277.811 208.143C273.883 198.308 291.242 187.759 300.764 182.506Z" fill="#F15A8C"/>
<path d="M275.868 208.136C270.584 197.119 292.505 185.183 301.06 180.578C301.843 191.152 295.527 203.15 288.097 208.136H275.868Z" fill="#F15A8C"/>
<path d="M276.994 209.149C276.939 209.149 276.885 209.142 276.832 209.126C276.529 209.037 276.353 208.718 276.444 208.412C278.286 202.176 283.116 195.634 290.804 188.968C291.043 188.761 291.406 188.786 291.614 189.025C291.822 189.265 291.796 189.628 291.557 189.836C284.038 196.357 279.324 202.717 277.546 208.738C277.473 208.989 277.243 209.149 276.996 209.149H276.994Z" fill="#2E2E2E"/>
<path d="M287.94 209.149C287.755 209.149 287.573 209.06 287.463 208.894C287.287 208.631 287.356 208.273 287.621 208.097C294.288 203.625 300.908 192.026 300.538 181.516C296.502 183.695 289.218 187.725 283.646 192.396C276.695 198.224 274.251 203.435 276.389 207.89C276.526 208.175 276.405 208.519 276.12 208.656C275.835 208.793 275.49 208.672 275.353 208.387C269.779 196.765 292.308 184.64 300.789 180.076L301.57 179.656L301.636 180.539C302.012 185.623 300.755 191.442 298.099 196.925C295.575 202.132 291.99 206.552 288.262 209.053C288.164 209.119 288.052 209.151 287.942 209.151L287.94 209.149Z" fill="#2E2E2E"/>
<path d="M271.357 209.046C271.357 209.046 271.345 209.046 271.339 209.046C271.021 209.037 270.773 208.77 270.782 208.455C271.069 199.337 268.993 191.711 264.607 185.79C264.418 185.534 264.473 185.176 264.726 184.987C264.981 184.797 265.34 184.852 265.529 185.105C270.072 191.239 272.226 199.107 271.93 208.49C271.92 208.8 271.665 209.046 271.357 209.046Z" fill="#2E2E2E"/>
<path d="M264.747 208.814C264.635 208.814 264.523 208.782 264.425 208.716C259.845 205.615 256.776 199.755 255.302 191.298C253.874 183.109 254.403 174.814 254.698 171.629L254.777 170.766L255.54 171.175C259.996 173.557 266.173 177.68 270.153 182.111C274.801 187.289 277.356 193.281 277.352 198.986C277.352 199.303 277.094 199.559 276.777 199.559C276.46 199.559 276.202 199.301 276.202 198.983C276.209 193.564 273.756 187.843 269.297 182.878C265.641 178.805 260.055 174.988 255.765 172.605C255.277 178.821 254.403 200.54 265.069 207.762C265.331 207.94 265.399 208.296 265.221 208.56C265.11 208.725 264.929 208.814 264.745 208.814H264.747Z" fill="#2E2E2E"/>
<path d="M276.115 194.319C276.087 194.319 276.058 194.319 276.028 194.313C275.716 194.265 275.499 193.973 275.547 193.658C277.146 183.093 280.074 175.467 284.25 170.987C284.466 170.757 284.829 170.743 285.062 170.96C285.295 171.177 285.306 171.54 285.089 171.772C281.073 176.081 278.246 183.501 276.681 193.831C276.637 194.116 276.393 194.319 276.113 194.319H276.115Z" fill="#2E2E2E"/>
<path d="M178.879 193.227H259.967C262.228 193.227 264.061 191.394 264.061 189.133V90.7439C264.061 88.4831 262.228 86.6503 259.967 86.6503L178.879 86.6503C176.618 86.6503 174.785 88.4831 174.785 90.7439V189.133C174.785 191.394 176.618 193.227 178.879 193.227Z" fill="url(#paint2_linear_291_7217)"/>
<path d="M262.084 191.369V92.9801C262.084 90.7188 260.252 88.8864 257.99 88.8864H176.905C176.503 88.8864 176.117 88.9458 175.75 89.053C176.498 88.0695 177.007 87.0039 178.338 87.0039L260.014 86.1528C262.276 86.1528 264.185 89.2652 264.185 91.5265V189.915C264.185 191.775 262.944 193.343 261.244 193.843C261.769 193.156 262.082 192.298 262.082 191.367L262.084 191.369Z" fill="white"/>
<path d="M195.197 129.097H182.824C182.378 129.097 182.017 129.459 182.017 129.905V137.631C182.017 138.078 182.378 138.439 182.824 138.439H195.197C195.643 138.439 196.004 138.078 196.004 137.631V129.905C196.004 129.459 195.643 129.097 195.197 129.097Z" fill="white"/>
<path d="M215.682 129.097H203.31C202.864 129.097 202.502 129.459 202.502 129.905V137.631C202.502 138.078 202.864 138.439 203.31 138.439H215.682C216.128 138.439 216.49 138.078 216.49 137.631V129.905C216.49 129.459 216.128 129.097 215.682 129.097Z" fill="white"/>
<path d="M236.169 129.097H223.797C223.351 129.097 222.989 129.459 222.989 129.905V137.631C222.989 138.078 223.351 138.439 223.797 138.439H236.169C236.615 138.439 236.977 138.078 236.977 137.631V129.905C236.977 129.459 236.615 129.097 236.169 129.097Z" fill="white"/>
<path d="M195.197 143.802H182.824C182.378 143.802 182.017 144.163 182.017 144.609V152.336C182.017 152.782 182.378 153.143 182.824 153.143H195.197C195.643 153.143 196.004 152.782 196.004 152.336V144.609C196.004 144.163 195.643 143.802 195.197 143.802Z" fill="white"/>
<path d="M215.682 143.802H203.31C202.864 143.802 202.502 144.163 202.502 144.609V152.336C202.502 152.782 202.864 153.143 203.31 153.143H215.682C216.128 153.143 216.49 152.782 216.49 152.336V144.609C216.49 144.163 216.128 143.802 215.682 143.802Z" fill="white"/>
<path d="M236.169 143.802H223.797C223.351 143.802 222.989 144.163 222.989 144.609V152.336C222.989 152.782 223.351 153.143 223.797 153.143H236.169C236.615 153.143 236.977 152.782 236.977 152.336V144.609C236.977 144.163 236.615 143.802 236.169 143.802Z" fill="white"/>
<path d="M256.872 143.802H244.5C244.054 143.802 243.692 144.163 243.692 144.609V152.336C243.692 152.782 244.054 153.143 244.5 153.143H256.872C257.318 153.143 257.68 152.782 257.68 152.336V144.609C257.68 144.163 257.318 143.802 256.872 143.802Z" fill="white"/>
<path d="M195.197 158.508H182.824C182.378 158.508 182.017 158.87 182.017 159.316V167.042C182.017 167.488 182.378 167.85 182.824 167.85H195.197C195.643 167.85 196.004 167.488 196.004 167.042V159.316C196.004 158.87 195.643 158.508 195.197 158.508Z" fill="white"/>
<path d="M215.682 158.508H203.31C202.864 158.508 202.502 158.87 202.502 159.316V167.042C202.502 167.488 202.864 167.85 203.31 167.85H215.682C216.128 167.85 216.49 167.488 216.49 167.042V159.316C216.49 158.87 216.128 158.508 215.682 158.508Z" fill="white"/>
<path d="M236.169 158.508H223.797C223.351 158.508 222.989 158.87 222.989 159.316V167.042C222.989 167.488 223.351 167.85 223.797 167.85H236.169C236.615 167.85 236.977 167.488 236.977 167.042V159.316C236.977 158.87 236.615 158.508 236.169 158.508Z" fill="white"/>
<path d="M249.808 158.508H251.567C254.942 158.508 257.682 161.249 257.682 164.623V176.847C257.682 180.222 254.942 182.963 251.567 182.963H249.808C246.433 182.963 243.692 180.222 243.692 176.847V164.623C243.692 161.249 246.433 158.508 249.808 158.508Z" fill="white"/>
<path d="M195.197 173.215H182.824C182.378 173.215 182.017 173.576 182.017 174.022V181.749C182.017 182.195 182.378 182.557 182.824 182.557H195.197C195.643 182.557 196.004 182.195 196.004 181.749V174.022C196.004 173.576 195.643 173.215 195.197 173.215Z" fill="white"/>
<path d="M215.682 173.215H203.31C202.864 173.215 202.502 173.576 202.502 174.022V181.749C202.502 182.195 202.864 182.557 203.31 182.557H215.682C216.128 182.557 216.49 182.195 216.49 181.749V174.022C216.49 173.576 216.128 173.215 215.682 173.215Z" fill="white"/>
<path d="M236.169 173.215H223.797C223.351 173.215 222.989 173.576 222.989 174.022V181.749C222.989 182.195 223.351 182.557 223.797 182.557H236.169C236.615 182.557 236.977 182.195 236.977 181.749V174.022C236.977 173.576 236.615 173.215 236.169 173.215Z" fill="white"/>
<path d="M260.391 193.827H179.305C176.717 193.827 174.611 191.72 174.611 189.133V90.7439C174.611 88.1563 176.717 86.0501 179.305 86.0501H260.391C262.978 86.0501 265.084 88.1563 265.084 90.7439V189.133C265.084 191.72 262.978 193.827 260.391 193.827ZM179.305 87.2504C177.377 87.2504 175.809 88.818 175.809 90.7462V189.135C175.809 191.063 177.377 192.631 179.305 192.631H260.391C262.319 192.631 263.887 191.063 263.887 189.135V90.7462C263.887 88.818 262.319 87.2504 260.391 87.2504H179.305Z" fill="#2E2E2E"/>
<path d="M256.925 95.4171H182.774C182.356 95.4171 182.017 95.7563 182.017 96.1747V117.96C182.017 118.378 182.356 118.717 182.774 118.717H256.925C257.344 118.717 257.683 118.378 257.683 117.96V96.1747C257.683 95.7563 257.344 95.4171 256.925 95.4171Z" fill="url(#paint3_linear_291_7217)"/>
<path d="M256.721 95.4171H182.572C182.152 95.4171 181.814 95.7571 181.814 96.1747V97.3179H254.519C254.939 97.3179 255.276 97.6579 255.276 98.0755V118.715H256.721C257.141 118.715 257.478 118.375 257.478 117.957V96.1747C257.478 95.7548 257.138 95.4171 256.721 95.4171Z" fill="white"/>
<path d="M256.923 119.313H182.774C182.025 119.313 181.416 118.703 181.416 117.955V96.1724C181.416 95.424 182.025 94.8147 182.774 94.8147H256.923C257.671 94.8147 258.28 95.424 258.28 96.1724V117.955C258.28 118.703 257.671 119.313 256.923 119.313ZM182.774 96.0127C182.685 96.0127 182.614 96.0857 182.614 96.1724V117.955C182.614 118.044 182.685 118.115 182.774 118.115H256.923C257.012 118.115 257.082 118.044 257.082 117.955V96.1724C257.082 96.0834 257.012 96.0127 256.923 96.0127H182.774Z" fill="#2E2E2E"/>
<path d="M195.196 139.037H182.824C182.048 139.037 181.418 138.407 181.418 137.631V129.903C181.418 129.127 182.048 128.497 182.824 128.497H195.196C195.972 128.497 196.601 129.127 196.601 129.903V137.631C196.601 138.407 195.972 139.037 195.196 139.037ZM182.824 129.695C182.71 129.695 182.614 129.789 182.614 129.905V137.634C182.614 137.748 182.707 137.844 182.824 137.844H195.196C195.31 137.844 195.406 137.75 195.406 137.634V129.905C195.406 129.791 195.312 129.695 195.196 129.695H182.824Z" fill="#2E2E2E"/>
<path d="M215.682 139.037H203.31C202.534 139.037 201.904 138.407 201.904 137.631V129.903C201.904 129.127 202.534 128.497 203.31 128.497H215.682C216.458 128.497 217.088 129.127 217.088 129.903V137.631C217.088 138.407 216.458 139.037 215.682 139.037ZM203.31 129.695C203.196 129.695 203.1 129.789 203.1 129.905V137.634C203.1 137.748 203.194 137.844 203.31 137.844H215.682C215.796 137.844 215.892 137.75 215.892 137.634V129.905C215.892 129.791 215.799 129.695 215.682 129.695H203.31Z" fill="#2E2E2E"/>
<path d="M236.168 139.037H223.796C223.02 139.037 222.391 138.407 222.391 137.631V129.903C222.391 129.127 223.02 128.497 223.796 128.497H236.168C236.944 128.497 237.574 129.127 237.574 129.903V137.631C237.574 138.407 236.944 139.037 236.168 139.037ZM223.796 129.695C223.682 129.695 223.586 129.789 223.586 129.905V137.634C223.586 137.748 223.68 137.844 223.796 137.844H236.168C236.283 137.844 236.378 137.75 236.378 137.634V129.905C236.378 129.791 236.285 129.695 236.168 129.695H223.796Z" fill="#2E2E2E"/>
<path d="M244.593 138.439H256.966C257.412 138.439 257.773 138.078 257.773 137.631V129.905C257.773 129.459 257.412 129.097 256.966 129.097H244.593C244.147 129.097 243.786 129.459 243.786 129.905V137.631C243.786 138.078 244.147 138.439 244.593 138.439Z" fill="url(#paint4_linear_291_7217)"/>
<path d="M256.493 138.829V130.743C256.493 130.494 256.292 130.293 256.043 130.293H243.311C243.311 130.293 243.297 130.293 243.29 130.293C243.368 129.93 243.981 129.093 244.367 129.093L257.406 129.225C257.431 129.225 257.602 129.823 257.602 129.848L257.26 138.193C257.26 138.631 257.52 138.533 257.084 138.542C257.095 138.487 256.491 138.884 256.491 138.825L256.493 138.829Z" fill="white"/>
<path d="M256.875 139.037H244.5C243.724 139.037 243.095 138.407 243.095 137.631V129.903C243.095 129.127 243.724 128.497 244.5 128.497H256.875C257.651 128.497 258.28 129.127 258.28 129.903V137.631C258.28 138.407 257.651 139.037 256.875 139.037ZM244.5 129.695C244.386 129.695 244.29 129.789 244.29 129.905V137.634C244.29 137.748 244.384 137.844 244.5 137.844H256.875C256.989 137.844 257.085 137.75 257.085 137.634V129.905C257.085 129.791 256.991 129.695 256.875 129.695H244.5Z" fill="#2E2E2E"/>
<path d="M195.196 153.744H182.824C182.048 153.744 181.418 153.114 181.418 152.338V144.609C181.418 143.833 182.048 143.204 182.824 143.204H195.196C195.972 143.204 196.601 143.833 196.601 144.609V152.338C196.601 153.114 195.972 153.744 195.196 153.744ZM182.824 144.402C182.71 144.402 182.614 144.495 182.614 144.612V152.34C182.614 152.454 182.707 152.55 182.824 152.55H195.196C195.31 152.55 195.406 152.457 195.406 152.34V144.612C195.406 144.497 195.312 144.402 195.196 144.402H182.824Z" fill="#2E2E2E"/>
<path d="M215.682 153.744H203.31C202.534 153.744 201.904 153.114 201.904 152.338V144.609C201.904 143.833 202.534 143.204 203.31 143.204H215.682C216.458 143.204 217.088 143.833 217.088 144.609V152.338C217.088 153.114 216.458 153.744 215.682 153.744ZM203.31 144.402C203.196 144.402 203.1 144.495 203.1 144.612V152.34C203.1 152.454 203.194 152.55 203.31 152.55H215.682C215.796 152.55 215.892 152.457 215.892 152.34V144.612C215.892 144.497 215.799 144.402 215.682 144.402H203.31Z" fill="#2E2E2E"/>
<path d="M236.168 153.744H223.796C223.02 153.744 222.391 153.114 222.391 152.338V144.609C222.391 143.833 223.02 143.204 223.796 143.204H236.168C236.944 143.204 237.574 143.833 237.574 144.609V152.338C237.574 153.114 236.944 153.744 236.168 153.744ZM223.796 144.402C223.682 144.402 223.586 144.495 223.586 144.612V152.34C223.586 152.454 223.68 152.55 223.796 152.55H236.168C236.283 152.55 236.378 152.457 236.378 152.34V144.612C236.378 144.497 236.285 144.402 236.168 144.402H223.796Z" fill="#2E2E2E"/>
<path d="M256.875 153.744H244.5C243.724 153.744 243.095 153.114 243.095 152.338V144.609C243.095 143.833 243.724 143.204 244.5 143.204H256.875C257.651 143.204 258.28 143.833 258.28 144.609V152.338C258.28 153.114 257.651 153.744 256.875 153.744ZM244.5 144.402C244.386 144.402 244.29 144.495 244.29 144.612V152.34C244.29 152.454 244.384 152.55 244.5 152.55H256.875C256.989 152.55 257.085 152.457 257.085 152.34V144.612C257.085 144.497 256.991 144.402 256.875 144.402H244.5Z" fill="#2E2E2E"/>
<path d="M195.196 168.45H182.824C182.048 168.45 181.418 167.82 181.418 167.045V159.316C181.418 158.54 182.048 157.91 182.824 157.91H195.196C195.972 157.91 196.601 158.54 196.601 159.316V167.045C196.601 167.82 195.972 168.45 195.196 168.45ZM182.824 159.108C182.71 159.108 182.614 159.202 182.614 159.318V167.047C182.614 167.161 182.707 167.257 182.824 167.257H195.196C195.31 167.257 195.406 167.163 195.406 167.047V159.318C195.406 159.204 195.312 159.108 195.196 159.108H182.824Z" fill="#2E2E2E"/>
<path d="M215.682 168.45H203.31C202.534 168.45 201.904 167.82 201.904 167.045V159.316C201.904 158.54 202.534 157.91 203.31 157.91H215.682C216.458 157.91 217.088 158.54 217.088 159.316V167.045C217.088 167.82 216.458 168.45 215.682 168.45ZM203.31 159.108C203.196 159.108 203.1 159.202 203.1 159.318V167.047C203.1 167.161 203.194 167.257 203.31 167.257H215.682C215.796 167.257 215.892 167.163 215.892 167.047V159.318C215.892 159.204 215.799 159.108 215.682 159.108H203.31Z" fill="#2E2E2E"/>
<path d="M236.168 168.45H223.796C223.02 168.45 222.391 167.82 222.391 167.045V159.316C222.391 158.54 223.02 157.91 223.796 157.91H236.168C236.944 157.91 237.574 158.54 237.574 159.316V167.045C237.574 167.82 236.944 168.45 236.168 168.45ZM223.796 159.108C223.682 159.108 223.586 159.202 223.586 159.318V167.047C223.586 167.161 223.68 167.257 223.796 167.257H236.168C236.283 167.257 236.378 167.163 236.378 167.047V159.318C236.378 159.204 236.285 159.108 236.168 159.108H223.796Z" fill="#2E2E2E"/>
<path d="M251.567 183.561H249.808C246.107 183.561 243.095 180.549 243.095 176.847V164.623C243.095 160.922 246.107 157.91 249.808 157.91H251.567C255.268 157.91 258.28 160.922 258.28 164.623V176.847C258.28 180.549 255.268 183.561 251.567 183.561ZM249.808 159.108C246.766 159.108 244.293 161.582 244.293 164.623V176.847C244.293 179.889 246.766 182.363 249.808 182.363H251.567C254.609 182.363 257.082 179.889 257.082 176.847V164.623C257.082 161.582 254.609 159.108 251.567 159.108H249.808Z" fill="#2E2E2E"/>
<path d="M195.196 183.157H182.824C182.048 183.157 181.418 182.527 181.418 181.751V174.022C181.418 173.246 182.048 172.617 182.824 172.617H195.196C195.972 172.617 196.601 173.246 196.601 174.022V181.751C196.601 182.527 195.972 183.157 195.196 183.157ZM182.824 173.815C182.71 173.815 182.614 173.908 182.614 174.025V181.753C182.614 181.867 182.707 181.963 182.824 181.963H195.196C195.31 181.963 195.406 181.87 195.406 181.753V174.025C195.406 173.911 195.312 173.815 195.196 173.815H182.824Z" fill="#2E2E2E"/>
<path d="M215.682 183.157H203.31C202.534 183.157 201.904 182.527 201.904 181.751V174.022C201.904 173.246 202.534 172.617 203.31 172.617H215.682C216.458 172.617 217.088 173.246 217.088 174.022V181.751C217.088 182.527 216.458 183.157 215.682 183.157ZM203.31 173.815C203.196 173.815 203.1 173.908 203.1 174.025V181.753C203.1 181.867 203.194 181.963 203.31 181.963H215.682C215.796 181.963 215.892 181.87 215.892 181.753V174.025C215.892 173.911 215.799 173.815 215.682 173.815H203.31Z" fill="#2E2E2E"/>
<path d="M236.168 183.157H223.796C223.02 183.157 222.391 182.527 222.391 181.751V174.022C222.391 173.246 223.02 172.617 223.796 172.617H236.168C236.944 172.617 237.574 173.246 237.574 174.022V181.751C237.574 182.527 236.944 183.157 236.168 183.157ZM223.796 173.815C223.682 173.815 223.586 173.908 223.586 174.025V181.753C223.586 181.867 223.68 181.963 223.796 181.963H236.168C236.283 181.963 236.378 181.87 236.378 181.753V174.025C236.378 173.911 236.285 173.815 236.168 173.815H223.796Z" fill="#2E2E2E"/>
<path d="M193.501 25.0379C192.976 25.0379 192.55 24.6112 192.55 24.0841C192.55 23.557 192.976 23.1326 193.501 23.1326C194.026 23.1326 194.453 23.5593 194.453 24.0841C194.453 24.6089 194.026 25.0379 193.501 25.0379Z" fill="#2E2E2E"/>
<path d="M203.704 25.038C203.179 25.038 202.752 24.6113 202.752 24.0842C202.752 23.5571 203.179 23.1326 203.704 23.1326C204.228 23.1326 204.655 23.5593 204.655 24.0842C204.655 24.609 204.228 25.038 203.704 25.038Z" fill="#2E2E2E"/>
<path d="M213.904 25.038C213.379 25.038 212.952 24.6113 212.952 24.0842C212.952 23.5571 213.379 23.1326 213.904 23.1326C214.429 23.1326 214.855 23.5593 214.855 24.0842C214.855 24.609 214.429 25.038 213.904 25.038Z" fill="#2E2E2E"/>
<path d="M193.501 35.126C192.976 35.126 192.55 34.6993 192.55 34.1745C192.55 33.6497 192.976 33.223 193.501 33.223C194.026 33.223 194.453 33.6497 194.453 34.1745C194.453 34.6993 194.026 35.126 193.501 35.126Z" fill="#2E2E2E"/>
<path d="M203.704 35.126C203.179 35.126 202.752 34.6993 202.752 34.1745C202.752 33.6497 203.179 33.223 203.704 33.223C204.228 33.223 204.655 33.6497 204.655 34.1745C204.655 34.6993 204.228 35.126 203.704 35.126Z" fill="#2E2E2E"/>
<path d="M213.904 35.126C213.379 35.126 212.952 34.6993 212.952 34.1745C212.952 33.6497 213.379 33.223 213.904 33.223C214.429 33.223 214.855 33.6497 214.855 34.1745C214.855 34.6993 214.429 35.126 213.904 35.126Z" fill="#2E2E2E"/>
<path d="M193.501 45.2324C192.976 45.2324 192.55 44.8057 192.55 44.2786C192.55 43.7515 192.976 43.327 193.501 43.327C194.026 43.327 194.453 43.7537 194.453 44.2786C194.453 44.8034 194.026 45.2324 193.501 45.2324Z" fill="#2E2E2E"/>
<path d="M203.704 45.2324C203.179 45.2324 202.752 44.8057 202.752 44.2786C202.752 43.7515 203.179 43.327 203.704 43.327C204.228 43.327 204.655 43.7537 204.655 44.2786C204.655 44.8034 204.228 45.2324 203.704 45.2324Z" fill="#2E2E2E"/>
<path d="M213.904 45.2324C213.379 45.2324 212.952 44.8057 212.952 44.2786C212.952 43.7515 213.379 43.327 213.904 43.327C214.429 43.327 214.855 43.7537 214.855 44.2786C214.855 44.8034 214.429 45.2324 213.904 45.2324Z" fill="#2E2E2E"/>
<path d="M46.6958 30.9913L49.3131 40.0708C49.3405 40.1552 49.4546 40.1643 49.4957 40.0867L60.3231 19.5432C60.3618 19.4656 60.2888 19.3789 60.2067 19.404L38.1617 26.7607C38.0704 26.7881 38.0682 26.9159 38.1572 26.9478L46.6365 30.9274C46.6662 30.9388 46.6867 30.9616 46.6981 30.9913H46.6958Z" fill="url(#paint5_linear_291_7217)"/>
<path d="M40.4863 27.8833L60.2312 19.7987L38.1543 26.95L40.4863 27.8833Z" fill="white"/>
<path d="M49.4062 40.7393C49.3856 40.7393 49.3674 40.7393 49.3468 40.737C49.0639 40.7142 48.8266 40.5225 48.7422 40.2533L46.1842 31.3791L37.9148 27.4977C37.6546 27.3859 37.4858 27.128 37.4903 26.8428C37.4972 26.5439 37.6934 26.2815 37.981 26.1925L60.0145 18.8381C60.2951 18.7514 60.585 18.8381 60.7675 19.0526C60.9478 19.2671 60.982 19.5683 60.8542 19.8193L58.4172 24.869C58.2734 25.1657 57.9152 25.2912 57.6185 25.1474C57.3219 25.0036 57.1964 24.6454 57.3402 24.3488L59.2706 20.3487L39.5349 26.9364L46.8779 30.382C47.0627 30.4618 47.2065 30.6193 47.2681 30.811L49.5636 38.7723L54.5996 30.0306C54.7639 29.7453 55.1313 29.6472 55.4166 29.8115C55.7018 29.9758 55.8022 30.3432 55.6356 30.6284L50.0177 40.3788C49.8945 40.6024 49.6617 40.7393 49.4084 40.7393H49.4062ZM38.3643 27.3243L38.346 27.3311C38.346 27.3311 38.3574 27.3266 38.3643 27.3243ZM59.7817 19.283C59.7817 19.283 59.7749 19.2967 59.7726 19.3036L59.7817 19.283Z" fill="#2E2E2E"/>
<path d="M46.6817 31.5434C46.5129 31.5434 46.344 31.4727 46.2254 31.3312C46.0109 31.0779 46.0428 30.7014 46.2938 30.4869L53.4475 24.4218C53.7007 24.2073 54.0772 24.2392 54.2917 24.4902C54.5062 24.7435 54.4743 25.12 54.2233 25.3345L47.0696 31.3997C46.9578 31.4955 46.8186 31.5412 46.684 31.5412L46.6817 31.5434Z" fill="#2E2E2E"/>
<path d="M1.62197 98.1348C1.51016 98.1348 1.40974 98.0595 1.38008 97.9477C0.878072 96.0332 0.524393 94.0388 0.332717 92.0217C0.319026 91.8848 0.421707 91.7616 0.558618 91.7479C0.693248 91.7365 0.818766 91.8369 0.832457 91.9738C1.02185 93.9635 1.36867 95.9305 1.86612 97.8199C1.90034 97.9545 1.8205 98.0914 1.68815 98.1256C1.66762 98.1302 1.64479 98.1348 1.62425 98.1348H1.62197ZM0.481043 86.2691C0.481043 86.2691 0.469646 86.2691 0.465082 86.2691C0.325889 86.26 0.220918 86.1414 0.230045 86.0044C0.353265 83.9896 0.638485 81.9838 1.07432 80.0465C1.10398 79.9119 1.23863 79.8252 1.37326 79.8571C1.50788 79.8868 1.5923 80.0214 1.56264 80.1561C1.13137 82.0683 0.852977 84.0466 0.729757 86.0364C0.72063 86.1687 0.611107 86.2714 0.478759 86.2714L0.481043 86.2691ZM34.9279 79.1064C34.9142 79.1064 34.8982 79.1064 34.8845 79.1018C33.4538 78.8508 32.1737 78.269 31.0761 77.3745C30.5764 76.9683 30.0995 76.537 29.6591 76.0966C29.561 75.9985 29.561 75.8411 29.6591 75.743C29.7572 75.6448 29.9169 75.6448 30.015 75.743C30.444 76.1719 30.9073 76.5895 31.3933 76.9866C32.4247 77.8263 33.6272 78.3716 34.9735 78.609C35.1104 78.6341 35.2017 78.7641 35.1766 78.8988C35.1561 79.0197 35.0488 79.1064 34.9302 79.1064H34.9279ZM40.7899 78.3739C40.6895 78.3739 40.596 78.3146 40.5572 78.2165C40.5047 78.0887 40.5686 77.9427 40.6964 77.8902C42.4899 77.1668 44.1557 76.0282 45.5134 74.5997C45.6093 74.4993 45.7667 74.4948 45.8671 74.5906C45.9675 74.6865 45.972 74.8439 45.8762 74.9443C44.4683 76.4252 42.7432 77.6049 40.8835 78.3557C40.8539 78.3671 40.8219 78.3739 40.7899 78.3739ZM3.11659 74.6499C3.08465 74.6499 3.05269 74.6431 3.02075 74.6317C2.89296 74.5792 2.83136 74.4309 2.88384 74.3031C3.6437 72.4616 4.56556 70.6978 5.6175 69.064L5.67911 68.9681C5.75441 68.8518 5.90958 68.8198 6.02596 68.8951C6.14233 68.9704 6.17426 69.1256 6.09896 69.242L6.03963 69.3355C5.00139 70.9442 4.09779 72.6807 3.34706 74.4948C3.30827 74.5906 3.21471 74.6499 3.11431 74.6499H3.11659ZM26.4485 71.2819C26.3527 71.2819 26.2614 71.2272 26.2204 71.1336C25.4194 69.3332 24.938 67.3594 24.7942 65.2647C24.7851 65.1255 24.89 65.0068 25.0269 64.9977C25.1661 64.9863 25.2848 65.0935 25.2939 65.2305C25.4331 67.2659 25.8986 69.1826 26.6767 70.9282C26.7338 71.0537 26.6767 71.2021 26.5489 71.2591C26.5147 71.2751 26.4805 71.2819 26.4463 71.2819H26.4485ZM48.6943 69.9105C48.6715 69.9105 48.6464 69.9083 48.6236 69.9014C48.4912 69.8626 48.4136 69.7234 48.4524 69.5911C48.7377 68.6099 48.8837 67.6013 48.8837 66.5927C48.8837 65.6709 48.7605 64.7353 48.5209 63.8157C48.4867 63.6811 48.5665 63.5442 48.6989 63.5099C48.8312 63.4757 48.9704 63.5556 49.0046 63.6902C49.2556 64.6509 49.3834 65.6275 49.3834 66.5927C49.3834 67.6492 49.2306 68.7034 48.9316 69.7326C48.8997 69.8421 48.7993 69.9128 48.6897 69.9128L48.6943 69.9105ZM9.52174 64.6075C9.46241 64.6075 9.40309 64.587 9.35517 64.5436C9.25249 64.4524 9.24337 64.2926 9.33464 64.1899C10.6718 62.6953 12.1322 61.2943 13.677 60.0233C13.7843 59.9343 13.9417 59.9503 14.0307 60.0575C14.1196 60.1647 14.1037 60.3222 13.9965 60.4112C12.4722 61.6639 11.03 63.0467 9.71113 64.5231C9.66092 64.5779 9.59248 64.6075 9.52403 64.6075H9.52174ZM25.4765 59.5464C25.4605 59.5464 25.4422 59.5464 25.4263 59.5418C25.2894 59.5144 25.2026 59.3821 25.23 59.2452C25.6088 57.3695 26.2135 55.4345 27.0236 53.4949C27.076 53.3671 27.2244 53.3078 27.3521 53.3603C27.4799 53.4127 27.5393 53.5611 27.4868 53.6889C26.6881 55.5988 26.0949 57.5018 25.7206 59.3456C25.6955 59.4642 25.5928 59.5464 25.4742 59.5464H25.4765ZM46.0473 58.7158C45.972 58.7158 45.8991 58.6815 45.8489 58.6199C44.6166 57.0432 43.1266 55.7631 41.4197 54.8092C41.2988 54.7431 41.2555 54.5902 41.3216 54.467C41.3901 54.346 41.543 54.3027 41.6639 54.3688C43.4301 55.3546 44.9726 56.6781 46.2459 58.3073C46.3303 58.4168 46.3121 58.5743 46.2025 58.6587C46.1569 58.6952 46.1021 58.7112 46.0473 58.7112V58.7158ZM18.7381 57.0455C18.6514 57.0455 18.567 56.9998 18.5214 56.9222C18.4506 56.8036 18.4917 56.6484 18.6104 56.58C20.3834 55.544 22.2134 54.6769 24.0503 54.0015C24.1804 53.9535 24.3241 54.0197 24.372 54.1498C24.4199 54.2798 24.3538 54.4236 24.2237 54.4715C22.4142 55.1355 20.6116 55.9912 18.8637 57.0135C18.8249 57.0363 18.7792 57.0477 18.7381 57.0477V57.0455ZM29.9261 53.0111C29.8029 53.0111 29.6956 52.9199 29.6773 52.7944C29.6591 52.6575 29.7549 52.5297 29.8918 52.5114C31.9843 52.2193 34.0311 52.2102 35.9251 52.4795C36.062 52.5 36.1578 52.6255 36.1373 52.7624C36.1167 52.8993 35.9912 52.9929 35.8543 52.9746C34.006 52.7099 32.0071 52.7213 29.9603 53.0066C29.9489 53.0066 29.9375 53.0089 29.9261 53.0089V53.0111ZM29.9968 48.5296C29.9512 48.5296 29.9055 48.5182 29.8667 48.4931C29.7481 48.4201 29.7116 48.2649 29.7846 48.1485C30.816 46.4691 31.9911 44.8216 33.2758 43.2494C33.3625 43.1421 33.5223 43.1262 33.6295 43.2129C33.7368 43.2996 33.7527 43.4593 33.666 43.5666C32.395 45.1205 31.2336 46.7497 30.2136 48.4109C30.1657 48.4885 30.0835 48.5296 29.9991 48.5296H29.9968ZM37.5452 39.279C37.479 39.279 37.4128 39.2516 37.3626 39.2014C37.2668 39.101 37.2713 38.9412 37.3717 38.8477C38.8527 37.4489 40.4157 36.1619 42.013 35.0233C42.1271 34.9434 42.2823 34.9685 42.3622 35.0826C42.442 35.1944 42.4169 35.3519 42.3028 35.4317C40.7238 36.5567 39.179 37.83 37.714 39.2128C37.6661 39.2584 37.6045 39.2812 37.5429 39.2812L37.5452 39.279Z" fill="#2E2E2E"/>
<path d="M46.6907 99.2666L38.3848 94.6116L46.6907 89.7056V99.2643V99.2666ZM40.7852 94.5865L45.495 97.2243V91.8049L40.7852 94.5865Z" fill="white"/>
<path d="M79.9215 99.3579C79.9717 99.44 72.081 101.973 72.081 101.973C72.081 101.973 68.9229 102.865 66.1801 104.22C63.4374 105.576 58.3967 110.083 57.2284 111.351C56.0601 112.62 52.3887 117.159 50.1205 121.998C47.8501 126.838 45.7553 135.525 45.7553 135.525L41.7004 153.068C41.7004 153.068 39.1813 170.383 39.1448 172.423C39.1105 174.463 39.268 179.273 40.4066 181.34C41.543 183.408 45.0342 184.973 46.6064 185.518C48.1786 186.064 56.569 187.944 56.569 187.944L55.8365 208.476L93.341 208.681L128.735 208.606L129.451 207.821L128.844 176.14L128.374 159.943L128.618 156.865C128.618 156.865 138.191 164.181 140.632 165.411C143.074 166.641 148.22 169.491 152.478 168.103C156.735 166.716 158.433 166.184 158.819 165.429C159.204 164.674 162.874 161.694 164.359 159.291C165.845 156.888 169.913 148.854 169.913 148.854L183.392 119.794L162.166 112.234L148.489 137.164L147.825 137.123C147.825 137.123 139.238 123.79 136.979 121.59C134.72 119.393 127.567 111.235 125.33 109.464C123.094 107.693 113.545 101.818 112.18 101.229C110.815 100.64 106.585 99.132 106.585 99.132C106.585 99.132 106.567 112.889 106.334 115.454C106.101 118.019 103.815 133.809 103.815 133.809L101.654 141.987L101.248 141.814L94.9361 124.931C94.9361 124.931 89.5554 114.425 88.7066 112.88C87.8577 111.338 82.8012 103.216 82.7601 103.027C82.719 102.835 79.8279 99.2095 79.9147 99.3533L79.9215 99.3579Z" fill="#F58AAD"/>
<path d="M122.812 109.809C125.028 111.605 129.788 115.967 134.306 121.595C135.912 123.596 143.865 134.708 146.938 139.01C147.454 139.731 148.469 141.098 150.112 138.512L163.73 112.981L162.172 112.239L148.369 138.245L146.655 135.637C144.346 132.098 138.568 123.34 136.777 121.595C134.518 119.397 127.364 111.239 125.128 109.469C122.892 107.698 113.342 101.822 111.978 101.234C110.613 100.645 106.383 99.1365 106.383 99.1365C106.383 99.1365 106.383 100.248 106.383 100.814C113.075 103.127 118.394 106.231 122.812 109.811V109.809Z" fill="white"/>
<path d="M128.416 159.948C128.416 159.948 127.8 146.093 127.786 145.762C127.695 143.247 126.764 132.689 126.764 132.689C126.764 132.689 126.139 136.618 126.164 143.977C126.184 150.147 126.417 176.142 126.417 176.142L127.024 207.823L126.308 208.608L92.6982 208.679L93.3828 208.684L128.777 208.608L129.493 207.823L128.886 176.142L128.416 159.946V159.948Z" fill="white"/>
<path d="M82.2464 101.592C82.2464 101.592 88.6379 104.652 91.9055 105.028C95.1754 105.402 98.4384 105.428 100.661 104.127C102.883 102.826 104.686 101.592 104.686 101.592L105.927 100.022L106.338 100.697C106.338 100.697 106.167 111.093 106.144 116.835C106.121 122.576 103.57 135.238 103.57 135.238L101.508 142.599C101.508 142.599 97.9273 132.737 97.026 130.485C96.1247 128.232 92.6699 120.924 91.6202 118.569C90.5683 116.216 85.3634 106.854 84.8112 106.304C84.2613 105.754 82.2441 102.206 82.2441 102.206V101.592H82.2464Z" fill="white"/>
<path d="M84.3279 87.2435C84.3279 87.2435 85.0946 97.1946 79.9216 99.4331C80.3438 100.387 88.0519 107.267 97.1337 105.202C105.063 103.399 104.707 100.478 105.666 99.0909C103.518 98.1644 102.866 94.639 102.788 92.5853C102.749 91.5516 102.868 87.2937 102.868 87.2937C102.868 87.2937 107.824 83.6747 108.967 79.8343C109.588 77.7487 110.663 74.9854 110.663 74.9854C110.663 74.9854 114.75 74.472 115.872 72.9294C116.993 71.3869 117.524 69.9927 116.657 68.2995C115.788 66.6064 114.95 66.2778 114.398 66.15C113.846 66.0223 112.212 65.9538 112.212 65.9538C112.212 65.9538 102.256 61.6479 108.659 46.9848C106.136 45.1068 102.736 40.3058 92.4878 40.7234C85.2133 41.02 80.9941 43.4776 78.7648 46.7406C84.7569 57.4927 76.1269 65.2738 76.1269 65.2738C76.1269 65.2738 70.8695 65.7211 70.5158 70.3646C70.363 72.3727 71.1958 73.4086 72.9734 74.2871C74.7487 75.1679 76.8731 74.1137 76.8731 74.1137C76.8731 74.1137 77.9866 79.3688 79.123 81.046C80.2571 82.7231 81.5509 85.062 81.8567 85.3633C82.1625 85.6622 84.3302 87.2435 84.3302 87.2435H84.3279Z" fill="white"/>
<path d="M73.0116 65.9538C67.1541 58.3438 72.9728 46.2592 78.5565 46.9848C81.7534 51.4116 82.8099 62.401 75.3505 65.6572L73.0094 65.9538H73.0116Z" fill="white"/>
<path d="M114.204 65.9538C120.062 58.3438 114.243 46.2592 108.659 46.9848C105.462 51.4116 104.406 62.401 111.865 65.6572L114.206 65.9538H114.204Z" fill="white"/>
<path d="M100.959 79.314C101.059 79.3163 101.121 79.2045 101.061 79.1223C100.762 78.707 100.023 77.7281 99.2906 77.1166C95.7766 74.189 90.4051 75.266 87.9315 76.9158C86.9914 77.5433 86.1996 78.3739 85.8619 78.7481C85.7934 78.8257 85.8459 78.9489 85.9509 78.9512L100.956 79.314H100.959Z" fill="white"/>
<path d="M103.521 208.757V190.258C103.521 186.479 108.018 181.388 113.568 181.388H117.488C120.593 181.388 123.37 182.938 125.214 184.966C127.044 186.979 125.705 190.217 122.987 190.365L122.898 190.37C121.94 190.422 121.004 190.05 120.354 189.343C119.681 188.61 118.62 187.871 117.488 187.871H113.568C113.132 187.871 112.707 187.98 112.31 188.156C110.882 188.793 110.003 190.253 110.003 191.816V208.757H103.521Z" fill="url(#paint6_linear_291_7217)"/>
<path d="M103.521 209.357C103.19 209.357 102.923 209.09 102.923 208.759V190.26C102.923 185.997 107.836 180.79 113.57 180.79H117.49C120.502 180.79 123.478 182.166 125.659 184.564C126.659 185.664 126.93 187.205 126.364 188.585C125.796 189.97 124.516 190.883 123.021 190.965L122.932 190.97C121.785 191.036 120.685 190.589 119.914 189.749C119.637 189.45 118.649 188.471 117.488 188.471H113.568C113.244 188.471 112.904 188.551 112.552 188.706C111.366 189.233 110.601 190.456 110.601 191.821V208.761C110.601 209.092 110.334 209.359 110.003 209.359C109.673 209.359 109.406 209.092 109.406 208.761V191.821C109.406 189.984 110.451 188.334 112.069 187.613C112.573 187.389 113.077 187.275 113.57 187.275H117.49C119.094 187.275 120.338 188.441 120.797 188.941C121.324 189.514 122.077 189.82 122.866 189.776L122.955 189.772C123.998 189.715 124.858 189.101 125.255 188.133C125.65 187.17 125.47 186.139 124.772 185.372C122.818 183.223 120.165 181.991 117.488 181.991H113.568C108.176 181.991 104.119 187.008 104.119 190.262V208.761C104.119 209.092 103.852 209.359 103.521 209.359V209.357Z" fill="#2E2E2E"/>
<path d="M182.487 118.792C182.487 118.792 184.023 115.438 185.084 115.253C186.145 115.068 193.381 114.797 195.327 114.576C197.276 114.352 198.481 113.987 199.076 113.704C199.672 113.421 203.681 110.95 204.541 109.934C205.404 108.919 206.164 107.7 206.157 107.128C206.15 106.555 205.415 105.263 205.415 105.263C205.415 105.263 207.359 104.056 207.462 103.285C207.565 102.514 206.707 100.471 206.157 100.296C205.607 100.12 204.541 99.5792 204.541 99.5792C204.541 99.5792 203.781 98.0093 202.752 97.4936C201.723 96.9779 200.822 97.1582 200.822 97.1582C200.822 97.1582 200.438 96.1587 199.099 96.2842C197.759 96.4097 195.546 97.715 194.8 98.8308C194.054 99.9466 191.799 101.494 191.799 101.494C191.799 101.494 187.078 102.794 186.049 102.872C185.02 102.95 184.201 102.413 184.201 102.413C184.201 102.413 187.927 99.1913 188.623 97.6214C189.319 96.0515 191.418 94.5318 189.775 93.6578C188.135 92.7816 188.554 92.0286 186.838 92.2385C185.123 92.4484 179.532 96.4805 178.425 97.0464C177.319 97.6145 169.786 100.567 168.673 102.151C167.557 103.734 165.914 105.936 165.33 107.776C164.746 109.615 164.417 112.997 164.417 112.997L182.492 118.792H182.487Z" fill="white"/>
<path d="M184.835 103.719C183.504 103.719 182.103 103.424 180.444 102.646C180.145 102.507 180.015 102.151 180.154 101.85C180.294 101.551 180.65 101.421 180.951 101.56C184.346 103.148 186.484 102.486 189.722 101.487C190.354 101.293 191.007 101.09 191.721 100.889C193.168 100.086 194.124 99.0704 194.966 98.1713C195.851 97.2289 196.684 96.339 197.894 95.8803C198.747 95.5563 199.975 95.57 200.794 96.3321C201.157 96.6699 201.337 97.3179 201.243 97.9409C201.193 98.2672 200.887 98.4931 200.561 98.4429C200.235 98.3927 200.009 98.0869 200.059 97.7606C200.105 97.4662 200.011 97.2472 199.972 97.2015C199.557 96.8159 198.825 96.8068 198.318 96.9985C197.369 97.359 196.659 98.1143 195.84 98.9905C194.923 99.9671 193.884 101.074 192.237 101.973L192.178 102.005L192.111 102.023C191.386 102.226 190.719 102.434 190.076 102.632C188.171 103.221 186.562 103.719 184.837 103.719H184.835Z" fill="#2E2E2E"/>
<path d="M163.965 113.448C163.924 113.448 163.88 113.444 163.839 113.435C163.515 113.366 163.31 113.047 163.378 112.725C164.659 106.731 165.973 102.566 172.307 99.4263C172.971 99.0954 173.592 98.7919 174.174 98.5044C178.646 96.3002 180.892 95.1912 184.54 92.583C186.231 91.3736 187.993 91.2801 189.255 92.332C190.286 93.1923 190.651 94.6344 190.119 95.7662C188.417 99.3944 185.159 102.347 184.088 103.317C183.844 103.538 183.466 103.52 183.244 103.276C183.023 103.032 183.041 102.653 183.285 102.429C184.312 101.498 187.436 98.6665 189.036 95.2551C189.339 94.6093 189.109 93.765 188.488 93.2493C187.657 92.5579 186.473 92.6697 185.234 93.5551C181.505 96.2203 179.233 97.3407 174.701 99.5746C174.119 99.8621 173.501 100.166 172.837 100.496C166.97 103.406 165.79 107.15 164.547 112.974C164.487 113.254 164.239 113.448 163.963 113.448H163.965Z" fill="#2E2E2E"/>
<path d="M182.358 119.618C182.258 119.618 182.155 119.593 182.062 119.539C181.774 119.374 181.674 119.009 181.838 118.722C182.014 118.411 182.171 118.092 182.338 117.752C182.84 116.725 183.358 115.662 184.467 114.877C185.051 114.461 186.785 114.357 190.899 114.194C193.471 114.094 196.385 113.98 197.585 113.672C202.162 111.947 204.764 109.01 205.145 108.191C205.877 106.619 205.428 106.096 205.282 105.923C204.907 105.487 204.038 105.537 202.696 106.071C201.781 106.436 200.716 107.219 199.687 107.974C198.199 109.065 196.795 110.096 195.493 110.247C194.749 110.334 193.589 110.208 192.122 110.051C189.165 109.733 185.117 109.3 182.534 110.473C182.233 110.61 181.879 110.475 181.742 110.174C181.605 109.873 181.74 109.519 182.041 109.382C184.921 108.077 189.158 108.529 192.25 108.862C193.589 109.006 194.746 109.129 195.358 109.058C196.344 108.944 197.685 107.96 198.981 107.011C200.072 106.21 201.199 105.384 202.256 104.962C202.952 104.684 205.069 103.839 206.192 105.145C206.931 106.007 206.945 107.169 206.233 108.698C205.701 109.841 202.883 112.965 197.98 114.804L197.923 114.822C196.613 115.171 193.733 115.283 190.949 115.392C188.704 115.479 185.63 115.6 185.149 115.863C184.3 116.463 183.871 117.346 183.415 118.277C183.248 118.619 183.077 118.97 182.881 119.315C182.771 119.509 182.568 119.616 182.36 119.616L182.358 119.618Z" fill="#2E2E2E"/>
<path d="M191.795 107.084C191.518 107.084 191.27 106.893 191.21 106.612C191.142 106.288 191.347 105.971 191.671 105.902L192.351 105.758C194.029 105.405 195.763 105.037 196.507 104.636C197.328 104.193 198.613 103.207 199.856 102.254C201.159 101.254 202.284 100.389 202.964 100.065C204.238 99.4605 206.04 99.497 206.992 101.001C207.987 102.573 207.256 104.385 206.159 105.405C205.917 105.628 205.538 105.615 205.312 105.373C205.086 105.131 205.102 104.752 205.344 104.526C205.967 103.949 206.649 102.703 205.979 101.64C205.333 100.617 204.101 100.848 203.475 101.145C202.907 101.414 201.725 102.322 200.582 103.2C199.302 104.184 197.978 105.199 197.072 105.688C196.178 106.169 194.439 106.537 192.598 106.927L191.92 107.071C191.877 107.08 191.836 107.084 191.795 107.084Z" fill="#2E2E2E"/>
<path d="M190.786 104.291C190.501 104.291 190.248 104.086 190.198 103.796C190.14 103.47 190.36 103.159 190.684 103.105C191.754 102.918 194.741 102.192 195.711 101.085C196.893 99.7367 200.728 96.5192 202.476 96.6881C203.407 96.7748 204.215 97.238 204.694 97.9614C205.144 98.6391 205.255 99.4811 205.004 100.273C204.904 100.588 204.569 100.761 204.254 100.661C203.939 100.56 203.765 100.223 203.866 99.9078C204.01 99.4583 203.95 98.9996 203.699 98.6208C203.421 98.201 202.937 97.9317 202.369 97.8792C201.422 97.7925 198.029 100.259 196.612 101.875C195.188 103.497 191.325 104.209 190.889 104.287C190.855 104.294 190.82 104.296 190.786 104.296V104.291Z" fill="#2E2E2E"/>
<path d="M105.927 99.6956C105.857 99.6956 105.786 99.6841 105.715 99.6568C104.415 99.1639 103.44 97.2198 103.13 96.1108C101.962 91.9236 102.297 87.8938 102.311 87.725C102.34 87.3964 102.63 87.1522 102.959 87.1819C103.287 87.2115 103.532 87.5013 103.504 87.8299C103.5 87.8687 103.176 91.8209 104.282 95.789C104.583 96.8706 105.421 98.2648 106.14 98.5364C106.448 98.6528 106.603 98.9996 106.487 99.3077C106.395 99.5472 106.169 99.6933 105.927 99.6933V99.6956Z" fill="#2E2E2E"/>
<path d="M94.0418 90.6731C85.1927 90.6731 78.9016 84.9069 76.3254 74.4355C76.2456 74.1137 76.4418 73.7897 76.7636 73.7121C77.0853 73.6323 77.4093 73.8285 77.4869 74.1503C79.9171 84.033 85.7974 89.4775 94.0418 89.4775C102.286 89.4775 108.865 83.4876 110.088 74.2164C110.131 73.8878 110.432 73.6597 110.759 73.7007C111.087 73.7441 111.318 74.0453 111.274 74.3716C110.619 79.3483 108.561 83.5195 105.323 86.4357C102.288 89.1694 98.2837 90.6731 94.044 90.6731H94.0418Z" fill="#2E2E2E"/>
<path d="M74.9609 75.1862C72.1679 75.1862 69.8975 72.9157 69.8975 70.1228C69.8975 67.3298 72.1679 65.0593 74.9609 65.0593C75.0955 65.0593 75.2301 65.0639 75.3625 65.0753C75.6911 65.1027 75.9375 65.3902 75.9124 65.7188C75.8851 66.0474 75.5975 66.2938 75.269 66.2687C75.1685 66.2596 75.0658 66.2573 74.9609 66.2573C72.8296 66.2573 71.0931 67.9915 71.0931 70.125C71.0931 72.2586 72.8273 73.9928 74.9609 73.9928C75.5428 73.9928 76.0995 73.8673 76.6198 73.6208C76.9187 73.4794 77.2747 73.6049 77.4184 73.9038C77.5599 74.2027 77.4344 74.5587 77.1355 74.7024C76.4532 75.0265 75.723 75.1908 74.9632 75.1908L74.9609 75.1862Z" fill="#2E2E2E"/>
<path d="M72.5757 70.4992C72.2494 70.4992 71.9801 70.2368 71.9779 69.9082C71.9665 69.0046 72.2585 68.2562 72.8176 67.7405C73.2329 67.3594 74.0018 66.9304 75.3093 67.0559C75.6379 67.0878 75.8798 67.3799 75.8479 67.7085C75.8159 68.0371 75.5238 68.279 75.1952 68.247C74.5084 68.1809 73.9676 68.3109 73.6276 68.6213C73.2443 68.9727 73.1713 69.5066 73.1758 69.8945C73.1804 70.2254 72.9157 70.4969 72.5848 70.4992H72.578H72.5757Z" fill="#2E2E2E"/>
<path d="M112.568 75.1862C111.808 75.1862 111.076 75.0219 110.396 74.6979C110.097 74.5564 109.971 74.1981 110.113 73.8992C110.254 73.6003 110.613 73.4748 110.911 73.6163C111.432 73.8627 111.991 73.9882 112.57 73.9882C114.702 73.9882 116.438 72.254 116.438 70.1205C116.438 67.9869 114.704 66.2527 112.57 66.2527C112.395 66.2527 112.217 66.2641 112.043 66.2892C111.717 66.3349 111.413 66.1044 111.37 65.7781C111.324 65.4495 111.555 65.1483 111.881 65.105C112.107 65.073 112.34 65.0593 112.57 65.0593C115.363 65.0593 117.634 67.3298 117.634 70.1228C117.634 72.9157 115.363 75.1862 112.57 75.1862H112.568Z" fill="#2E2E2E"/>
<path d="M114.952 70.4992H114.946C114.615 70.4947 114.35 70.2254 114.355 69.8945C114.359 69.5089 114.284 68.9727 113.903 68.6213C113.565 68.3109 113.022 68.1809 112.335 68.247C112.004 68.2813 111.714 68.0371 111.683 67.7085C111.651 67.3799 111.892 67.0878 112.221 67.0559C113.529 66.9304 114.298 67.3594 114.713 67.7405C115.272 68.2539 115.564 69.0046 115.553 69.9082C115.548 70.2368 115.281 70.4992 114.955 70.4992H114.952Z" fill="#2E2E2E"/>
<path d="M86.9262 66.3965C86.9262 67.4188 86.4402 68.2471 85.8401 68.2471C85.2399 68.2471 84.7539 67.4188 84.7539 66.3965C84.7539 65.3742 85.2399 64.5459 85.8401 64.5459C86.4402 64.5459 86.9262 65.3742 86.9262 66.3965Z" fill="#2E2E2E"/>
<path d="M101.04 66.3965C101.04 67.4188 101.526 68.2471 102.126 68.2471C102.726 68.2471 103.212 67.4188 103.212 66.3965C103.212 65.3742 102.726 64.5459 102.126 64.5459C101.526 64.5459 101.04 65.3742 101.04 66.3965Z" fill="#2E2E2E"/>
<path d="M94.6919 75.905C94.3998 75.905 94.1442 75.6905 94.1009 75.3938C94.053 75.0675 94.2789 74.764 94.6052 74.7161L94.8174 74.6865C95.9492 74.5313 96.3302 74.3738 96.3576 73.7577C96.3804 73.1941 95.9012 72.6008 95.3422 71.9163C95.1026 71.6219 94.8562 71.3184 94.6211 70.9853C94.0598 70.1866 93.0124 68.6966 93.1813 65.6252C93.1995 65.2944 93.4802 65.0388 93.8111 65.0593C94.1419 65.0776 94.3929 65.3582 94.377 65.6891C94.2423 68.1421 94.9383 69.3538 95.6024 70.2962C95.8123 70.5951 96.045 70.8826 96.2732 71.161C96.9555 71.9984 97.5989 72.7902 97.5556 73.808C97.4826 75.5262 95.9195 75.7407 94.9839 75.8707L94.7809 75.8981C94.7512 75.9027 94.7215 75.905 94.6941 75.905H94.6919Z" fill="#2E2E2E"/>
<path d="M81.217 62.4603C81.0322 62.4603 80.8519 62.3758 80.7332 62.2161C80.537 61.9491 80.5963 61.5749 80.861 61.3787C82.8029 59.9548 86.2302 59.5304 89.0072 60.3678C89.3244 60.4636 89.5024 60.7968 89.4065 61.114C89.3107 61.4312 88.9775 61.6091 88.6604 61.5133C86.253 60.7877 83.2022 61.1436 81.5661 62.3439C81.4589 62.4215 81.3356 62.4603 81.2124 62.4603H81.217Z" fill="#2E2E2E"/>
<path d="M106.062 62.4854C105.941 62.4854 105.82 62.4489 105.715 62.3736C103.951 61.1163 101.099 60.7603 98.6162 61.4928C98.2991 61.5863 97.9659 61.4061 97.8724 61.0889C97.7788 60.7717 97.9591 60.4386 98.2763 60.345C101.092 59.5144 104.36 59.9388 106.406 61.3992C106.676 61.5909 106.737 61.9651 106.546 62.2344C106.429 62.3987 106.244 62.4854 106.057 62.4854H106.062Z" fill="#2E2E2E"/>
<path d="M93.5233 83.7021C91.5792 83.6382 90.3789 82.8487 89.6602 81.5252C89.1125 80.5144 89.0258 79.9393 89.4525 79.5971C89.9933 79.1635 91.5176 79.451 93.804 79.6107C95.4743 79.7271 97.8429 79.2981 98.1646 80.4824C98.4407 81.5024 96.6084 83.8025 93.5233 83.7021Z" fill="#2E2E2E"/>
<path d="M90.0957 82.0546C91.1454 80.8269 94.3856 80.2428 95.2436 83.232C93.3017 83.7774 90.6319 82.7916 90.0957 82.0546Z" fill="white"/>
<path d="M93.6947 84.1059C93.6217 84.1059 93.5464 84.1059 93.4711 84.1014C91.4357 84.0352 89.9707 83.2 89.1128 81.6187C88.807 81.0528 88.0859 79.7293 89.0534 78.9535C89.6513 78.4743 90.6622 78.5656 92.3348 78.7162C92.7843 78.7573 93.2772 78.8006 93.8134 78.8394C94.2127 78.8668 94.6737 78.8622 95.1232 78.8577C96.6315 78.8394 98.3406 78.8212 98.6988 80.1424C98.854 80.7105 98.6304 81.4316 98.0873 82.1207C97.7131 82.5953 96.3075 84.1082 93.6947 84.1082V84.1059ZM93.5099 82.9285C95.2646 82.9878 96.5493 82.1709 97.1654 81.3905C97.5237 80.9387 97.6013 80.5805 97.5648 80.4504C97.4438 80.0054 96.109 80.0191 95.1346 80.0305C94.6645 80.0351 94.1762 80.0419 93.729 80.01C93.1836 79.9712 92.6839 79.9256 92.2275 79.8868C91.1893 79.7932 90.0141 79.6883 89.786 79.8708C89.6582 79.9735 89.7859 80.407 90.1419 81.0597C90.8059 82.2827 91.8738 82.876 93.5076 82.9285H93.5099Z" fill="#2E2E2E"/>
<path d="M94.7735 83.3803C94.6275 82.0979 93.8699 81.6507 93.2607 81.5001C92.2772 81.2582 91.0747 81.6552 90.5818 82.3854L89.6074 81.7282C90.3787 80.5873 92.0695 79.9986 93.539 80.3591C94.8945 80.6923 95.7684 81.7442 95.9396 83.248L94.7712 83.3803H94.7735Z" fill="#2E2E2E"/>
<path d="M129.584 209.348C129.262 209.348 128.995 209.099 128.986 208.775C128.918 206.028 127.323 141.816 126.565 131.801C126.54 131.473 126.787 131.185 127.117 131.16C127.448 131.137 127.734 131.381 127.759 131.712C128.516 141.757 130.113 205.998 130.182 208.729C130.191 209.06 129.929 209.343 129.6 209.35C129.596 209.35 129.589 209.35 129.584 209.35V209.348Z" fill="#2E2E2E"/>
<path d="M55.3623 209.149C55.3623 209.149 55.344 209.149 55.3326 209.149C55.0017 209.133 54.7484 208.853 54.7644 208.524L55.7114 188.656C55.7274 188.325 56.008 188.063 56.3366 188.088C56.6675 188.104 56.9208 188.384 56.9048 188.713L55.9578 208.581C55.9419 208.9 55.6772 209.151 55.36 209.151L55.3623 209.149Z" fill="#2E2E2E"/>
<path d="M92.9369 172.975C92.9369 172.975 104.278 169.897 107.71 169.087C111.993 168.074 118.005 167.437 121.579 168.174C123.306 168.53 128.618 172.471 128.83 173.872C129.059 175.369 126.585 175.328 124.846 174.821C126.204 175.761 126.79 176.448 127.229 177.717C127.669 178.985 128.906 180.195 128.027 180.806C127.149 181.416 128.534 181.425 126.923 180.838C128.155 185.548 121.973 182.632 122.37 183.864C122.765 185.096 123.304 185.041 122.453 185.502C121.602 185.963 121.065 187.038 119.208 186.306C117.353 185.573 113.106 184.352 111.153 184.45C109.2 184.549 106.758 186.258 104.903 186.696C103.048 187.136 101.779 187.869 100.07 187.869C98.3608 187.869 92.1223 186.954 92.1702 186.808C92.2181 186.662 92.9346 172.977 92.9346 172.977L92.9369 172.975Z" fill="white"/>
<path d="M127.341 181.986C126.695 181.986 126.008 181.762 125.387 181.338C125.114 181.153 125.043 180.779 125.23 180.507C125.415 180.234 125.789 180.163 126.061 180.35C126.825 180.87 127.427 180.809 127.651 180.756C127.904 180.699 128.028 180.587 128.059 180.53C128.317 180.088 128.607 179.588 126.314 177.292C124.922 175.9 122.633 174.016 119.63 172.938C117.98 172.347 115.493 171.645 113.006 171.645C112.675 171.645 112.408 171.378 112.408 171.047C112.408 170.716 112.675 170.449 113.006 170.449C115.667 170.449 118.295 171.191 120.034 171.814C123.247 172.964 125.682 174.967 127.16 176.446C129.39 178.675 129.86 179.814 129.095 181.13C128.872 181.514 128.443 181.801 127.916 181.922C127.731 181.963 127.539 181.986 127.343 181.986H127.341Z" fill="#2E2E2E"/>
<path d="M99.8919 188.268C97.3134 188.268 92.4691 187.727 92.2295 187.702C91.9009 187.666 91.6636 187.369 91.7024 187.04C91.7389 186.712 92.0355 186.479 92.3641 186.513C94.2375 186.723 99.4128 187.225 100.83 187.029C103.623 186.641 106.605 185.251 108.579 184.332C109.172 184.056 109.686 183.816 110.096 183.649C111.363 183.134 113.323 183.649 115.803 184.307C117.261 184.692 118.77 185.089 120.289 185.315C121.303 185.466 121.606 185.174 121.827 184.959C122.254 184.549 122.256 184.229 122.22 184.026C122.131 183.522 121.426 182.132 116.816 180.092C114.138 178.908 112.355 178.903 108.36 179.494C108.034 179.542 107.728 179.316 107.68 178.99C107.632 178.664 107.858 178.358 108.184 178.31C112.367 177.692 114.373 177.703 117.3 178.997C121.129 180.69 123.123 182.267 123.397 183.816C123.486 184.318 123.429 185.073 122.658 185.82C122.188 186.271 121.519 186.707 120.114 186.497C118.528 186.262 116.919 185.838 115.498 185.461C113.412 184.911 111.443 184.391 110.548 184.756C110.167 184.911 109.665 185.146 109.086 185.416C107.046 186.365 103.965 187.8 100.994 188.213C100.72 188.252 100.339 188.268 99.8919 188.268Z" fill="#2E2E2E"/>
<path d="M125.152 184.724C124.241 184.724 123.203 184.416 122.379 183.823C122.112 183.629 122.051 183.255 122.244 182.988C122.438 182.721 122.813 182.659 123.08 182.853C124.241 183.693 125.743 183.638 126.051 183.291C126.105 183.23 126.516 182.598 123.892 179.656C121.261 176.708 116.115 174.983 110.778 175.259C110.45 175.275 110.167 175.022 110.148 174.693C110.13 174.362 110.386 174.082 110.714 174.066C116.485 173.767 121.877 175.604 124.784 178.862C126.47 180.752 128.045 182.851 126.945 184.088C126.564 184.517 125.9 184.727 125.149 184.727L125.152 184.724Z" fill="#2E2E2E"/>
<path d="M126.679 175.921C125.994 175.921 125.214 175.791 124.358 175.528C124.043 175.43 123.865 175.095 123.963 174.78C124.061 174.465 124.394 174.287 124.712 174.385C125.453 174.613 127.89 175.241 128.429 173.835C128.258 173.174 125.675 170.673 121.332 168.722C118.61 167.499 113.001 168.63 108.495 169.541C107.878 169.664 107.281 169.785 106.71 169.897C101.355 170.937 93.1536 172.852 93.0715 172.87C92.7498 172.945 92.428 172.745 92.3527 172.423C92.2774 172.101 92.4782 171.779 92.8 171.704C92.8821 171.686 101.106 169.764 106.482 168.722C107.05 168.612 107.646 168.491 108.257 168.368C113.177 167.375 118.751 166.25 121.823 167.631C125.903 169.465 130.09 172.646 129.583 174.157C129.195 175.316 128.16 175.923 126.676 175.923L126.679 175.921Z" fill="#2E2E2E"/>
<path d="M79.894 99.7892C79.6704 99.7892 79.4582 99.6637 79.3555 99.4514C79.2117 99.1548 79.3372 98.7966 79.6339 98.6528C81.6373 97.6853 82.7874 96.0173 83.0521 93.6898C83.4286 90.3765 83.5496 86.9241 83.5496 86.8899C83.561 86.559 83.8302 86.2943 84.1679 86.3125C84.4988 86.3239 84.7567 86.6001 84.7452 86.9309C84.7452 86.9652 84.622 90.4655 84.241 93.8244C83.9329 96.5466 82.5181 98.5889 80.1541 99.7298C80.0697 99.7709 79.9807 99.7892 79.894 99.7892Z" fill="#2E2E2E"/>
<path d="M94.5027 105.809C88.9349 105.809 83.244 103.545 79.6067 99.7184C79.3785 99.4788 79.3877 99.1 79.6273 98.8718C79.8669 98.6437 80.2457 98.6551 80.4738 98.8924C84.4967 103.125 91.5157 105.375 97.5421 104.362C101.453 103.705 104.317 101.788 105.602 98.9631C105.738 98.6619 106.094 98.5296 106.393 98.6665C106.695 98.8034 106.827 99.1571 106.69 99.4583C105.234 102.657 102.056 104.818 97.7383 105.542C96.675 105.72 95.5888 105.806 94.5004 105.806L94.5027 105.809Z" fill="#2E2E2E"/>
<path d="M101.51 144.242C101.373 144.242 101.234 144.194 101.12 144.098C100.981 143.979 87.1233 132.02 78.9953 120.143L78.7557 119.792L79.009 119.45C80.1819 117.859 81.4186 116.12 82.1671 115.059L76.7248 115.34L76.5332 115.075C76.3461 114.815 71.9626 108.636 71.2484 101.895C71.2142 101.567 71.4515 101.272 71.7801 101.238C72.1087 101.204 72.4031 101.441 72.4373 101.77C73.0374 107.438 76.4853 112.866 77.3227 114.112L84.5516 113.74L83.8511 114.744C83.8329 114.772 82.0005 117.396 80.2229 119.819C88.2939 131.454 101.764 143.076 101.898 143.192C102.149 143.407 102.177 143.786 101.962 144.037C101.844 144.173 101.677 144.244 101.508 144.244L101.51 144.242Z" fill="#2E2E2E"/>
<path d="M101.603 143.4C101.496 143.4 101.389 143.373 101.293 143.313C101.01 143.142 100.921 142.772 101.094 142.492C101.19 142.337 110.496 127.007 112.335 118.706C110.674 116.668 108.846 114.509 108.828 114.489L107.992 113.503H114.172C114.252 111.787 114.409 106.459 113.517 102.336C113.446 102.012 113.651 101.694 113.975 101.624C114.3 101.553 114.617 101.758 114.687 102.082C115.796 107.205 115.356 113.861 115.336 114.142L115.297 114.699H110.571C111.308 115.577 112.422 116.912 113.446 118.172L113.624 118.391L113.567 118.669C111.837 127.107 102.514 142.464 102.117 143.115C102.005 143.3 101.806 143.402 101.606 143.402L101.603 143.4Z" fill="#2E2E2E"/>
<path d="M102.375 170.773C102.054 170.773 101.789 170.517 101.778 170.193L100.911 143.662C100.899 143.331 101.159 143.055 101.49 143.044C101.816 143.032 102.097 143.293 102.108 143.623L102.973 170.155C102.985 170.485 102.725 170.762 102.394 170.773C102.387 170.773 102.38 170.773 102.373 170.773H102.375Z" fill="#2E2E2E"/>
<path d="M73.0142 66.5516C72.8339 66.5516 72.6582 66.4718 72.5396 66.3189C68.8065 61.47 69.58 55.0465 72.0033 50.8342C73.7809 47.7446 76.259 46.0811 78.6367 46.3915L78.8922 46.4257L79.0428 46.6356C81.0052 49.3533 82.3857 54.8115 81.0828 59.5783C80.2225 62.7227 78.324 65.0137 75.5927 66.2071C75.2892 66.3394 74.9378 66.2002 74.8054 65.899C74.6731 65.5956 74.8123 65.2441 75.1135 65.1118C78.1324 63.7929 79.3988 61.2053 79.9282 59.2634C81.0988 54.9827 79.9419 50.1177 78.2259 47.5575C76.4369 47.4708 74.4746 48.9358 73.0393 51.4321C70.8145 55.2998 70.0911 61.1779 73.4865 65.591C73.6873 65.8534 73.6394 66.2276 73.377 66.4307C73.2675 66.5151 73.1397 66.5539 73.0119 66.5539L73.0142 66.5516Z" fill="#2E2E2E"/>
<path d="M108.659 47.5826C108.486 47.5826 108.315 47.5073 108.196 47.3635C106.621 45.4354 104.283 43.797 101.433 42.6219C96.3668 40.5362 90.6029 40.5499 85.617 42.6607C82.8651 43.8244 80.5855 45.4514 79.0247 47.3635C78.8148 47.6191 78.4383 47.6579 78.1827 47.448C77.9272 47.238 77.8883 46.8615 78.0983 46.606C79.7823 44.5432 82.2216 42.7998 85.1515 41.5585C90.4317 39.3246 96.5311 39.3086 101.889 41.5152C104.921 42.7633 107.425 44.5249 109.125 46.606C109.335 46.8615 109.296 47.238 109.04 47.448C108.928 47.5393 108.796 47.5826 108.661 47.5826H108.659Z" fill="#2E2E2E"/>
<path d="M114.204 66.5517C114.076 66.5517 113.948 66.5106 113.839 66.4284C113.576 66.2276 113.528 65.8511 113.729 65.5887C117.125 61.1756 116.401 55.2976 114.176 51.4298C112.741 48.9312 110.774 47.4708 108.99 47.5552C107.274 50.1132 106.117 54.9804 107.288 59.2612C107.817 61.2007 109.083 63.7906 112.102 65.1095C112.406 65.2419 112.543 65.5933 112.41 65.8968C112.278 66.2003 111.927 66.3395 111.623 66.2048C108.889 65.0114 106.991 62.7182 106.133 59.576C104.83 54.8093 106.211 49.3511 108.173 46.6334L108.324 46.4234L108.579 46.3892C110.957 46.0789 113.435 47.7424 115.212 50.832C117.636 55.0443 118.409 61.4677 114.676 66.3166C114.558 66.4695 114.382 66.5494 114.202 66.5494L114.204 66.5517Z" fill="#2E2E2E"/>
<path d="M100.961 79.9142C100.961 79.9142 100.949 79.9142 100.942 79.9142L85.9368 79.5514C85.6562 79.5445 85.4028 79.3734 85.2933 79.1155C85.1815 78.8577 85.2317 78.5565 85.4188 78.3488C85.8159 77.9084 86.6282 77.071 87.6003 76.4207C90.2381 74.6568 95.9017 73.5159 99.6736 76.658C100.436 77.2923 101.175 78.2553 101.547 78.7733C101.707 78.9969 101.727 79.2867 101.599 79.5286C101.474 79.7659 101.23 79.9119 100.963 79.9119L100.961 79.9142ZM87.064 78.3808L99.9748 78.6934C99.6622 78.3123 99.2811 77.8902 98.9069 77.5776C95.7465 74.9443 90.6945 75.7909 88.2643 77.4156C87.8193 77.7122 87.404 78.0636 87.064 78.3808Z" fill="#2E2E2E"/>
<path d="M67.6934 150.259C67.6934 150.259 66.3517 154.038 65.7402 156.283C64.6974 160.126 63.4697 167.898 63.4697 167.898L92.1732 171.937L92.3625 170.438L65.5759 166.401L67.6912 150.261L67.6934 150.259Z" fill="white"/>
<path d="M84.2207 190.29C57.5367 190.29 42.9237 187.328 39.6219 181.276C35.2978 173.349 44.5667 133.825 49.5662 121.843C52.1926 115.55 55.9713 110.63 61.1146 106.806C65.8495 103.285 71.9238 100.583 79.6866 98.5455L80.0517 98.4496L80.2959 98.7371C80.4145 98.8786 92.0953 112.894 101.465 141.554C107.094 120.456 105.823 99.351 105.809 99.1342L105.752 98.2557L106.59 98.5272C124.863 104.43 136.151 117.583 148.334 136.885L161.881 111.577L184.207 119.527L183.935 120.12C183.869 120.264 177.234 134.802 169.535 151.138C166.849 156.838 164.441 160.753 161.961 163.46C159.3 166.362 156.446 168.028 152.977 168.699C147.33 169.794 140.872 168.158 127.715 156.619C127.466 156.402 127.441 156.023 127.66 155.774C127.877 155.526 128.256 155.5 128.505 155.72C141.297 166.939 147.449 168.553 152.749 167.526C158.958 166.321 163.214 161.741 168.453 150.629C175.271 136.164 181.254 123.112 182.578 120.219L162.452 113.051L149.208 137.796C149.119 138.099 148.877 138.33 148.56 138.398C148.195 138.478 147.827 138.325 147.627 138.006C135.656 118.961 124.644 105.911 107.046 99.9397C107.226 104.323 107.676 124.34 102.083 143.808L101.535 145.716L100.938 143.824C92.271 116.406 81.3524 101.984 79.6182 99.8028C64.1951 103.922 55.5264 110.667 50.6706 122.304C45.2626 135.26 36.7878 173.584 40.6715 180.704C43.9756 186.762 61.0211 189.559 91.3446 189.028L91.9561 170.981L64.5534 166.864L64.6241 166.285C64.6835 165.805 67.2756 151.544 67.5723 149.919C67.6316 149.593 67.9419 149.376 68.2682 149.438C68.5923 149.497 68.809 149.807 68.7497 150.134C68.0446 154.006 66.3401 163.412 65.9111 165.858L93.1883 169.956L92.5038 190.203L91.9356 190.214C89.2613 190.265 86.6873 190.29 84.2207 190.29Z" fill="#2E2E2E"/>
<path d="M249.049 101.069H244.567L243.83 100.109L244.567 99.1456H249.049L249.786 100.109L249.049 101.069Z" fill="white"/>
<path d="M249.049 115.769H244.567L243.83 114.808L244.567 113.845H249.049L249.786 114.808L249.049 115.769Z" fill="white"/>
<path d="M242.762 106.459V101.98L243.725 101.24L244.685 101.98V106.459L243.725 107.196L242.762 106.459Z" fill="white"/>
<path d="M242.762 112.942V108.462L243.725 107.723L244.685 108.462V112.942L243.725 113.679L242.762 112.942Z" fill="white"/>
<path d="M248.822 106.459V101.98L249.785 101.24L250.746 101.98V106.459L249.785 107.196L248.822 106.459Z" fill="white"/>
<path d="M248.822 112.942V108.462L249.785 107.723L250.746 108.462V112.942L249.785 113.679L248.822 112.942Z" fill="white"/>
<path d="M140.868 103.052C140.701 103.052 140.537 102.984 140.42 102.851C139.9 102.265 139.318 101.987 138.643 101.998C138.549 101.998 138.449 102.009 138.346 102.021C137.244 102.128 136.062 102.044 134.803 99.7344C134.645 99.4446 134.75 99.0818 135.042 98.922C135.332 98.7646 135.695 98.8695 135.854 99.1616C136.84 100.969 137.545 100.898 138.23 100.83C138.358 100.816 138.49 100.805 138.622 100.802C139.64 100.775 140.573 101.218 141.32 102.06C141.539 102.306 141.516 102.685 141.267 102.904C141.153 103.004 141.011 103.054 140.87 103.054L140.868 103.052Z" fill="white"/>
<path d="M278.208 119.981V112.31L283.618 117.321L278.208 119.981ZM279.406 115.05V118.06L281.528 117.017L279.406 115.052V115.05Z" fill="white"/>
<path d="M308.632 209.357H20.8723C20.5414 209.357 20.2744 209.09 20.2744 208.759C20.2744 208.428 20.5414 208.161 20.8723 208.161H308.632C308.963 208.161 309.23 208.428 309.23 208.759C309.23 209.09 308.963 209.357 308.632 209.357Z" fill="#2E2E2E"/>
<defs>
<linearGradient id="paint0_linear_291_7217" x1="259.555" y1="76.1743" x2="252.246" y2="76.0739" gradientUnits="userSpaceOnUse">
<stop stop-color="#C1C7D6"/>
<stop offset="1" stop-color="#A5A9B8"/>
</linearGradient>
<linearGradient id="paint1_linear_291_7217" x1="287.999" y1="78.8349" x2="281.991" y2="79.4351" gradientUnits="userSpaceOnUse">
<stop stop-color="#C1C7D6"/>
<stop offset="1" stop-color="#A5A9B8"/>
</linearGradient>
<linearGradient id="paint2_linear_291_7217" x1="175.582" y1="179.948" x2="258.087" y2="104.654" gradientUnits="userSpaceOnUse">
<stop stop-color="#74AAE0"/>
<stop offset="1" stop-color="#A5D1FE"/>
</linearGradient>
<linearGradient id="paint3_linear_291_7217" x1="259.501" y1="99.3168" x2="181.104" y2="114.637" gradientUnits="userSpaceOnUse">
<stop stop-color="#C1C7D6"/>
<stop offset="1" stop-color="#A5A9B8"/>
</linearGradient>
<linearGradient id="paint4_linear_291_7217" x1="257.105" y1="129.412" x2="245.958" y2="137.088" gradientUnits="userSpaceOnUse">
<stop stop-color="#C1C7D6"/>
<stop offset="1" stop-color="#A5A9B8"/>
</linearGradient>
<linearGradient id="paint5_linear_291_7217" x1="32.2563" y1="26.0149" x2="47.7152" y2="28.5919" gradientUnits="userSpaceOnUse">
<stop stop-color="#C1C7D6"/>
<stop offset="1" stop-color="#A5A9B8"/>
</linearGradient>
<linearGradient id="paint6_linear_291_7217" x1="111.041" y1="195.111" x2="102.9" y2="197.247" gradientUnits="userSpaceOnUse">
<stop stop-color="#C1C7D6"/>
<stop offset="1" stop-color="#A5A9B8"/>
</linearGradient>
</defs>
</svg>
