<svg width="344" height="211" viewBox="0 0 344 211" fill="none" xmlns="http://www.w3.org/2000/svg">
<path d="M323.335 69.4136C309.738 29.3378 274.194 14.6229 225.354 27.4523C225.077 27.5257 224.802 27.6054 224.527 27.6851C206.975 32.7292 186.618 29.0505 171.501 18.3918C138.566 -4.8235 113.619 -1.24336 91.7308 3.49451C31.7241 16.4812 9.95803 71.9912 21.1641 128.067C29.6855 170.706 44.2095 194.511 97.123 204.094C185.666 220.13 275.581 207.579 309.465 165.159C329.545 140.02 332.578 96.662 323.332 69.4136H323.335Z" fill="#FDECF2"/>
<path d="M192.998 42.4064H184.447V63.0168H192.998V42.4064Z" fill="url(#paint0_linear_291_7504)"/>
<path d="M184.447 42.4064V43.2579H191.989V63.0168H192.998V42.4064H184.447Z" fill="white"/>
<path d="M212.92 25.9905H204.369V63.0168H212.92V25.9905Z" fill="url(#paint1_linear_291_7504)"/>
<path d="M204.365 26.2275V26.9385H212.016V63.2538H212.916V26.2275H204.365Z" fill="white"/>
<path d="M216.253 70.8712H161.697C159.044 70.8712 156.888 68.7131 156.888 66.062V18.8847C156.888 16.2316 159.046 14.0756 161.697 14.0756H216.253C218.906 14.0756 221.062 16.2337 221.062 18.8847V66.062C221.062 68.7152 218.904 70.8712 216.253 70.8712ZM157.987 52.3602V66.062C157.987 68.1069 159.652 69.7722 161.697 69.7722H216.253C218.297 69.7722 219.963 68.1069 219.963 66.062V18.8847C219.963 16.8398 218.297 15.1746 216.253 15.1746H161.697C159.652 15.1746 157.987 16.8398 157.987 18.8847V52.3602Z" fill="#2E2E2E"/>
<path d="M173.328 49.8707H164.777V63.0167H173.328V49.8707Z" fill="url(#paint2_linear_291_7504)"/>
<path d="M172.198 51.0243L165.034 50.9529L164.881 49.7784L173.176 50.1098V63.0168L172.081 62.6854L172.198 51.0243Z" fill="white"/>
<path d="M173.878 63.5663H164.229V49.3212H173.878V63.5663ZM165.328 62.4673H172.777V50.4202H165.328V62.4673Z" fill="#2E2E2E"/>
<path d="M193.801 63.5662H184.151V41.8547H193.801V63.5662ZM185.25 62.4672H192.7V42.9558H185.25V62.4672Z" fill="#2E2E2E"/>
<path d="M213.721 63.5662H204.071V25.441H213.721V63.5662ZM205.17 62.4672H212.62V26.5421H205.17V62.4672Z" fill="#2E2E2E"/>
<path d="M164.778 40.6613C164.503 40.6613 164.266 40.4558 164.232 40.1769C164.197 39.8749 164.411 39.6022 164.713 39.5644C174.121 38.4235 192.293 30.4012 199.348 20.4284C199.524 20.1809 199.866 20.1222 200.116 20.2963C200.363 20.4725 200.422 20.8143 200.248 21.0639C197.024 25.6193 191.135 30.2712 183.666 34.1638C177.068 37.6013 170.034 40.028 164.847 40.6572C164.824 40.6593 164.803 40.6613 164.78 40.6613H164.778Z" fill="#2E2E2E"/>
<path d="M199.301 26.1374C199.278 26.1374 199.255 26.1374 199.234 26.1332C198.932 26.0954 198.718 25.8207 198.756 25.5208L199.257 21.4582L196.016 22.8949C195.738 23.0186 195.415 22.8949 195.291 22.616C195.167 22.3391 195.293 22.014 195.57 21.8903L199.519 20.139C199.735 20.0425 199.989 20.0698 200.18 20.2124C200.371 20.3529 200.471 20.5878 200.442 20.8227L199.844 25.6571C199.811 25.936 199.574 26.1395 199.299 26.1395L199.301 26.1374Z" fill="#2E2E2E"/>
<path d="M20.0291 170.658L16.4531 193.124H17.2816L32.0363 192.892L37.1915 173.493L20.0291 170.658Z" fill="white"/>
<path d="M57.1935 93.7384C57.1935 93.7384 49.0161 95.9951 45.7107 97.8575C42.4053 99.72 37.4472 104.202 35.3352 108.099C33.2232 111.998 30.9077 117.566 29.8926 121.499C28.8775 125.431 25.419 140.242 25.419 140.242L19.0977 170.513L38.6783 173.493L41.946 156.641L44.1503 151.012L44.4313 165.767L88.666 166.157L93.7835 165.859C93.7835 165.859 94.7022 151.09 95.0671 148.344C95.432 145.601 96.4283 139.607 96.7575 137.493C97.0847 135.379 97.5315 130.274 97.5315 130.274L97.8649 128.554C97.8649 128.554 100.615 130.989 109.352 132.39C118.089 133.791 121.636 134.362 124.365 134.068C127.093 133.774 128.725 133.109 129.627 131.532C130.531 129.955 133.79 122.101 134.298 119.722C134.803 117.344 135.604 111.721 135.604 111.721L117.133 107.491L116.628 111.471C116.628 111.471 107.601 106.092 104.849 104.691C102.095 103.29 97.1623 100.211 95.0021 99.1306C92.8418 98.0526 83.5129 94.1054 79.0037 94.4431C74.9537 98.1239 74.9202 98.5224 70.4738 98.5224C66.0275 98.5224 64.1713 98.0945 61.2645 96.6977C58.3576 95.3009 57.1956 93.7363 57.1956 93.7363L57.1935 93.7384Z" fill="url(#paint3_linear_291_7504)"/>
<path d="M92.0566 99.1683C94.2169 100.246 99.7286 103.527 102.319 105.211C106.228 107.757 116.404 113.017 116.404 113.017L116.587 111.427C115.733 110.92 107.321 106.477 104.71 105.15C101.956 103.749 97.193 100.211 95.0327 99.1306C92.8725 98.0525 83.5435 94.1054 79.0343 94.443C78.9798 94.4934 78.4198 95.045 78.3652 95.0953C84.1497 95.5777 90.2466 98.2644 92.0545 99.1683H92.0566Z" fill="white"/>
<path d="M46.1337 138.372C44.1643 143.483 39.9676 157.56 39.9676 157.56L36.7461 173.236L38.4135 173.493L41.7042 158.405L48.3569 133.879C48.3569 133.879 47.0838 135.903 46.1337 138.374V138.372Z" fill="white"/>
<path d="M133.975 111.396C131.983 123.588 129.176 129.999 127.689 131.654C126.475 133.007 124.55 133.85 121.821 134.143C121.743 134.152 121.664 134.16 121.584 134.166C122.733 134.242 123.667 134.236 124.52 134.143C127.249 133.85 128.881 133.185 129.782 131.608C130.684 130.031 133.501 121.807 134.009 119.431C134.514 117.052 135.762 111.796 135.762 111.796L133.975 111.394V111.396Z" fill="white"/>
<path d="M95.9222 130.274C95.9726 132.088 95.4776 135.377 95.1483 137.493C94.8211 139.607 93.8354 144.739 93.4579 148.344C93.1705 151.098 92.2855 158.374 92.1743 165.859C91.327 166.698 87.4092 166.138 87.4092 166.138L89.754 166.159L93.783 165.861C93.783 165.861 94.4961 150.922 94.861 148.177C95.2259 145.433 96.4277 139.609 96.7549 137.495C97.0842 135.381 97.5288 129.938 97.5288 129.938C97.5288 129.938 96.952 120.236 91.5703 114.355C90.2762 112.941 95.6433 120.337 95.918 130.276L95.9222 130.274Z" fill="white"/>
<path d="M48.4275 69.7407C47.4606 71.2256 46.456 73.906 46.4329 75.586C46.4098 77.2659 47.3075 83.3566 46.7328 85.6259C46.1582 87.8952 45.7639 88.883 44.9144 89.4011C44.065 89.9191 43.1904 91.0223 43.1904 91.0223C43.1904 91.0223 43.7064 96.0769 48.5785 96.1377C50.7366 94.6108 57.4103 93.3629 57.4103 93.3629C57.4103 93.3629 59.2937 90.3071 59.4552 89.2501C59.6167 88.1909 59.4783 84.12 59.4552 83.5894C59.4321 83.0608 59.3294 82.0206 59.3294 82.0206C59.3294 82.0206 56.6007 79.4073 55.5437 77.4694C54.4866 75.5335 53.3058 72.7042 53.266 72.5218C53.2282 72.3414 52.7815 70.8879 52.7123 70.8879C52.6431 70.8879 51.4707 71.3724 50.4703 71.039C49.4698 70.7055 48.4275 69.7365 48.4275 69.7365V69.7407Z" fill="#F15A8C"/>
<path d="M87.0836 69.7407C88.0505 71.2256 89.0551 73.906 89.0782 75.586C89.1012 77.2659 88.2036 83.3566 88.7782 85.6259C89.3529 87.8952 89.7472 88.883 90.5966 89.4011C91.446 89.9191 92.3206 91.0223 92.3206 91.0223C92.3206 91.0223 91.8047 96.0769 86.9326 96.1377C84.7744 94.6108 78.8306 94.0928 78.8306 94.0928C78.8306 94.0928 76.2152 90.3071 76.0537 89.2501C75.8923 88.1909 76.0307 84.12 76.0537 83.5894C76.0768 83.0609 76.1229 82.6414 76.1229 82.6414C76.1229 82.6414 79.6129 80.1393 80.67 78.2034C81.727 76.2676 82.7107 73.0293 82.7505 72.849C82.7883 72.6686 82.7274 70.8922 82.7966 70.8922C82.8659 70.8922 84.0383 71.3766 85.0387 71.0432C86.0391 70.7097 87.0815 69.7407 87.0815 69.7407H87.0836Z" fill="#F58AAD"/>
<path d="M90.8438 89.2752C89.9944 88.7572 89.6651 88.3922 89.0883 86.1229C88.5136 83.8536 88.6059 77.2659 88.5829 75.5859C88.5598 73.906 88.048 71.6933 87.0812 70.2084C87.0812 70.2084 86.3408 69.9714 85.9717 70.2461C86.8337 71.7772 87.0728 73.6669 87.2699 75.6551C87.4335 77.3267 86.7896 83.3565 87.3643 85.6258C87.939 87.8952 88.4549 88.8264 89.0631 89.6129C90.0321 90.8671 91.2255 91.899 91.2255 91.899C91.2255 91.899 91.1059 95.5714 86.9973 96.1544C87.0287 96.1754 86.4079 96.1188 86.4394 96.1419C91.3115 96.081 92.5908 91.4711 92.5908 91.4711C92.5908 91.4711 91.6911 89.7953 90.8417 89.2773L90.8438 89.2752Z" fill="white"/>
<path d="M48.5719 63.7508C44.6457 46.7121 55.1911 37.7481 69.1991 38.0606C85.7051 38.4297 91.456 51.9575 87.1775 63.8053L48.5719 63.7508Z" fill="#EA0753"/>
<path d="M69.4146 38.4905C65.5429 38.4045 61.9355 39.0274 58.8252 40.334C61.4867 39.4909 64.4439 39.0966 67.5732 39.1658C83.7645 39.5266 89.6077 52.5531 85.7822 64.2331H87.3908C91.6694 52.3874 85.9185 38.8596 69.4125 38.4905H69.4146Z" fill="white"/>
<path d="M44.4866 166.333L41.542 192.753L97.3183 192.892L93.5222 166.333H44.4866Z" fill="white"/>
<path d="M118.411 107.491L123.552 86.0244C123.552 86.0244 122.163 81.6851 121.756 80.6574C121.349 79.6297 119.579 74.7681 120.607 72.18C121.635 69.5919 126.123 72.7211 126.123 72.7211C126.123 72.7211 142.214 77.5198 141.882 79.4745C141.874 79.529 139.483 84.7199 138.491 86.9409C137.499 89.162 137.784 89.7451 137.608 90.691C136.553 96.337 134.592 111.471 134.592 111.471L118.413 107.491H118.411Z" fill="white"/>
<path d="M59.7341 82.31C60.8813 84.7974 59.0692 91.0223 57.4878 93.0357C57.8633 93.8851 60.5646 96.2383 62.9304 97.4107C64.2538 98.0672 70.9338 99.443 74.3252 97.5995C77.6935 95.7664 78.2074 94.8499 78.5555 94.3465C78.0731 94.0382 76.238 88.0399 76.1687 86.211C76.1331 85.2903 76.24 82.3561 76.24 82.3561C76.24 82.3561 80.6507 79.1346 81.67 75.716C82.2237 73.8598 83.1801 71.3997 83.1801 71.3997C83.1801 71.3997 86.819 70.9424 87.8173 69.5687C88.8156 68.1949 89.2875 66.9533 88.5157 65.4453C87.7418 63.9374 86.9972 63.6458 86.5044 63.5305C86.0115 63.4151 84.1512 63.1341 84.1512 63.1341C84.1512 63.1341 75.6989 59.642 74.7321 53.3375C71.196 55.9046 67.4753 59.1261 57.8192 59.8602C55.0612 62.1022 52.3242 63.09 52.3242 63.09C52.3242 63.09 47.88 62.0624 47.5633 66.1983C47.427 67.9852 48.0436 69.9903 49.625 70.7747C51.2063 71.5591 53.0981 70.6215 53.0981 70.6215C53.0981 70.6215 54.0902 75.2986 55.1011 76.7919C56.112 78.2852 57.2634 80.3678 57.534 80.6342C57.8066 80.9006 59.4467 81.6808 59.7362 82.31H59.7341Z" fill="white"/>
<path d="M78.6201 94.6863C78.4795 94.6863 78.3411 94.6339 78.2342 94.5269C74.7757 91.1041 75.6712 82.9266 75.7111 82.5805C75.7467 82.2785 76.0194 82.0625 76.3193 82.096C76.6213 82.1317 76.8373 82.4043 76.8038 82.7043C76.7954 82.784 75.9292 90.6951 79.006 93.7425C79.222 93.9564 79.2241 94.3046 79.0102 94.5206C78.9032 94.6297 78.7606 94.6842 78.6201 94.6842V94.6863Z" fill="#2E2E2E"/>
<path d="M68.2096 85.2588C60.3111 85.2588 54.556 79.982 52.4188 70.7831C52.3496 70.4874 52.5342 70.1916 52.8299 70.1224C53.1256 70.0553 53.4214 70.2378 53.4906 70.5335C55.5019 79.1913 60.8669 84.1577 68.2096 84.1577C75.5524 84.1577 80.823 79.0717 82.4819 70.5524C82.5407 70.2546 82.828 70.0595 83.1279 70.1182C83.4257 70.177 83.6208 70.4643 83.5621 70.7642C81.794 79.8414 76.0557 85.2588 68.2096 85.2588Z" fill="#2E2E2E"/>
<path d="M51.2477 71.5926C48.7519 71.5926 46.7217 69.5624 46.7217 67.0666C46.7217 64.5707 48.7519 62.5405 51.2477 62.5405C51.4952 62.5405 51.7427 62.5615 51.986 62.6013C52.2859 62.6496 52.4893 62.9327 52.439 63.2326C52.3908 63.5326 52.1076 63.736 51.8077 63.6857C51.6231 63.6563 51.4344 63.6395 51.2477 63.6395C49.358 63.6395 47.8228 65.1769 47.8228 67.0645C47.8228 68.9521 49.3601 70.4894 51.2477 70.4894C51.7616 70.4894 52.2565 70.3782 52.7179 70.158C52.9927 70.028 53.3199 70.1433 53.452 70.4181C53.582 70.6928 53.4667 71.02 53.1919 71.1522C52.5837 71.4416 51.9293 71.5884 51.2498 71.5884L51.2477 71.5926Z" fill="#2E2E2E"/>
<path d="M49.123 67.4211C48.8231 67.4211 48.5777 67.1799 48.5735 66.8779C48.5631 66.0683 48.8252 65.3972 49.3265 64.9358C49.6998 64.5939 50.3898 64.208 51.558 64.3212C51.8601 64.3506 52.0824 64.6191 52.053 64.9211C52.0237 65.2231 51.7573 65.4454 51.4532 65.416C50.847 65.3573 50.3689 65.4706 50.071 65.7453C49.7355 66.0536 49.6704 66.5234 49.6746 66.8653C49.6788 67.1694 49.4355 67.419 49.1314 67.4211H49.1251H49.123Z" fill="#2E2E2E"/>
<path d="M84.7283 71.5927C84.0487 71.5927 83.3944 71.4459 82.7861 71.1564C82.5114 71.0264 82.396 70.6971 82.5261 70.4224C82.6561 70.1476 82.9854 70.0323 83.2601 70.1623C83.7215 70.3825 84.2144 70.4937 84.7304 70.4937C86.6179 70.4937 88.1553 68.9563 88.1553 67.0687C88.1553 65.1811 86.6179 63.6438 84.7304 63.6438C84.5647 63.6438 84.3969 63.6564 84.2312 63.6795C83.9313 63.7235 83.6523 63.5138 83.6083 63.2138C83.5642 62.9139 83.774 62.635 84.0739 62.5909C84.2899 62.5595 84.5122 62.5448 84.7304 62.5448C87.2262 62.5448 89.2564 64.575 89.2564 67.0708C89.2564 69.5667 87.2262 71.5969 84.7304 71.5969L84.7283 71.5927Z" fill="#2E2E2E"/>
<path d="M86.8533 67.4211H86.847C86.5429 67.4169 86.2996 67.1694 86.3038 66.8653C86.308 66.5255 86.243 66.0536 85.9074 65.7453C85.6096 65.4706 85.1314 65.3573 84.5253 65.416C84.2212 65.4454 83.9548 65.2231 83.9255 64.9211C83.8961 64.6191 84.1184 64.3506 84.4204 64.3212C85.5907 64.208 86.2787 64.5939 86.652 64.9358C87.1532 65.3972 87.4154 66.0683 87.4049 66.8779C87.4007 67.1799 87.1553 67.4211 86.8554 67.4211H86.8533Z" fill="#2E2E2E"/>
<path d="M60.9327 65.3971C61.4667 65.3971 61.8996 64.66 61.8996 63.7507C61.8996 62.8414 61.4667 62.1043 60.9327 62.1043C60.3987 62.1043 59.9658 62.8414 59.9658 63.7507C59.9658 64.66 60.3987 65.3971 60.9327 65.3971Z" fill="#2E2E2E"/>
<path d="M75.4298 65.3971C75.9637 65.3971 76.3966 64.66 76.3966 63.7507C76.3966 62.8414 75.9637 62.1043 75.4298 62.1043C74.8958 62.1043 74.4629 62.8414 74.4629 63.7507C74.4629 64.66 74.8958 65.3971 75.4298 65.3971Z" fill="#2E2E2E"/>
<path d="M68.8337 72.3833C68.5653 72.3833 68.3304 72.1862 68.2905 71.9135C68.2465 71.6136 68.4541 71.3347 68.754 71.2906C69.8677 71.127 70.2536 70.8796 70.2767 70.3049C70.2977 69.8099 69.8719 69.2835 69.3769 68.6774C69.163 68.4152 68.9428 68.1446 68.7352 67.8468C68.2339 67.1337 67.3006 65.8061 67.4495 63.0628C67.4663 62.7587 67.7263 62.5259 68.0284 62.5427C68.3325 62.5594 68.5632 62.8174 68.5485 63.1215C68.4206 65.4831 69.1798 66.5653 69.6349 67.2113C69.8216 67.4777 70.0292 67.7336 70.2305 67.9789C70.8388 68.7277 71.4134 69.4345 71.3757 70.3468C71.3044 72.0226 69.6286 72.268 68.9134 72.3728C68.8862 72.377 68.8589 72.3791 68.8337 72.3791V72.3833Z" fill="#2E2E2E"/>
<path d="M57.1944 94.0362C56.9888 94.0362 56.7917 93.9208 56.6973 93.7237C56.5652 93.4489 56.6805 93.1217 56.9553 92.9896C59.3211 91.855 59.3672 84.9254 59.1847 82.3499C59.1638 82.0458 59.3924 81.7836 59.6944 81.7626C59.9943 81.7458 60.2607 81.9702 60.2816 82.2723C60.355 83.2958 60.892 92.3227 57.4314 93.9816C57.3538 94.0173 57.2741 94.0362 57.1944 94.0362Z" fill="#2E2E2E"/>
<path d="M78.9351 60.286C78.824 60.286 78.7128 60.2524 78.6163 60.1832C77.0496 59.0653 74.516 58.7507 72.3117 59.4009C72.0202 59.4869 71.714 59.3191 71.628 59.0297C71.542 58.7381 71.7098 58.4319 71.9992 58.3459C74.5097 57.6056 77.425 57.9831 79.2539 59.2876C79.5014 59.4638 79.558 59.8078 79.3818 60.0553C79.2749 60.2063 79.105 60.286 78.933 60.286H78.9351Z" fill="#2E2E2E"/>
<path d="M94.3438 166.706H43.6639L43.5947 149.527C43.5947 149.223 43.838 148.976 44.1421 148.976H44.1442C44.4462 148.976 44.6937 149.221 44.6937 149.523L44.7587 165.607H93.2322C93.2091 161.52 93.4545 158.961 93.9705 153.625C94.0418 152.889 94.1173 152.099 94.1991 151.243C94.6353 146.66 95.2708 142.946 95.8308 139.668C97.4751 130.058 98.3791 124.762 91.0971 114.311C90.923 114.061 90.9839 113.72 91.2334 113.545C91.483 113.371 91.8249 113.432 91.999 113.682C99.5389 124.504 98.6077 129.955 96.9151 139.852C96.3572 143.112 95.7259 146.805 95.2939 151.348C95.2121 152.203 95.1366 152.994 95.0653 153.732C94.5305 159.265 94.2872 161.79 94.3354 166.153L94.3417 166.709L94.3438 166.706Z" fill="#2E2E2E"/>
<path d="M134.591 112.021C134.564 112.021 134.539 112.021 134.511 112.014C134.212 111.97 134.002 111.691 134.046 111.392L137.179 89.8184C137.624 87.7526 138.603 85.9258 139.47 84.3151C140.537 82.3268 141.458 80.6112 141.317 78.8305C141.294 78.5285 141.521 78.2622 141.823 78.2391C142.123 78.2139 142.391 78.4404 142.414 78.7446C142.58 80.8461 141.54 82.784 140.439 84.8352C139.57 86.4522 138.673 88.1259 138.259 90.0324L135.136 111.551C135.097 111.826 134.862 112.023 134.593 112.023L134.591 112.021Z" fill="#2E2E2E"/>
<path d="M131.08 82.2282C130.958 82.2282 130.834 82.1883 130.731 82.1044C130.496 81.9114 130.461 81.5654 130.654 81.3305C131.388 80.4328 131.772 79.6967 131.551 78.5998C131.491 78.302 131.684 78.0125 131.981 77.9517C132.279 77.8909 132.569 78.0838 132.629 78.3816C132.952 79.984 132.279 81.0788 131.505 82.0268C131.396 82.1589 131.239 82.2282 131.08 82.2282Z" fill="#2E2E2E"/>
<path d="M67.6483 79.143C65.9222 79.0046 64.8882 78.2517 64.3052 77.0457C63.8606 76.1229 63.8081 75.6091 64.2024 75.3238C64.7016 74.961 66.0439 75.2798 68.072 75.5189C69.5527 75.693 71.6752 75.4098 71.9122 76.4774C72.1156 77.396 70.3895 79.3654 67.6483 79.1451V79.143Z" fill="#2E2E2E"/>
<path d="M64.6709 77.5344C65.6566 76.4878 68.5614 76.104 69.199 78.797C67.4499 79.1997 65.1155 78.2118 64.6709 77.5344Z" fill="white"/>
<path d="M68.0457 79.5311C67.8926 79.5311 67.7416 79.5248 67.5864 79.5122C65.7743 79.3675 64.4992 78.56 63.8008 77.1107C63.5491 76.5906 62.9618 75.3741 63.8658 74.7156C64.4237 74.3108 65.3192 74.4345 66.8062 74.6401C67.2026 74.6946 67.641 74.7554 68.115 74.81C68.4673 74.8519 68.8784 74.8666 69.2769 74.8792C70.6255 74.9274 72.1523 74.9819 72.4187 76.1858C72.534 76.7039 72.3033 77.3414 71.7874 77.9329C70.9044 78.948 69.5286 79.5269 68.0436 79.5269L68.0457 79.5311ZM64.8914 75.5272C64.7026 75.5272 64.5621 75.5461 64.5013 75.5902C64.3922 75.6699 64.4929 76.0621 64.7739 76.6409C65.3087 77.7504 66.2316 78.3209 67.6745 78.4341C69.2265 78.56 70.3968 77.8909 70.9757 77.2261C71.3071 76.8465 71.391 76.5298 71.3679 76.4207C71.2819 76.0327 70.1032 75.9908 69.2412 75.9593C68.8218 75.9446 68.3876 75.9299 67.9912 75.8817C67.5088 75.8251 67.0642 75.7642 66.6594 75.7076C66.0491 75.6237 65.336 75.5251 64.8914 75.5251V75.5272Z" fill="#2E2E2E"/>
<path d="M68.7589 78.9081C68.6834 77.7713 68.0353 77.3456 67.5047 77.1883C66.6468 76.9345 65.5688 77.2344 65.1053 77.8573L64.2412 77.2114C64.9795 76.2235 66.5147 75.7684 67.813 76.1543C69.0105 76.5088 69.7488 77.4882 69.8369 78.8389L68.7589 78.9102V78.9081Z" fill="#2E2E2E"/>
<path d="M32.2218 193.676C32.1778 193.676 32.1316 193.67 32.0876 193.659C31.7939 193.586 31.6136 193.286 31.6891 192.992C31.7142 192.887 34.3443 182.43 36.9408 173.447C37.0247 173.156 37.3309 172.988 37.6224 173.072C37.9139 173.156 38.0817 173.462 37.9978 173.754C35.4076 182.717 32.7818 193.158 32.7566 193.261C32.6937 193.51 32.4693 193.676 32.2239 193.676H32.2218Z" fill="#2E2E2E"/>
<path d="M41.2481 193.443C41.2271 193.443 41.2082 193.443 41.1873 193.439C40.8852 193.405 40.6671 193.133 40.7007 192.831L43.6621 166.094C43.6957 165.792 43.9683 165.576 44.2682 165.608C44.5702 165.641 44.7884 165.914 44.7548 166.216L41.7934 192.952C41.7619 193.234 41.5249 193.441 41.2481 193.441V193.443Z" fill="#2E2E2E"/>
<path d="M97.5317 193.443C97.2611 193.443 97.0262 193.244 96.9885 192.969L93.2426 166.233C93.2007 165.933 93.4104 165.654 93.7104 165.612C94.0124 165.572 94.2892 165.779 94.3312 166.079L98.077 192.816C98.1189 193.116 97.9092 193.395 97.6093 193.437C97.5841 193.441 97.5569 193.443 97.5317 193.443Z" fill="#2E2E2E"/>
<path d="M128.765 69.6484L131.805 64.5037C133.768 63.1824 135.385 64.7784 135.238 66.7206L135.443 66.3074C138.686 66.6597 138.858 68.302 137.799 70.7894L138.799 68.9899C140.215 68.5368 140.838 69.208 141.544 70.5398C141.635 70.7076 142.121 70.4622 142.016 70.8166C142.815 70.8838 143.604 71.3682 143.816 72.5008C143.982 73.3838 143.535 75.177 142.43 76.3137C141.322 77.4505 140.24 77.7903 139.571 77.3037C138.587 76.5885 138.573 76.9618 138.826 76.5214L138.656 75.909C138.065 76.1837 136.687 76.7311 136.238 76.406C135.255 75.6908 135.573 74.7806 135.829 74.3402C135.208 75.0889 134.644 75.2923 133.992 74.984C132.648 74.3486 132.165 73.3146 132.36 72.5092C131.93 72.9182 131.496 73.1615 131.087 73.1363C129.548 73.044 128.298 71.622 128.765 69.6505V69.6484Z" fill="white"/>
<path d="M131.142 73.6878C131.113 73.6878 131.083 73.6878 131.056 73.6857C130.162 73.6312 129.363 73.1404 128.919 72.3749C128.566 71.7667 128.13 70.4349 129.16 68.3627C129.296 68.0901 129.626 67.9789 129.898 68.1152C130.171 68.2495 130.282 68.5808 130.146 68.8535C129.552 70.049 129.454 71.1039 129.871 71.8254C130.133 72.2784 130.59 72.5574 131.121 72.5909C132.126 72.6559 133.963 69.5624 134.6 67.2134C134.858 66.2591 134.594 65.2713 133.954 64.814C133.451 64.4533 132.797 64.5057 132.113 64.9671C131.861 65.137 131.519 65.0699 131.35 64.8182C131.18 64.5665 131.247 64.2247 131.498 64.0548C132.574 63.3312 133.703 63.2809 134.594 63.9206C135.616 64.6525 136.043 66.0913 135.662 67.5028C135.087 69.6211 133.124 73.6941 131.142 73.6941V73.6878Z" fill="#2E2E2E"/>
<path d="M134.213 76.0809C133.978 76.0809 133.737 76.0264 133.487 75.9089C131.971 75.1916 131.381 73.9291 131.832 72.3582C131.916 72.0666 132.22 71.8988 132.512 71.9806C132.803 72.0645 132.973 72.3686 132.889 72.6602C132.587 73.7109 132.927 74.4282 133.957 74.9148C134.643 75.2399 135.624 74.0591 136.958 71.3074C137.795 69.5792 138.022 68.4781 137.671 67.8426C137.382 67.3225 136.614 66.989 135.385 66.8569C135.083 66.8233 134.865 66.5527 134.899 66.2507C134.932 65.9487 135.203 65.7327 135.505 65.7642C137.132 65.9403 138.156 66.4479 138.634 67.312C139.332 68.5725 138.68 70.2818 137.95 71.7898C136.853 74.0507 135.649 76.083 134.215 76.083L134.213 76.0809Z" fill="#2E2E2E"/>
<path d="M154.506 72.4574C163.054 63.9097 163.054 50.0512 154.506 41.5035C145.958 32.9558 132.1 32.9558 123.552 41.5035C115.004 50.0512 115.004 63.9097 123.552 72.4574C132.1 81.0051 145.958 81.0051 154.506 72.4574Z" fill="url(#paint4_linear_291_7504)"/>
<path d="M150.957 45.3488C143.285 38.5954 131.593 39.3378 124.839 47.0098C122.755 49.3777 121.385 52.1315 120.714 55.0028C121.001 51.1227 122.446 47.9641 125.215 44.8202C131.968 37.1482 143.776 36.5064 151.448 43.2598C156.75 47.9285 158.688 54.1932 157.182 60.6215C157.595 55.0384 155.483 49.3337 150.957 45.3488Z" fill="white"/>
<path d="M139.02 76.039C129.985 76.039 121.942 69.5729 120.276 60.374C118.405 50.0342 125.293 40.0991 135.633 38.2283C140.641 37.3223 145.704 38.4192 149.886 41.3198C154.068 44.2204 156.873 48.5765 157.779 53.585C159.649 63.9248 152.762 73.8598 142.422 75.7307C141.279 75.9383 140.14 76.0369 139.018 76.0369L139.02 76.039ZM139.066 39.019C137.992 39.019 136.91 39.1155 135.83 39.3105C126.088 41.0744 119.597 50.4348 121.358 60.179C123.122 69.9211 132.485 76.4123 142.227 74.6505C151.969 72.8867 158.46 63.5263 156.698 53.7821C155.845 49.0631 153.202 44.9586 149.261 42.2258C146.222 40.118 142.688 39.0211 139.066 39.0211V39.019Z" fill="#2E2E2E"/>
<path d="M138.982 79.4261C134.456 79.4261 130.041 78.0545 126.242 75.4202C121.318 72.0058 118.017 66.8757 116.949 60.978C114.745 48.803 122.857 37.1062 135.032 34.9019C140.93 33.8344 146.891 35.1284 151.815 38.5429C156.74 41.9573 160.041 47.0874 161.108 52.9851C162.176 58.8828 160.884 64.8434 157.467 69.7679C154.053 74.6925 148.923 77.9937 143.025 79.0612C141.677 79.3045 140.324 79.4261 138.982 79.4261ZM139.074 35.6381C137.797 35.6381 136.511 35.7534 135.227 35.9863C123.65 38.0815 115.936 49.2057 118.031 60.7851C119.046 66.3933 122.186 71.2717 126.87 74.5184C131.553 77.7671 137.222 78.9962 142.83 77.9811C148.438 76.966 153.317 73.8284 156.563 69.1429C159.812 64.4596 161.041 58.7905 160.026 53.1823C159.011 47.574 155.871 42.6956 151.188 39.4489C147.576 36.9447 143.378 35.6402 139.074 35.6402V35.6381Z" fill="#2E2E2E"/>
<path d="M120.221 74.1577C120.267 72.5931 120.735 65.9068 123.26 64.0213C125.563 62.3015 125.015 62.8195 126.053 62.9684C128.742 63.3544 125.42 70.6594 126.03 75.7538C126.343 78.3566 123.363 85.8902 123.363 85.8902C120.336 81.0978 120.135 77.1464 120.221 74.1556V74.1577Z" fill="white"/>
<path d="M118.413 108.042C118.371 108.042 118.329 108.038 118.287 108.027C117.991 107.958 117.807 107.662 117.876 107.367L122.995 85.4014C123.023 85.2798 123.004 85.1477 122.941 85.0344C120.158 80.0071 119.625 77.1422 119.669 74.1493C119.709 71.406 120.741 67.6706 121.693 65.546C123.105 62.3937 125.059 62.0561 126.452 62.3287C126.993 62.4336 127.396 62.6937 127.645 63.0985C128.23 64.0422 127.819 65.5376 127.343 67.2679C127.178 67.8699 127.008 68.4907 126.869 69.1157C126.259 71.9051 126.725 75.0511 126.729 75.0826C126.775 75.3825 126.567 75.6635 126.267 75.7097C125.967 75.7558 125.686 75.5482 125.64 75.2483C125.619 75.1119 125.139 71.8674 125.793 68.8808C125.936 68.2285 126.112 67.593 126.28 66.9764C126.653 65.6194 127.039 64.2142 126.708 63.6794C126.653 63.5934 126.546 63.4697 126.238 63.411C124.763 63.1215 123.604 63.9688 122.696 65.9991C121.789 68.023 120.806 71.5738 120.768 74.1682C120.726 76.9807 121.238 79.6904 123.901 84.5038C124.094 84.854 124.153 85.2609 124.065 85.6489L118.943 107.618C118.885 107.872 118.658 108.044 118.409 108.044L118.413 108.042Z" fill="#2E2E2E"/>
<path d="M87.1784 64.3548C87.1154 64.3548 87.0525 64.3443 86.9917 64.3212C86.7065 64.2185 86.5575 63.9018 86.6603 63.6165C88.894 57.4336 88.2795 50.9004 85.016 46.1395C82.7362 42.8152 78.141 38.8093 69.1875 38.6101C61.8175 38.4444 55.7394 40.8417 52.0649 45.3551C48.4113 49.8434 47.3878 56.1626 49.1076 63.627C49.1769 63.9228 48.9902 64.2185 48.6945 64.2856C48.3988 64.3548 48.103 64.1681 48.0359 63.8724C46.2364 56.0662 47.3354 49.4218 51.2113 44.6588C55.106 39.8769 61.4945 37.3349 69.2126 37.509C78.6317 37.7187 83.4976 41.9805 85.9242 45.5166C89.3869 50.5691 90.0496 57.4735 87.6964 63.9899C87.6146 64.2143 87.4049 64.3527 87.1784 64.3527V64.3548Z" fill="#2E2E2E"/>
<path d="M51.8255 63.6836C51.6053 63.6836 51.3998 63.5515 51.3138 63.3354C51.2026 63.0523 51.341 62.7335 51.6242 62.6224C57.612 60.265 60.8314 57.1924 63.9271 50.8794C64.0613 50.6068 64.3906 50.4935 64.6633 50.6277C64.9359 50.762 65.0492 51.0912 64.9149 51.3639C61.6809 57.96 58.3105 61.1731 52.029 63.6458C51.9618 63.671 51.8947 63.6836 51.8276 63.6836H51.8255Z" fill="#2E2E2E"/>
<path d="M57.8171 60.4118C57.513 60.4118 57.2676 60.1664 57.2676 59.8622C57.2676 59.5581 57.513 59.3127 57.8171 59.3127C64.1846 59.3127 72.9766 55.827 76.6658 49.9943C76.8273 49.7384 77.167 49.6608 77.425 49.8244C77.6809 49.9859 77.7585 50.3257 77.5949 50.5837C73.5554 56.9679 64.3901 60.4138 57.815 60.4138L57.8171 60.4118Z" fill="#2E2E2E"/>
<path d="M84.1489 63.6836C84.0629 63.6836 83.9769 63.6647 83.8972 63.6228C83.7588 63.5514 83.5973 63.4717 83.4169 63.3816C81.1623 62.2595 75.8812 59.6336 74.1992 53.4822C74.1195 53.1885 74.2915 52.8865 74.5851 52.8068C74.8787 52.7271 75.1807 52.8991 75.2604 53.1927C76.8124 58.8681 81.7831 61.3409 83.9056 62.3958C84.0902 62.4881 84.258 62.5699 84.4006 62.6454C84.6711 62.7859 84.776 63.1173 84.6355 63.3858C84.5369 63.5745 84.346 63.6836 84.1468 63.6836H84.1489Z" fill="#2E2E2E"/>
<path d="M47.8503 96.8948C47.8168 96.8948 47.7832 96.8927 47.7475 96.8843C44.6666 96.3076 42.9006 94.2962 42.6384 91.0664L42.6133 90.7685L42.8503 90.5861C46.7807 87.5638 46.4745 84.2878 46.206 81.3977C46.1662 80.9614 46.1263 80.5504 46.1053 80.1477C45.8893 76.3054 45.8725 73.1006 47.7538 69.7554C47.9027 69.4911 48.2383 69.3967 48.5026 69.5457C48.7668 69.6946 48.8612 70.0301 48.7123 70.2944C46.9736 73.388 46.9904 76.3033 47.2043 80.0868C47.2253 80.4685 47.2631 80.8712 47.3029 81.297C47.563 84.1011 47.9195 87.9225 43.7647 91.2698C44.0604 93.8139 45.4677 95.3386 47.951 95.8042C48.2488 95.8608 48.446 96.1482 48.3914 96.446C48.3411 96.7103 48.1104 96.8948 47.8524 96.8948H47.8503Z" fill="#2E2E2E"/>
<path d="M88.5304 96.7396C88.2913 96.7396 88.0711 96.5823 88.0019 96.339C87.918 96.0475 88.0878 95.7434 88.3815 95.6595C90.4788 95.0659 91.6764 93.5894 91.9469 91.2698C87.7921 87.9224 88.1466 84.1011 88.4087 81.297C88.4486 80.8712 88.4863 80.4706 88.5073 80.0868C88.7065 76.5486 88.7149 73.7718 86.9847 70.2692C86.8504 69.9966 86.9616 69.6673 87.2342 69.5331C87.5069 69.3988 87.8362 69.51 87.9704 69.7826C89.8202 73.5264 89.8139 76.4417 89.6042 80.1497C89.5811 80.5524 89.5434 80.9635 89.5035 81.3997C89.2351 84.2899 88.9289 87.5659 92.8593 90.5881L93.0963 90.7706L93.0711 91.0684C92.832 94.0173 91.3135 95.972 88.6814 96.7186C88.631 96.7333 88.5807 96.7396 88.5304 96.7396Z" fill="#2E2E2E"/>
<path d="M16.2711 193.443C16.2418 193.443 16.2124 193.441 16.1809 193.435C15.881 193.387 15.6776 193.104 15.7258 192.804C16.0195 191.012 16.3718 188.739 16.743 186.333C17.5232 181.308 18.4062 175.612 19.3123 170.526C19.3647 170.228 19.6499 170.029 19.9498 170.081C20.2498 170.134 20.449 170.421 20.3945 170.719C19.4905 175.792 18.6076 181.482 17.8295 186.501C17.4561 188.909 17.1038 191.184 16.8101 192.982C16.7661 193.252 16.5333 193.443 16.269 193.443H16.2711Z" fill="#2E2E2E"/>
<path d="M38.8425 174.116L18.4502 170.97L18.5593 170.408C22.261 151.505 27.6239 126.893 30.1931 118.428C34.5283 104.133 43.0707 96.037 57.0767 92.9498L57.4647 92.8638L57.6681 93.2035C58.914 95.2925 63.484 97.7191 68.2995 98.0001C71.2903 98.1742 75.4682 97.5807 78.3981 93.7614L78.5848 93.5181L78.8889 93.5475C89.3126 94.5752 96.5505 99.1369 104.212 103.967C107.884 106.282 111.674 108.671 116.047 110.853L117.132 106.608L136.24 111.308L136.148 111.817C133.516 126.348 130.506 133.726 126.947 134.372C121.354 135.389 105.546 133.302 97.3664 128.911C97.0979 128.768 96.9972 128.434 97.142 128.166C97.2867 127.898 97.6201 127.797 97.8865 127.942C105.882 132.233 121.303 134.278 126.75 133.29C128.428 132.986 131.714 129.819 134.971 112.128L117.926 107.935L116.775 112.436L116.169 112.14C111.486 109.852 107.488 107.333 103.623 104.896C95.8227 99.9779 89.0777 95.7266 79.0777 94.6717C75.8688 98.6566 71.4245 99.2837 68.2345 99.097C63.1589 98.8013 58.57 96.3432 56.9467 94.1033C43.5867 97.157 35.4155 104.995 31.246 118.745C28.9746 126.232 23.9452 148.688 19.7505 170.056L37.9889 172.868C39.1047 167.73 40.0904 163.143 40.3065 162.076C42.1605 152.942 48.1924 134.204 48.2532 134.015C48.3455 133.726 48.6559 133.569 48.9454 133.661C49.2348 133.753 49.3942 134.064 49.2998 134.353C49.239 134.54 43.2259 153.223 41.3845 162.294C41.1559 163.418 40.1345 168.177 38.9537 173.607L38.8446 174.112L38.8425 174.116Z" fill="#2E2E2E"/>
<path d="M226.081 88.9857C228.098 88.9857 229.733 87.3509 229.733 85.3343C229.733 83.3177 228.098 81.6829 226.081 81.6829C224.065 81.6829 222.43 83.3177 222.43 85.3343C222.43 87.3509 224.065 88.9857 226.081 88.9857Z" fill="white"/>
<path d="M226.081 91.381C222.679 91.381 219.848 93.9943 219.573 97.3856H232.587C232.314 93.9943 229.483 91.381 226.079 91.381H226.081Z" fill="white"/>
<path d="M225.862 81.8654C225.279 81.8654 224.73 82.0059 224.241 82.2492C224.468 82.2052 224.703 82.18 224.944 82.18C226.959 82.18 228.595 83.8138 228.595 85.8315C228.595 87.2639 227.767 88.5014 226.565 89.0991C228.245 88.7719 229.514 87.2933 229.514 85.5169C229.514 83.5013 227.88 81.8654 225.862 81.8654Z" fill="white"/>
<path d="M224.944 91.878C228.241 91.878 231.001 94.3319 231.419 97.5681H232.371C232.098 94.1767 229.267 91.5634 225.863 91.5634C224.955 91.5634 224.086 91.7522 223.298 92.0898C223.824 91.9535 224.376 91.878 224.944 91.878Z" fill="white"/>
<path d="M226.081 89.5353C223.765 89.5353 221.88 87.6519 221.88 85.3344C221.88 83.0168 223.765 81.1334 226.081 81.1334C228.396 81.1334 230.282 83.0168 230.282 85.3344C230.282 87.6519 228.396 89.5353 226.081 89.5353ZM226.081 82.2345C224.372 82.2345 222.981 83.6251 222.981 85.3365C222.981 87.0479 224.372 88.4384 226.081 88.4384C227.79 88.4384 229.181 87.0479 229.181 85.3365C229.181 83.6251 227.79 82.2345 226.081 82.2345Z" fill="#2E2E2E"/>
<path d="M233.185 97.9351H218.979L219.028 97.3415C219.321 93.6901 222.421 90.8314 226.083 90.8314C229.745 90.8314 232.845 93.6901 233.139 97.3415L233.187 97.9351H233.185ZM220.2 96.8361H231.962C231.448 94.0424 228.973 91.9325 226.081 91.9325C223.189 91.9325 220.714 94.0424 220.2 96.8361Z" fill="#2E2E2E"/>
<path d="M103.521 43.6479L106.197 35.3152L112.132 41.9009L103.523 43.6479H103.521ZM106.658 37.4734L105.142 42.1966L110.024 41.2066L106.66 37.4734H106.658Z" fill="white"/>
<path d="M117.925 168.108V157.673L125.28 164.49L117.925 168.108ZM119.026 160.192V166.34L123.361 164.209L119.026 160.192Z" fill="white"/>
<path d="M298.179 53.8409C305.975 46.1311 302.341 36.238 296.525 35.3907C293.288 22.6914 277.416 22.5697 269.417 29.2434C264.652 33.2179 263.917 34.2288 259.777 37.142C264.901 45.0867 283.735 44.4428 289.624 41.4058C289.194 45.5774 289.824 49.9566 292.611 52.6203L298.179 53.8388V53.8409Z" fill="#BD003F"/>
<path d="M262.001 37.8236C266.143 34.9083 266.875 33.8995 271.64 29.925C276.099 26.2044 283.007 24.5978 288.807 26.1037C282.718 23.7862 274.887 25.3256 269.998 29.4028C265.233 33.3772 264.499 34.3882 260.358 37.3013C261.986 39.8244 264.993 41.4792 268.532 42.4692C265.715 41.4541 263.368 39.9461 261.999 37.8236H262.001Z" fill="white"/>
<path d="M266.062 41.6975C266.062 41.6975 265.131 43.9039 265.146 46.0222C265.16 48.1405 265.288 54.0906 265.628 55.4622C265.966 56.836 266.631 62.5135 266.84 64.2207C267.05 65.9279 267.897 68.9166 268.94 70.1037C269.982 71.2929 271.28 72.2954 272.478 72.6394C273.673 72.9854 276.708 73.6901 276.708 73.6901C276.708 73.6901 276.849 79.1516 276.413 80.7162C275.976 82.2808 273.722 85.6323 273.722 85.6323C273.722 85.6323 277.107 91.5992 278.036 92.8996C278.967 94.1999 280.486 94.9361 280.486 94.9361C280.486 94.9361 289.481 91.7943 291.945 90.2779C294.408 88.7636 296.765 87.1822 297.782 86.3643C298.799 85.5442 300.14 84.3571 300.14 84.3571C300.14 84.3571 297.707 80.7812 296.861 78.9775C296.016 77.1738 295.328 73.6104 295.003 71.2153C294.68 68.8201 294.731 64.4514 294.634 64.1745C294.538 63.8977 294.934 60.9761 294.934 60.9761C294.934 60.9761 298.34 59.5961 298.695 58.2643C299.047 56.9325 299.273 56.1732 298.898 55.2693C298.523 54.3653 297.99 52.7924 296.394 52.4484C294.798 52.1044 292.403 52.2345 292.403 52.2345C292.403 52.2345 290.125 49.2059 289.848 47.2785C289.571 45.3531 289.405 41.515 289.405 41.515C289.405 41.515 283.982 43.5599 281.427 43.906C278.873 44.252 275.423 43.7214 272.639 43.2852C269.856 42.8489 266.062 41.6975 266.062 41.6975Z" fill="white"/>
<path d="M274.196 85.8482C274.196 85.8482 268.907 87.3122 267.38 88.3294C265.853 89.3466 261.813 91.8822 259.865 93.4909C257.917 95.0995 254.244 99.0299 252.275 101.61C250.305 104.189 241.717 117.254 241.717 117.254L257.426 131.471L255.177 192.856L255.637 193.194L320.685 193.129L320.885 192.489L319.337 165.538L330.201 133.701L332.158 133.177C332.158 133.177 330.016 121.121 329.121 117.738C328.223 114.355 325.255 105.54 323.691 102.01C322.126 98.4804 316.715 92.9393 313.485 90.649C310.255 88.3587 300.333 84.1703 300.333 84.1703C297.617 86.8528 289.687 92.7316 280.421 95.1226C277.906 92.7547 274.685 87.9288 274.194 85.8503L274.196 85.8482Z" fill="#900030"/>
<path d="M258.764 109.454L255.234 192.854L255.694 193.192H256.858L259.077 132.573C259.077 132.573 259.362 116.792 259.27 114.63C259.177 112.468 258.764 109.454 258.764 109.454Z" fill="white"/>
<path d="M243.17 118.309C243.17 118.309 251.759 105.244 253.728 102.665C255.698 100.085 259.37 96.1525 261.318 94.5459C263.267 92.9373 267.306 90.4016 268.833 89.3844C269.93 88.6545 272.965 87.6939 274.59 87.2116C274.332 86.6684 274.146 86.186 274.056 85.8C274.056 85.8 268.766 87.264 267.239 88.2812C265.712 89.2984 261.673 91.8341 259.722 93.4427C257.774 95.0514 254.102 98.9818 252.132 101.561C250.163 104.141 241.574 117.205 241.574 117.205L243.17 118.311V118.309Z" fill="white"/>
<path d="M242.709 118.495L237.644 124.338L202.213 110.75C202.213 110.75 194.546 105.324 192.297 104.321C190.049 103.319 188.776 102.067 186.095 102.767C183.415 103.468 179.097 105.175 179.097 105.175C179.097 105.175 176.058 106.469 176.137 108.401C176.217 110.332 177.104 110.286 178.637 110.431C180.17 110.576 184.162 110.058 184.162 110.058L187.731 109.137C187.731 109.137 188.581 114.751 188.581 116.008C188.581 117.264 188.734 119.936 188.734 119.936C188.734 119.936 192.366 121.276 194.447 122.6C196.525 123.923 197.723 124.965 197.723 124.965C197.723 124.965 205.884 128.432 208.43 130.825C210.976 133.218 214.476 137.881 214.476 137.881C214.476 137.881 222.969 142.585 224.428 143.623C225.886 144.659 231.865 146.562 233.094 147.39C234.323 148.219 239.114 150.266 241.779 150.054C244.445 149.842 247.893 147.141 248.61 146.503C249.328 145.865 253.126 141.916 253.126 141.916L257.142 137.174V131.132L242.715 118.493L242.709 118.495Z" fill="white"/>
<path d="M285.482 182.959C298.924 182.959 309.822 172.062 309.822 158.619C309.822 145.177 298.924 134.28 285.482 134.28C272.04 134.28 261.143 145.177 261.143 158.619C261.143 172.062 272.04 182.959 285.482 182.959Z" fill="url(#paint5_linear_291_7504)"/>
<path d="M301.534 143.701C291.66 134.58 276.262 135.188 267.14 145.06C264.324 148.107 262.438 151.683 261.463 155.438C261.964 150.345 263.961 146.239 267.702 142.191C276.824 132.317 292.371 131.845 302.245 140.968C309.07 147.275 311.421 155.572 309.238 163.978C309.957 156.65 307.361 149.083 301.537 143.701H301.534Z" fill="white"/>
<path d="M285.482 183.508C271.757 183.508 260.593 172.342 260.593 158.619C260.593 144.896 271.759 133.73 285.482 133.73C299.205 133.73 310.371 144.896 310.371 158.619C310.371 172.342 299.205 183.508 285.482 183.508ZM285.482 134.829C272.365 134.829 261.692 145.5 261.692 158.619C261.692 171.738 272.363 182.409 285.482 182.409C298.601 182.409 309.272 171.738 309.272 158.619C309.272 145.5 298.601 134.829 285.482 134.829Z" fill="#2E2E2E"/>
<path d="M160.187 128.737C158.967 125.169 158.26 120.926 158.26 116.377C158.26 103.69 163.757 93.405 170.538 93.405H176.135C179.487 93.405 184.762 98.0191 186.028 103.128C180.202 104.139 176.49 106.717 176.135 107.774C175.953 108.321 175.54 110.274 177.419 110.408C182.18 110.75 187.266 108.057 187.457 108.881C187.931 110.926 188.256 112.709 188.413 114.779C188.7 118.518 187.297 122.134 187.297 122.134L165.965 129.234L160.185 128.737H160.187Z" fill="url(#paint6_linear_291_7504)"/>
<path d="M169.329 94.5648H174.926C178.079 94.5648 182.525 98.6525 184.144 103.39C184.572 103.294 185.424 103.204 185.877 103.126C184.608 98.0191 179.333 93.4028 175.984 93.4028H170.386C167.9 93.4028 165.587 94.7871 163.653 97.1613C165.35 95.5023 167.282 94.5627 169.329 94.5627V94.5648Z" fill="white"/>
<path d="M196.852 124.741C205.852 127.656 213.895 133.493 216.716 144.88C221.668 164.857 213.662 175.079 210.099 179.783C207.408 183.334 206.395 188.361 206.19 191.797C206.143 192.548 205.516 193.127 204.763 193.127H197.047C196.282 193.127 195.653 192.529 195.619 191.763C195.535 189.779 195.25 186.782 194.442 184.456C194.442 184.456 187.995 188.632 186.896 192.627C183.748 193.953 177.175 192.953 177.175 192.953C177.175 192.953 176.328 191.64 175.655 189.748C174.981 187.856 170.065 185.478 168.677 184.525C166.372 185.822 164.107 188.521 163.79 191.854C163.721 192.579 163.098 193.125 162.368 193.125H154.616C153.846 193.125 153.219 192.518 153.188 191.747C153.06 188.557 152.315 183.349 148.196 179.599C146.976 178.46 145.864 177.233 144.864 175.935C140.528 174.009 134.799 170.316 138.754 161.191C137.055 152.199 138.855 148.5 140.994 143.472C135.522 132.002 136.156 127.95 137.124 123.701C138.093 119.452 141.569 119.255 148.06 120.888C154.551 122.522 159.06 124.859 159.06 124.859L160.526 128.581L164.333 128.881L166.686 126.912C166.686 126.912 170.107 123.313 174.981 122.132C179.855 120.953 180.59 121.471 182.41 120.643C184.23 119.814 187.871 119.894 190.724 120.781C193.576 121.669 196.127 123.502 196.854 124.739L196.852 124.741Z" fill="url(#paint7_linear_291_7504)"/>
<path d="M276.882 68.0671C276.248 68.0671 275.607 67.9811 274.975 67.8028C274.684 67.721 274.514 67.4169 274.596 67.1233C274.678 66.8318 274.982 66.6619 275.275 66.7437C277.719 67.4337 280.435 66.4228 281.592 64.3968C281.743 64.1325 282.079 64.0402 282.343 64.1912C282.608 64.3422 282.698 64.6778 282.549 64.9421C281.429 66.9031 279.218 68.0671 276.884 68.0671H276.882Z" fill="#2E2E2E"/>
<path d="M277.304 74.25C270.446 74.25 266.99 70.76 265.878 62.8867C265.337 59.0548 264.645 51.3493 264.599 47.5258C264.569 45.2188 264.706 43.392 265.05 41.4205C265.102 41.1206 265.387 40.9192 265.687 40.9738C265.987 41.0262 266.186 41.3114 266.134 41.6113C265.796 43.5367 265.67 45.246 265.7 47.5132C265.746 51.2968 266.432 58.9353 266.969 62.7356C267.545 66.815 268.699 69.4765 270.601 71.1145C272.535 72.7777 275.259 73.3985 279.175 73.0713C280.513 72.958 282.197 72.5847 284.177 71.9597C284.467 71.8674 284.775 72.0289 284.867 72.3183C284.959 72.6078 284.798 72.9161 284.509 73.0084C282.422 73.6669 280.706 74.0465 279.267 74.1661C278.586 74.2227 277.931 74.2521 277.306 74.2521L277.304 74.25Z" fill="#2E2E2E"/>
<path d="M294.675 61.4207C294.081 61.4207 293.5 61.3137 292.945 61.104C292.662 60.997 292.517 60.6803 292.624 60.3951C292.731 60.1119 293.05 59.9672 293.333 60.0742C293.867 60.2755 294.43 60.3531 295.002 60.307C296.024 60.221 296.948 59.7449 297.611 58.9626C298.272 58.1803 298.591 57.1883 298.505 56.1669C298.419 55.1455 297.943 54.2184 297.16 53.5578C296.378 52.895 295.386 52.5783 294.365 52.6643C293.836 52.7084 293.333 52.8573 292.871 53.1048C292.603 53.2474 292.269 53.1488 292.127 52.8803C291.982 52.6119 292.083 52.2784 292.351 52.1358C292.947 51.8149 293.595 51.624 294.274 51.5674C295.587 51.4584 296.865 51.8673 297.871 52.7189C298.878 53.5704 299.493 54.7617 299.602 56.0767C299.711 57.3896 299.302 58.6669 298.45 59.6736C297.599 60.6803 296.405 61.2948 295.092 61.4039C294.952 61.4165 294.811 61.4207 294.673 61.4207H294.675Z" fill="#2E2E2E"/>
<path d="M296.849 56.7122C296.564 56.7122 296.323 56.4919 296.302 56.2004C296.275 55.8145 296.155 55.286 295.74 54.9651C295.375 54.682 294.823 54.596 294.146 54.7197C293.846 54.7742 293.561 54.575 293.506 54.2772C293.452 53.9793 293.651 53.692 293.949 53.6375C294.943 53.4571 295.794 53.6165 296.413 54.0968C296.994 54.5477 297.334 55.2482 297.397 56.1228C297.418 56.4269 297.191 56.6891 296.887 56.7101C296.874 56.7101 296.86 56.7101 296.847 56.7101L296.849 56.7122Z" fill="#2E2E2E"/>
<path d="M269.939 54.942C270.014 55.8606 269.641 56.6408 269.102 56.687C268.563 56.731 268.064 56.0242 267.988 55.1056C267.913 54.1869 268.286 53.4067 268.825 53.3606C269.364 53.3166 269.863 54.0234 269.939 54.942Z" fill="#2E2E2E"/>
<path d="M281.246 53.9458C281.322 54.8644 281.821 55.5733 282.36 55.5272C282.899 55.4831 283.275 54.7008 283.197 53.7822C283.122 52.8636 282.622 52.1547 282.083 52.2008C281.544 52.2469 281.169 53.0271 281.246 53.9458Z" fill="#2E2E2E"/>
<path d="M286.234 49.6043C286.127 49.6043 286.02 49.5728 285.926 49.5099C284.011 48.2137 281.09 48.0292 278.82 49.0611C278.544 49.1869 278.218 49.0653 278.093 48.7884C277.967 48.5116 278.088 48.1865 278.365 48.0606C280.964 46.8777 284.326 47.098 286.543 48.5997C286.794 48.7695 286.859 49.1114 286.69 49.3631C286.583 49.5204 286.411 49.6043 286.234 49.6043Z" fill="#2E2E2E"/>
<path d="M274.241 62.3015C273.599 62.3015 273.081 62.1484 272.689 61.8443C272.261 61.5108 272.011 61.02 271.951 60.3887C271.831 59.166 272.899 58.2893 273.754 57.5825L273.865 57.4902C274.616 56.8694 274.811 55.611 274.497 53.413C274.102 50.6739 272.75 49.3925 270.105 49.2561C267.951 49.1429 265.642 50.0196 264.224 51.4835C264.012 51.7016 263.664 51.7079 263.446 51.4961C263.228 51.2842 263.222 50.9361 263.433 50.718C265.063 49.038 267.703 48.0313 270.162 48.1592C273.343 48.3228 275.118 49.9902 275.587 53.2578C275.963 55.8795 275.65 57.4462 274.568 58.3397L274.455 58.434C273.765 59.0024 272.985 59.6463 273.047 60.2839C273.079 60.6069 273.184 60.8355 273.366 60.9781C273.561 61.1291 273.968 61.2843 274.809 61.1585C275.111 61.1123 275.39 61.32 275.434 61.6199C275.48 61.9198 275.273 62.2008 274.973 62.2449C274.715 62.2847 274.469 62.3036 274.241 62.3036V62.3015Z" fill="#2E2E2E"/>
<path d="M274.196 86.1817C274.051 86.1817 273.904 86.1251 273.797 86.0118C273.588 85.7916 273.596 85.4434 273.816 85.2337C276.792 82.4023 276.49 77.2429 276.327 74.4702L276.31 74.1619C276.293 73.8578 276.524 73.5998 276.828 73.5809C277.132 73.5642 277.39 73.7949 277.409 74.099L277.428 74.4052C277.6 77.3561 277.923 82.849 274.576 86.0307C274.469 86.1314 274.332 86.1817 274.196 86.1817Z" fill="#2E2E2E"/>
<path d="M300.68 85.0492C300.545 85.0492 300.411 85.0009 300.304 84.9024C294.033 79.0529 294.004 69.2416 293.987 63.3775C293.985 62.4169 293.981 61.5885 293.954 60.8901C293.941 60.5859 294.178 60.3301 294.48 60.3175C294.78 60.3007 295.04 60.5398 295.053 60.8439C295.082 61.5633 295.084 62.4001 295.088 63.3712C295.105 69.055 295.134 78.5705 301.057 84.0949C301.28 84.3025 301.292 84.6507 301.085 84.873C300.975 84.9884 300.829 85.0471 300.682 85.0471L300.68 85.0492Z" fill="#2E2E2E"/>
<path d="M241.566 150.61C241.566 150.61 241.557 150.61 241.555 150.61C235.735 150.597 221.605 143.151 213.43 137.868C213.174 137.703 213.101 137.363 213.266 137.107C213.432 136.851 213.772 136.778 214.028 136.943C222.09 142.153 235.959 149.498 241.557 149.508H241.566C245.169 149.508 250.821 144.641 256.689 136.484C256.868 136.237 257.21 136.182 257.457 136.358C257.705 136.537 257.759 136.878 257.583 137.126C254.666 141.18 247.268 150.607 241.566 150.607V150.61Z" fill="#2E2E2E"/>
<path d="M254.992 193.676C254.992 193.676 254.978 193.676 254.971 193.676C254.667 193.666 254.43 193.41 254.443 193.106C254.47 192.359 257.245 118.374 257.95 109.036C257.973 108.734 258.239 108.508 258.539 108.529C258.841 108.552 259.07 108.816 259.046 109.118C258.344 118.437 255.569 192.401 255.542 193.148C255.531 193.443 255.286 193.676 254.992 193.676Z" fill="#2E2E2E"/>
<path d="M149.726 176.847C156.424 176.847 161.854 171.971 161.854 165.956C161.854 159.941 156.424 155.064 149.726 155.064C143.027 155.064 137.597 159.941 137.597 165.956C137.597 171.971 143.027 176.847 149.726 176.847Z" fill="white"/>
<path d="M149.724 177.399C142.732 177.399 137.044 172.267 137.044 165.958C137.044 159.649 142.732 154.517 149.724 154.517C156.717 154.517 162.405 159.649 162.405 165.958C162.405 172.267 156.717 177.399 149.724 177.399ZM149.724 155.614C143.34 155.614 138.145 160.253 138.145 165.956C138.145 171.658 143.34 176.298 149.724 176.298C156.109 176.298 161.304 171.658 161.304 165.956C161.304 160.253 156.109 155.614 149.724 155.614Z" fill="#2E2E2E"/>
<path d="M143.984 162.157C142.398 162.157 141.112 163.858 141.112 165.956C141.112 168.053 142.398 169.754 143.984 169.754C145.569 169.754 145.569 162.157 143.984 162.157Z" fill="#2E2E2E"/>
<path d="M158.342 165.956C158.342 163.858 157.056 162.157 155.47 162.157C153.885 162.157 153.885 169.754 155.47 169.754C157.056 169.754 158.342 168.053 158.342 165.956Z" fill="#2E2E2E"/>
<path d="M162.368 193.676H154.616C153.551 193.676 152.68 192.839 152.638 191.772C152.435 186.688 150.816 182.73 147.827 180.01C146.598 178.863 145.455 177.608 144.429 176.275C144.245 176.033 144.289 175.689 144.53 175.503C144.771 175.318 145.115 175.362 145.302 175.603C146.292 176.889 147.393 178.101 148.574 179.2C151.785 182.122 153.523 186.34 153.739 191.728C153.758 192.204 154.144 192.577 154.618 192.577H162.37C162.819 192.577 163.203 192.237 163.244 191.803C163.603 188.02 166.25 185.259 168.408 184.047C168.672 183.898 169.008 183.993 169.157 184.257C169.306 184.521 169.211 184.857 168.947 185.006C167.022 186.088 164.658 188.546 164.339 191.906C164.243 192.915 163.398 193.676 162.37 193.676H162.368Z" fill="#2E2E2E"/>
<path d="M138.697 161.964C138.431 161.964 138.196 161.769 138.154 161.499C137.03 154.206 138.389 146.799 141.978 140.641C142.131 140.379 142.468 140.291 142.731 140.442C142.993 140.593 143.081 140.93 142.928 141.195C139.465 147.134 138.156 154.286 139.241 161.331C139.287 161.631 139.081 161.912 138.781 161.958C138.752 161.962 138.725 161.964 138.697 161.964Z" fill="#2E2E2E"/>
<path d="M149.905 132.082C149.756 132.082 149.607 132.021 149.5 131.903C149.295 131.679 149.31 131.331 149.534 131.125C152.347 128.546 155.539 126.453 159.02 124.907C159.299 124.783 159.622 124.907 159.746 125.186C159.87 125.463 159.746 125.788 159.467 125.911C156.092 127.409 153.001 129.437 150.276 131.935C150.172 132.031 150.037 132.08 149.905 132.08V132.082Z" fill="#2E2E2E"/>
<path d="M204.764 193.676H197.048C195.984 193.676 195.116 192.846 195.07 191.786C195.001 190.148 194.757 187.04 193.923 184.637C193.822 184.349 193.975 184.037 194.262 183.936C194.55 183.838 194.862 183.989 194.963 184.276C195.844 186.814 196.098 190.041 196.169 191.74C196.19 192.21 196.576 192.577 197.048 192.577H204.764C205.227 192.577 205.613 192.221 205.64 191.763C205.747 189.979 206.356 183.812 209.661 179.452L209.793 179.276C213.434 174.477 221.01 164.49 216.182 145.012C213.78 135.322 207.22 128.678 196.683 125.265C196.393 125.171 196.236 124.861 196.328 124.573C196.423 124.284 196.731 124.127 197.02 124.219C207.943 127.757 214.749 134.664 217.249 144.748C222.203 164.735 214.413 175.006 210.668 179.941L210.536 180.115C207.417 184.23 206.838 190.121 206.735 191.828C206.672 192.864 205.806 193.676 204.762 193.676H204.764Z" fill="#2E2E2E"/>
<path d="M185.795 193.676H177.855C176.89 193.676 176.074 192.999 175.913 192.063C175.422 189.207 173.536 188.089 170.684 186.4C169.054 185.436 167.209 184.341 165.246 182.678C165.013 182.481 164.986 182.134 165.181 181.902C165.378 181.669 165.724 181.642 165.957 181.837C167.848 183.441 169.654 184.509 171.244 185.452C174.134 187.164 176.418 188.517 176.995 191.874C177.064 192.273 177.433 192.573 177.853 192.573H185.793C186.196 192.573 186.548 192.317 186.632 191.963C187.716 187.353 194.732 183.271 200.428 180.658C200.705 180.532 201.03 180.652 201.158 180.929C201.284 181.205 201.164 181.53 200.888 181.658C193.153 185.207 188.469 188.957 187.704 192.216C187.505 193.062 186.703 193.674 185.795 193.674V193.676Z" fill="#2E2E2E"/>
<path d="M148.412 148.592C149.301 148.592 150.021 147.583 150.021 146.339C150.021 145.095 149.301 144.087 148.412 144.087C147.524 144.087 146.804 145.095 146.804 146.339C146.804 147.583 147.524 148.592 148.412 148.592Z" fill="#2E2E2E"/>
<path d="M164.208 148.592C165.097 148.592 165.817 147.583 165.817 146.339C165.817 145.095 165.097 144.087 164.208 144.087C163.32 144.087 162.6 145.095 162.6 146.339C162.6 147.583 163.32 148.592 164.208 148.592Z" fill="#2E2E2E"/>
<path d="M191.236 144.043C191.148 144.043 191.058 144.022 190.976 143.978C190.707 143.833 190.609 143.5 190.751 143.233C193.174 138.737 193.459 133.535 191.536 128.961C190.03 125.379 187.318 122.717 184.283 121.843C179.814 120.555 177.448 123.575 174.944 126.773C173.759 128.286 172.641 129.714 171.288 130.674C171.041 130.851 170.697 130.792 170.521 130.544C170.344 130.297 170.403 129.953 170.651 129.777C171.873 128.909 172.943 127.541 174.078 126.094C176.576 122.904 179.405 119.29 184.587 120.786C187.939 121.752 190.915 124.649 192.549 128.535C194.602 133.416 194.298 138.963 191.718 143.756C191.62 143.94 191.429 144.045 191.234 144.045L191.236 144.043Z" fill="#2E2E2E"/>
<path d="M200.049 137.359C200.017 137.359 199.984 137.357 199.95 137.35C199.65 137.296 199.453 137.011 199.506 136.711C200.403 131.727 198.243 125.96 194.48 123.296C190.252 120.301 185.393 119.865 180.034 121.998C179.751 122.111 179.432 121.973 179.319 121.69C179.206 121.406 179.344 121.088 179.627 120.974C185.355 118.695 190.567 119.175 195.118 122.398C199.273 125.341 201.574 131.442 200.59 136.906C200.542 137.172 200.311 137.359 200.049 137.359Z" fill="#2E2E2E"/>
<path d="M141.118 144.043C140.929 144.043 140.745 143.944 140.642 143.77C138.436 139.985 136.798 135.001 136.259 130.437C135.69 125.62 136.443 122.212 138.327 121.088C142.314 118.707 150.657 123.407 153.742 128.525C153.899 128.785 153.815 129.122 153.555 129.28C153.295 129.437 152.957 129.353 152.8 129.093C151.384 126.744 148.796 124.456 145.879 122.973C142.985 121.501 140.371 121.148 138.891 122.033C135.682 123.95 137.171 135.63 141.594 143.217C141.747 143.479 141.659 143.816 141.397 143.969C141.309 144.02 141.215 144.045 141.12 144.045L141.118 144.043Z" fill="#2E2E2E"/>
<path d="M159.059 125.096C159.03 125.096 159.003 125.093 158.973 125.089C155.387 124.521 149.9 122.247 147.558 121.278C144.328 119.94 140.2 119.575 138.302 122.564C138.138 122.82 137.799 122.898 137.543 122.734C137.287 122.57 137.209 122.231 137.373 121.975C139.636 118.409 144.334 118.751 147.979 120.261C150.286 121.218 155.689 123.455 159.145 124.003C159.445 124.051 159.651 124.332 159.603 124.632C159.561 124.903 159.326 125.096 159.059 125.096Z" fill="#2E2E2E"/>
<path d="M163.921 129.55H160.559C160.026 129.55 159.54 129.257 159.29 128.785C159.043 128.319 159.074 127.759 159.37 127.327C159.535 127.084 159.869 127.021 160.112 127.187C160.355 127.352 160.418 127.686 160.253 127.929C160.148 128.084 160.204 128.231 160.236 128.288C160.261 128.334 160.355 128.485 160.559 128.485H163.921C164.594 128.485 165.215 128.168 165.624 127.612C168.573 123.625 174.418 120.897 180.169 120.821C180.463 120.813 180.706 121.054 180.71 121.348C180.714 121.643 180.477 121.885 180.184 121.889C174.749 121.96 169.244 124.515 166.484 128.248C165.88 129.066 164.921 129.552 163.923 129.552L163.921 129.55Z" fill="#2E2E2E"/>
<path d="M165.574 128.646C165.341 128.646 165.125 128.497 165.049 128.262C163.911 124.676 163.309 120.565 163.309 116.377C163.309 110.152 164.609 104.292 166.971 99.873C169.391 95.347 172.646 92.8533 176.138 92.8533C180.129 92.8533 184.183 96.5844 186.467 102.36C186.578 102.644 186.44 102.962 186.159 103.074C185.876 103.185 185.557 103.046 185.446 102.765C183.33 97.4129 179.676 93.9544 176.138 93.9544C169.672 93.9544 164.41 104.013 164.41 116.377C164.41 120.454 164.995 124.45 166.1 127.929C166.192 128.218 166.033 128.527 165.744 128.619C165.689 128.636 165.632 128.644 165.578 128.644L165.574 128.646Z" fill="#2E2E2E"/>
<path d="M188.243 120.786C188.227 120.786 188.21 120.786 188.193 120.783C187.891 120.756 187.667 120.488 187.694 120.186C187.807 118.936 187.864 117.654 187.864 116.375C187.864 113.808 187.637 111.289 187.188 108.889C187.132 108.592 187.329 108.304 187.629 108.248C187.929 108.191 188.214 108.388 188.271 108.688C188.732 111.155 188.965 113.741 188.965 116.375C188.965 117.686 188.906 119.001 188.791 120.284C188.766 120.569 188.524 120.786 188.243 120.786Z" fill="#2E2E2E"/>
<path d="M160.188 129.286C159.959 129.286 159.745 129.141 159.668 128.915C158.388 125.171 157.711 120.836 157.711 116.377C157.711 110.152 159.011 104.292 161.373 99.873C163.791 95.347 167.048 92.8533 170.54 92.8533H176.138C176.442 92.8533 176.688 93.0987 176.688 93.4028C176.688 93.7069 176.442 93.9523 176.138 93.9523H170.54C164.074 93.9523 158.812 104.011 158.812 116.375C158.812 120.714 159.468 124.926 160.71 128.556C160.809 128.843 160.656 129.156 160.368 129.255C160.31 129.275 160.249 129.284 160.19 129.284L160.188 129.286Z" fill="#2E2E2E"/>
<path d="M237.813 124.993L202.582 111.339C201.299 110.647 199.799 109.651 198.214 108.596C194.319 106.008 189.906 103.074 186.712 103.231C185.613 103.285 178.74 105.171 176.813 107.455C176.473 107.858 176.322 108.235 176.364 108.581C176.42 109.053 176.624 109.384 177.001 109.626C177.995 110.259 180.636 110.538 187.566 108.267C187.855 108.172 188.165 108.33 188.26 108.619C188.354 108.908 188.197 109.219 187.907 109.313C181.932 111.272 178.17 111.679 176.408 110.555C175.747 110.133 175.365 109.514 175.269 108.713C175.189 108.053 175.426 107.392 175.969 106.746C178.27 104.019 185.544 102.189 186.655 102.132C190.21 101.958 194.785 104.997 198.82 107.679C200.372 108.711 201.838 109.686 203.071 110.353L237.474 123.68C239.342 121.444 240.693 119.806 242.274 117.786C242.461 117.547 242.807 117.505 243.046 117.692C243.285 117.879 243.327 118.225 243.141 118.464C241.48 120.584 240.074 122.285 238.063 124.687L237.809 124.989L237.813 124.993Z" fill="#2E2E2E"/>
<path d="M298.179 54.3904C298.036 54.3904 297.896 54.3359 297.789 54.2269C297.575 54.0108 297.577 53.6627 297.793 53.4487C301.541 49.7407 302.963 45.0427 301.593 40.8774C300.7 38.1592 298.729 36.2653 296.447 35.934L296.084 35.8815L295.994 35.525C294.498 29.6588 290.452 27.2196 287.323 26.2045C281.637 24.3651 274.418 25.785 269.771 29.6629C268.143 31.0199 267.006 32.0141 266.004 32.8907C264.206 34.4637 262.984 35.5313 260.54 37.2742C265.981 44.6253 284.028 43.671 289.374 40.9151L290.278 40.4495L290.174 41.4604C289.89 44.2037 289.882 49.2478 292.992 52.2218C293.213 52.4315 293.219 52.7797 293.009 52.9999C292.799 53.2201 292.451 53.2264 292.231 53.0167C289.836 50.7264 288.701 46.9428 288.999 42.2931C285.608 43.671 279.804 44.3421 274.372 43.9374C270.11 43.6207 262.487 42.3539 259.316 37.4356L259.03 36.991L259.462 36.6869C262.162 34.7867 263.401 33.7024 265.28 32.0602C266.287 31.1793 267.43 30.181 269.066 28.8156C273.988 24.7091 281.635 23.2053 287.661 25.1558C292.346 26.6722 295.639 30.1286 296.967 34.9063C299.507 35.4327 301.658 37.5552 302.638 40.5313C304.14 45.1014 302.619 50.221 298.567 54.229C298.46 54.3359 298.32 54.3884 298.181 54.3884L298.179 54.3904Z" fill="#2E2E2E"/>
<path d="M262.746 159.014C262.746 159.014 261.552 158.978 260.579 157.684C259.604 156.39 260.212 156.48 261.399 154.416C262.586 152.352 268.746 154.2 269.881 153.036C269.535 150.844 262.601 148.428 264.874 143.64C264.985 143.403 265.22 143.273 265.548 143.227C266.619 142.065 268.02 143.841 269.6 144.221C271.217 144.611 277.012 149.771 277.905 150.519C281.275 153.347 282.23 153.372 283.704 153.579C283.723 153.993 310.145 148.693 310.611 148.625C310.611 147.361 309.157 139.892 309.47 137.982C311.196 137.296 328.004 134.445 330.99 133.533C333.977 141.562 334.313 159.947 332.775 161.01C323.738 167.262 284.893 168.739 284.893 168.739L283.299 169.368C283.299 169.368 280.346 170.1 276.531 172.103C274.688 173.07 271.405 173.395 271.282 173.458C270.793 173.705 268.161 174.746 266.076 174.939C263.991 175.129 264.373 174.832 263.681 173.8C263.178 173.047 263.865 172.084 264.279 171.614C263.933 171.415 263.608 171.209 263.318 171.008C262.894 170.889 262.464 170.756 262.219 170.645C261.613 170.375 261.468 169.104 261.588 167.516C261.707 165.928 263.459 165.402 263.459 165.402C263.459 165.402 262.991 165.316 262.236 165.148C261.481 164.98 260.902 163.77 260.596 162.059C260.29 160.347 262.741 159.014 262.741 159.014H262.746Z" fill="white"/>
<path d="M264.276 159.561C262.877 159.561 261.536 159.391 260.729 158.565C260.144 157.967 259.888 157.084 259.947 155.87C260.093 152.845 263.219 152.728 267.176 152.581C268.042 152.547 268.936 152.516 269.875 152.451C270.18 152.428 270.442 152.661 270.461 152.963C270.482 153.267 270.251 153.529 269.949 153.548C268.992 153.613 268.091 153.646 267.216 153.678C263.225 153.827 261.138 153.995 261.044 155.922C261 156.816 261.155 157.428 261.513 157.795C262.01 158.305 262.998 158.502 264.819 158.451C264.823 158.451 264.829 158.451 264.833 158.451C265.131 158.451 265.375 158.688 265.383 158.986C265.391 159.29 265.152 159.542 264.848 159.55C264.657 159.555 264.464 159.559 264.276 159.559V159.561Z" fill="#2E2E2E"/>
<path d="M264.029 165.343C261.019 165.343 260.018 163.68 259.914 162.619C259.855 162.042 259.735 160.844 260.551 159.863C261.212 159.068 262.355 158.598 263.945 158.466C264.247 158.437 264.513 158.665 264.538 158.969C264.563 159.272 264.339 159.538 264.035 159.563C262.749 159.67 261.86 160.008 261.394 160.568C260.937 161.117 260.937 161.826 261.006 162.51C261.107 163.514 262.305 164.429 264.746 164.211C265.05 164.183 265.316 164.408 265.344 164.71C265.371 165.012 265.146 165.28 264.844 165.308C264.557 165.333 264.286 165.345 264.029 165.345V165.343Z" fill="#2E2E2E"/>
<path d="M263.85 171.26C263.173 171.26 262.573 171.1 262.057 170.782C261.268 170.295 260.742 169.465 260.576 168.441C260.409 167.407 260.562 166.581 261.044 165.914C261.663 165.058 262.814 164.504 264.566 164.227C264.865 164.179 265.146 164.385 265.195 164.685C265.243 164.985 265.037 165.266 264.737 165.314C263.311 165.54 262.368 165.96 261.935 166.56C261.629 166.983 261.543 167.527 261.663 168.267C261.73 168.674 261.944 169.42 262.636 169.846C263.271 170.238 264.15 170.264 265.247 169.92C265.537 169.829 265.845 169.991 265.937 170.28C266.027 170.57 265.866 170.878 265.576 170.97C264.956 171.165 264.381 171.262 263.852 171.262L263.85 171.26Z" fill="#2E2E2E"/>
<path d="M265.878 175.167C264.877 175.167 264.015 175.016 263.451 174.645C263.015 174.36 262.753 173.951 262.69 173.466C262.419 171.363 263.462 170.245 266.18 169.727C266.478 169.67 266.767 169.865 266.824 170.165C266.88 170.463 266.685 170.752 266.385 170.809C263.969 171.268 263.613 172.017 263.78 173.326C263.795 173.439 263.839 173.586 264.055 173.726C264.959 174.32 267.669 174.135 270.647 173.277C274.015 172.306 282.524 168.85 282.61 168.816L282.667 168.798C282.877 168.737 283.59 168.682 286.545 168.47C292.176 168.068 302.659 167.317 312.353 166.037C327.017 164.102 331.314 162.059 332.336 160.687C334.739 157.459 332.686 143.644 330.933 133.531C330.88 133.231 331.082 132.946 331.382 132.896C331.681 132.843 331.967 133.044 332.017 133.344C334.937 150.182 335.297 158.556 333.219 161.344C329.771 165.97 304.976 168.254 286.625 169.567C284.76 169.702 283.273 169.806 282.979 169.855C282.222 170.163 274.282 173.376 270.953 174.335C269.324 174.804 267.434 175.169 265.88 175.169L265.878 175.167Z" fill="#2E2E2E"/>
<path d="M283.402 153.984C281.426 153.984 279.918 152.82 279.501 152.459C268.966 143.395 266.193 143.514 265.493 143.986C265.124 144.234 264.677 144.676 264.635 145.37C264.58 146.306 265.262 147.436 266.554 148.55C269.274 150.893 270.201 152.554 270.239 152.623C270.386 152.889 270.287 153.223 270.021 153.37C269.755 153.514 269.421 153.418 269.274 153.152C269.264 153.133 268.383 151.576 265.837 149.383C263.838 147.663 263.484 146.216 263.536 145.305C263.588 144.412 264.065 143.619 264.876 143.072C266.177 142.195 269.184 142.128 280.216 151.623C280.923 152.231 282.127 152.879 283.394 152.881L309.977 148.177L308.333 138.288C308.283 137.988 308.486 137.705 308.786 137.654C309.086 137.604 309.369 137.807 309.419 138.107L311.244 149.072L283.452 153.984C283.435 153.984 283.421 153.984 283.404 153.984H283.402Z" fill="#2E2E2E"/>
<path d="M320.974 193.466C320.685 193.466 320.442 193.24 320.425 192.946L318.961 165.702C318.944 165.398 319.177 165.14 319.481 165.123C319.783 165.115 320.043 165.339 320.06 165.643L321.524 192.888C321.541 193.192 321.308 193.45 321.004 193.466C320.993 193.466 320.983 193.466 320.974 193.466Z" fill="#2E2E2E"/>
<path d="M307.3 138.99L304.386 125.213C304.323 124.915 304.514 124.624 304.81 124.561C305.106 124.498 305.399 124.689 305.462 124.984L308.149 137.69L331.652 132.833C329.873 123.164 328.548 116.085 325.429 107.451C320.697 94.3487 313.946 90.368 300.777 85.1267C292.859 91.532 285.424 94.3822 280.561 95.6469L280.313 95.7119L280.103 95.563C277.329 93.5895 274.602 89.5626 273.784 86.3222C259.625 90.5714 252.18 101.889 242.784 116.167L242.247 116.983L257.803 130.718C258.031 130.92 258.052 131.268 257.851 131.494C257.649 131.723 257.301 131.744 257.075 131.543L240.804 117.174L241.865 115.561C246.5 108.516 250.879 101.861 255.865 96.576C261.418 90.6867 267.194 87.0416 274.044 85.0995L274.627 84.9338L274.736 85.5294C275.221 88.1679 277.647 92.3499 280.536 94.5165C285.349 93.2329 292.61 90.3826 300.332 84.0697L300.582 83.8641L300.882 83.9837C313.403 88.9481 321.373 92.9812 326.463 107.075C329.665 115.941 330.989 123.149 332.822 133.122L332.927 133.688L307.3 138.984V138.99Z" fill="#2E2E2E"/>
<path d="M228.825 174.542C228.595 174.542 228.378 174.395 228.303 174.165C228.209 173.875 228.364 173.565 228.653 173.47C229.448 173.208 230.279 173.24 230.948 173.267C231.415 173.284 232.053 173.309 232.114 173.15C233.02 170.75 234.719 170.723 234.79 170.723C235.094 170.723 235.34 170.968 235.34 171.272C235.34 171.577 235.094 171.822 234.79 171.822C234.759 171.822 233.767 171.887 233.142 173.538C232.802 174.439 231.793 174.4 230.902 174.366C230.291 174.341 229.601 174.316 228.995 174.515C228.938 174.534 228.88 174.542 228.823 174.542H228.825Z" fill="white"/>
<path d="M343.186 193.659H1.18912C0.893393 193.659 0.654297 193.42 0.654297 193.124C0.654297 192.829 0.893393 192.59 1.18912 192.59H343.186C343.482 192.59 343.721 192.829 343.721 193.124C343.721 193.42 343.482 193.659 343.186 193.659Z" fill="#2E2E2E"/>
<defs>
<linearGradient id="paint0_linear_291_7504" x1="194.028" y1="49.9609" x2="187.216" y2="53.4929" gradientUnits="userSpaceOnUse">
<stop stop-color="#C1C7D6"/>
<stop offset="1" stop-color="#A5A9B8"/>
</linearGradient>
<linearGradient id="paint1_linear_291_7504" x1="214.776" y1="41.3975" x2="205.313" y2="46.192" gradientUnits="userSpaceOnUse">
<stop stop-color="#C1C7D6"/>
<stop offset="1" stop-color="#A5A9B8"/>
</linearGradient>
<linearGradient id="paint2_linear_291_7504" x1="173.425" y1="54.5121" x2="168.001" y2="56.9093" gradientUnits="userSpaceOnUse">
<stop stop-color="#C1C7D6"/>
<stop offset="1" stop-color="#A5A9B8"/>
</linearGradient>
<linearGradient id="paint3_linear_291_7504" x1="19.0977" y1="133.617" x2="135.604" y2="133.617" gradientUnits="userSpaceOnUse">
<stop stop-color="#484857"/>
<stop offset="1" stop-color="#2E2E2E"/>
</linearGradient>
<linearGradient id="paint4_linear_291_7504" x1="140.51" y1="35.8643" x2="137.687" y2="75.7492" gradientUnits="userSpaceOnUse">
<stop stop-color="#FFBF31"/>
<stop offset="1" stop-color="#FF8031"/>
</linearGradient>
<linearGradient id="paint5_linear_291_7504" x1="287.683" y1="135.097" x2="283.483" y2="179.365" gradientUnits="userSpaceOnUse">
<stop stop-color="#FFBF31"/>
<stop offset="1" stop-color="#FF8031"/>
</linearGradient>
<linearGradient id="paint6_linear_291_7504" x1="173.356" y1="91.8068" x2="173.356" y2="124.2" gradientUnits="userSpaceOnUse">
<stop stop-color="#FFBF31"/>
<stop offset="1" stop-color="#FF8031"/>
</linearGradient>
<linearGradient id="paint7_linear_291_7504" x1="183.616" y1="190.95" x2="171.468" y2="126.069" gradientUnits="userSpaceOnUse">
<stop stop-color="#74AAE0"/>
<stop offset="1" stop-color="#A5D1FE"/>
</linearGradient>
</defs>
</svg>
