<svg width="289" height="220" viewBox="0 0 289 220" fill="none" xmlns="http://www.w3.org/2000/svg">
<path d="M164.808 36.6975C202.775 46.6233 232.667 27.4262 258.356 42.3931C291.279 61.5756 295.38 115.603 280.762 152.735C263.902 195.555 222.38 228.563 118.144 216.989C31.1977 207.334 13.935 156.281 13.0778 94.8554C12.389 45.4632 38.41 -5.95129 99.8651 0.560089C128.856 3.63016 143.579 31.1484 164.805 36.6975H164.808Z" fill="#FDECF2"/>
<path d="M179.015 19.2198H140.299V62.6159H179.015V19.2198Z" fill="white"/>
<path d="M177.78 63.2583H141.532C140.499 63.2583 139.659 62.445 139.659 61.4485V20.3921C139.659 19.3932 140.499 18.5823 141.532 18.5823H177.78C178.813 18.5823 179.653 19.3956 179.653 20.3921V42.5762C179.653 42.9304 179.367 43.2161 179.013 43.2161C178.659 43.2161 178.373 42.9304 178.373 42.5762V20.3921C178.373 20.099 178.107 19.8621 177.78 19.8621H141.532C141.205 19.8621 140.939 20.099 140.939 20.3921V61.4485C140.939 61.7416 141.205 61.9785 141.532 61.9785H177.78C178.107 61.9785 178.373 61.7416 178.373 61.4485V50.5189C178.373 50.1647 178.659 49.879 179.013 49.879C179.367 49.879 179.653 50.1647 179.653 50.5189V61.4485C179.653 62.4474 178.813 63.2583 177.78 63.2583Z" fill="#2E2E2E"/>
<path d="M172.963 37.5864H146.346C145.992 37.5864 145.706 37.3007 145.706 36.9465C145.706 36.5924 145.992 36.3066 146.346 36.3066H172.963C173.317 36.3066 173.603 36.5924 173.603 36.9465C173.603 37.3007 173.317 37.5864 172.963 37.5864Z" fill="#2E2E2E"/>
<path d="M172.963 44.7255H146.346C145.992 44.7255 145.706 44.4398 145.706 44.0856C145.706 43.7315 145.992 43.4457 146.346 43.4457H172.963C173.317 43.4457 173.603 43.7315 173.603 44.0856C173.603 44.4398 173.317 44.7255 172.963 44.7255Z" fill="#2E2E2E"/>
<path d="M172.963 51.7987H146.346C145.992 51.7987 145.706 51.5129 145.706 51.1588C145.706 50.8046 145.992 50.5189 146.346 50.5189H172.963C173.317 50.5189 173.603 50.8046 173.603 51.1588C173.603 51.5129 173.317 51.7987 172.963 51.7987Z" fill="#2E2E2E"/>
<path d="M159.706 29.4289C158.047 29.4289 156.699 28.0807 156.699 26.4224C156.699 24.764 158.047 23.4158 159.706 23.4158C161.364 23.4158 162.712 24.764 162.712 26.4224C162.712 28.0807 161.364 29.4289 159.706 29.4289ZM159.706 24.698C158.753 24.698 157.981 25.4723 157.981 26.4224C157.981 27.3724 158.756 28.1467 159.706 28.1467C160.656 28.1467 161.43 27.3724 161.43 26.4224C161.43 25.4723 160.656 24.698 159.706 24.698Z" fill="#2E2E2E"/>
<path d="M142.787 67.5715L164.023 44.6693L159.741 40.7004L138.813 63.2729L127.519 50.9413L123.24 54.9102L134.832 67.5641L138.83 71.8358L142.787 67.5715Z" fill="url(#paint0_linear_291_7895)"/>
<path d="M138.78 72.4758C138.607 72.4758 138.434 72.405 138.309 72.2682L122.336 54.8736L127.555 50.0328L139.284 62.8382C139.523 63.0995 139.506 63.505 139.245 63.7419C138.983 63.9813 138.578 63.9641 138.338 63.7028L127.48 51.8475L124.141 54.9445L139.252 71.4012C139.491 71.6625 139.474 72.0679 139.213 72.3049C139.091 72.4172 138.934 72.4734 138.78 72.4734V72.4758Z" fill="#2E2E2E"/>
<path d="M138.83 72.4758C138.673 72.4758 138.517 72.4196 138.395 72.3048C138.136 72.0655 138.121 71.6601 138.361 71.3987L163.117 44.7011L159.775 41.6042L139.281 63.7052C139.042 63.9641 138.637 63.9812 138.375 63.7394C138.116 63.5001 138.102 63.0946 138.341 62.8333L159.707 39.7919L164.926 44.6327L139.299 72.2682C139.172 72.405 139.001 72.4734 138.83 72.4734V72.4758Z" fill="#2E2E2E"/>
<path d="M260.368 199.616C260.368 199.616 260.356 199.616 260.349 199.616C259.516 199.558 258.688 199.475 257.884 199.37C257.738 199.35 257.633 199.216 257.652 199.069C257.672 198.923 257.804 198.818 257.953 198.837C258.744 198.94 259.562 199.023 260.383 199.079C260.532 199.089 260.642 199.218 260.632 199.365C260.622 199.506 260.505 199.614 260.363 199.614L260.368 199.616ZM251.686 197.975C251.659 197.975 251.629 197.97 251.6 197.96C249.485 197.259 247.519 196.343 245.756 195.235C245.631 195.156 245.592 194.99 245.67 194.863C245.748 194.739 245.914 194.7 246.041 194.778C247.768 195.865 249.695 196.761 251.769 197.447C251.91 197.494 251.986 197.645 251.94 197.787C251.903 197.899 251.798 197.97 251.686 197.97V197.975ZM241.017 191.17C240.944 191.17 240.871 191.141 240.817 191.08C239.388 189.485 238.184 187.678 237.232 185.709C237.168 185.575 237.222 185.416 237.356 185.35C237.49 185.287 237.649 185.34 237.715 185.475C238.643 187.397 239.823 189.163 241.218 190.721C241.318 190.831 241.308 191.002 241.196 191.1C241.144 191.146 241.081 191.168 241.017 191.168V191.17ZM235.461 179.801C235.336 179.801 235.224 179.713 235.197 179.584C235.07 178.944 234.965 178.297 234.885 177.642C232.762 177.449 230.637 177.078 228.571 176.541C228.427 176.504 228.341 176.357 228.378 176.213C228.415 176.069 228.561 175.984 228.705 176.02C230.708 176.541 232.765 176.905 234.821 177.097C234.721 176.13 234.67 175.153 234.67 174.176C234.67 173.837 234.677 173.493 234.689 173.153C234.694 173.004 234.816 172.877 234.968 172.894C235.117 172.899 235.231 173.024 235.226 173.173C235.214 173.507 235.209 173.844 235.209 174.176C235.209 175.967 235.383 177.752 235.727 179.479C235.756 179.625 235.661 179.765 235.517 179.794C235.5 179.796 235.483 179.799 235.466 179.799L235.461 179.801ZM241.34 177.691C241.2 177.691 241.083 177.584 241.071 177.444C241.059 177.295 241.171 177.168 241.318 177.156C243.457 176.99 245.565 176.641 247.582 176.118C247.727 176.081 247.873 176.167 247.91 176.311C247.946 176.455 247.861 176.602 247.717 176.638C245.668 177.168 243.528 177.522 241.359 177.691C241.352 177.691 241.345 177.691 241.337 177.691H241.34ZM253.657 174.445C253.557 174.445 253.461 174.389 253.415 174.294C253.349 174.162 253.405 174.001 253.537 173.935C255.562 172.941 257.335 171.768 258.8 170.452C258.91 170.354 259.081 170.361 259.179 170.471C259.279 170.581 259.269 170.752 259.159 170.85C257.655 172.198 255.843 173.397 253.774 174.416C253.735 174.435 253.696 174.443 253.657 174.443V174.445ZM222.599 174.438C222.563 174.438 222.526 174.43 222.49 174.416C220.545 173.551 218.643 172.513 216.833 171.336C216.708 171.255 216.674 171.089 216.755 170.965C216.835 170.84 217.001 170.806 217.126 170.887C218.909 172.049 220.787 173.072 222.707 173.925C222.841 173.986 222.902 174.145 222.844 174.279C222.8 174.379 222.702 174.438 222.597 174.438H222.599ZM211.904 167.487C211.841 167.487 211.777 167.465 211.726 167.418C210.158 166.019 208.646 164.468 207.232 162.81C207.137 162.697 207.149 162.526 207.261 162.431C207.374 162.333 207.545 162.348 207.64 162.46C209.037 164.099 210.532 165.633 212.08 167.015C212.19 167.113 212.2 167.284 212.102 167.394C212.048 167.453 211.975 167.484 211.902 167.484L211.904 167.487ZM235.94 167.118C235.915 167.118 235.891 167.115 235.866 167.108C235.725 167.067 235.642 166.918 235.681 166.776L235.715 166.654C236.33 164.536 237.129 162.565 238.094 160.795C238.165 160.665 238.328 160.616 238.458 160.687C238.587 160.758 238.636 160.922 238.565 161.051C237.62 162.788 236.836 164.724 236.23 166.805L236.196 166.925C236.162 167.042 236.054 167.12 235.937 167.12L235.94 167.118ZM262.737 165.804C262.703 165.804 262.671 165.797 262.637 165.784C262.5 165.728 262.432 165.572 262.488 165.435C262.935 164.321 263.16 163.183 263.16 162.057C263.16 161.151 263.013 160.243 262.723 159.356C262.676 159.214 262.754 159.063 262.894 159.017C263.035 158.97 263.187 159.048 263.233 159.188C263.541 160.128 263.697 161.093 263.697 162.057C263.697 163.252 263.458 164.456 262.986 165.633C262.945 165.738 262.842 165.801 262.737 165.801V165.804ZM242.126 156.064C242.058 156.064 241.987 156.037 241.936 155.983C241.831 155.878 241.833 155.707 241.936 155.605C243.567 153.99 245.372 152.774 247.302 151.992C247.441 151.936 247.595 152.002 247.651 152.141C247.707 152.278 247.641 152.434 247.502 152.491C245.638 153.245 243.894 154.42 242.312 155.986C242.26 156.037 242.192 156.064 242.124 156.064H242.126ZM259.411 154.31C259.347 154.31 259.284 154.288 259.233 154.244C257.638 152.845 255.703 151.951 253.64 151.665C253.493 151.645 253.39 151.509 253.41 151.362C253.429 151.216 253.561 151.116 253.713 151.133C255.882 151.433 257.911 152.371 259.587 153.841C259.699 153.939 259.709 154.11 259.611 154.22C259.557 154.281 259.484 154.31 259.408 154.31H259.411Z" fill="#2E2E2E"/>
<path d="M111.456 192.641L110.797 191.708C110.396 191.239 106.371 188.276 102.776 185.717L101.652 184.916L116.282 181.174L111.459 192.638L111.456 192.641ZM104.639 185.475C106.691 186.945 109.661 189.102 111.07 190.257L114.101 183.057L104.642 185.475H104.639Z" fill="white"/>
<path d="M263.73 123.706C269.814 117.622 269.814 107.757 263.73 101.673C257.645 95.5888 247.781 95.5888 241.696 101.673C235.612 107.757 235.612 117.622 241.696 123.706C247.781 129.791 257.645 129.791 263.73 123.706Z" fill="url(#paint1_linear_291_7895)"/>
<path d="M238.725 113.754C238.725 105.15 245.7 98.1746 254.305 98.1746C256.962 98.1746 259.46 98.8413 261.649 100.014C259.038 98.0378 256.239 97.1927 252.71 97.1927C244.105 97.1927 237.13 104.295 237.13 112.9C237.13 118.847 240.009 123.556 244.909 126.181C241.15 123.336 238.722 118.83 238.722 113.752L238.725 113.754Z" fill="white"/>
<path d="M252.712 136.134C247.077 136.134 241.633 134.107 237.379 130.424C232.223 125.964 229.268 119.499 229.268 112.687C229.268 99.7597 239.784 89.2428 252.712 89.2428C265.639 89.2428 276.156 99.7597 276.156 112.687C276.156 125.615 265.639 136.132 252.712 136.132V136.134ZM252.712 90.525C240.49 90.525 230.547 100.468 230.547 112.69C230.547 119.128 233.341 125.239 238.216 129.457C242.239 132.937 247.388 134.854 252.712 134.854C264.934 134.854 274.876 124.911 274.876 112.69C274.876 100.468 264.934 90.525 252.712 90.525Z" fill="#2E2E2E"/>
<path d="M252.712 128.907C243.768 128.907 236.492 121.631 236.492 112.687C236.492 103.743 243.768 96.4673 252.712 96.4673C261.656 96.4673 268.932 103.743 268.932 112.687C268.932 121.631 261.656 128.907 252.712 128.907ZM252.712 97.7496C244.474 97.7496 237.774 104.451 237.774 112.687C237.774 120.923 244.476 127.625 252.712 127.625C260.948 127.625 267.652 120.923 267.652 112.687C267.652 104.451 260.95 97.7496 252.712 97.7496Z" fill="#2E2E2E"/>
<path d="M150.271 102.498L149.966 100.934C149.56 98.8707 148.022 88.4393 147.958 87.9972L147.66 85.9798L155.473 94.279L155.21 94.6991C155.178 94.7479 152.078 99.6913 151.133 101.159L150.271 102.498ZM149.524 89.829C149.897 92.3397 150.537 96.5944 150.943 99.0709C151.937 97.5005 153.295 95.3365 153.861 94.4377L149.524 89.8314V89.829Z" fill="white"/>
<path d="M42.1367 165.762C37.7404 153.548 40.9106 144.677 43.7487 139.082C58.4274 144.311 58.6813 151.843 59.5362 165.252L51.9404 173.478L42.1367 165.765V165.762Z" fill="#900030"/>
<path d="M61.6917 185.809C74.8634 178.294 80.6616 161.686 77.9456 147.506C63.1619 151.506 53.2606 161.786 51.2773 176.304V185.514L60.065 185.878L61.6941 185.812L61.6917 185.809Z" fill="#900030"/>
<path d="M52.6923 177.769C54.6438 163.503 64.0884 153.189 78.4496 149.047C78.369 148.483 78.4301 148.063 78.3226 147.506C63.5389 151.506 53.6375 161.786 51.6543 176.304V185.514L52.6923 185.558V177.774V177.769Z" fill="#900030"/>
<path d="M52.8261 185.363C56.5483 170.471 46.8422 157.627 27.2959 160.401C28.3486 171.68 35.1799 179.406 43.7429 185.66L52.8261 185.363Z" fill="#900030"/>
<path d="M40.1236 185.875H65.4682C66.0177 185.875 66.4402 186.366 66.3572 186.911L63.9783 202.589C63.4849 205.844 60.686 208.25 57.3937 208.25H48.1957C44.9034 208.25 42.1044 205.844 41.6111 202.589L39.2321 186.911C39.1491 186.366 39.5717 185.875 40.1212 185.875H40.1236Z" fill="url(#paint2_linear_291_7895)"/>
<path d="M43.2719 202.589L40.8931 186.911C40.81 186.366 41.2326 185.875 41.7821 185.875L40.4754 185.66C39.9259 185.66 39.1516 186.366 39.2347 186.911L41.5647 202.266C42.0581 205.522 43.6237 208.248 46.916 208.248H49.8542C46.5619 208.248 43.7628 205.842 43.2695 202.586L43.2719 202.589Z" fill="#900030"/>
<path d="M57.396 208.89H48.198C44.5613 208.89 41.5254 206.281 40.9808 202.684L38.6019 187.006C38.5335 186.562 38.6629 186.112 38.956 185.77C39.2491 185.428 39.6741 185.233 40.1235 185.233H65.468C65.9174 185.233 66.3424 185.428 66.6355 185.768C66.9286 186.107 67.058 186.559 66.9896 187.004L64.6108 202.681C64.0661 206.277 61.0302 208.888 57.3935 208.888L57.396 208.89ZM40.1259 186.518C40.0234 186.518 39.9574 186.574 39.9281 186.608C39.8988 186.642 39.8524 186.713 39.8695 186.816L42.2483 202.493C42.6977 205.458 45.2012 207.61 48.2004 207.61H57.3984C60.3977 207.61 62.8986 205.458 63.3505 202.493L65.7294 186.816C65.744 186.713 65.6976 186.642 65.6707 186.608C65.6414 186.574 65.5779 186.518 65.4729 186.518H40.1284H40.1259Z" fill="#2E2E2E"/>
<path d="M61.6915 186.449C61.4692 186.449 61.2519 186.332 61.1346 186.127C60.9588 185.819 61.0662 185.428 61.374 185.253C73.2806 178.458 79.9653 163.01 77.4399 148.309C64.0655 152.149 54.4547 161.613 52.872 172.572C52.8208 172.921 52.4959 173.16 52.1467 173.114C51.7974 173.063 51.5532 172.738 51.6045 172.389C53.2873 160.741 63.5599 150.732 77.7769 146.885L78.4437 146.705L78.5732 147.384C79.9555 154.598 79.174 162.414 76.3701 169.394C73.3782 176.841 68.4129 182.71 62.009 186.364C61.9088 186.42 61.799 186.449 61.6915 186.449Z" fill="#2E2E2E"/>
<path d="M43.7406 186.3C43.6088 186.3 43.4769 186.261 43.3645 186.178C33.1847 178.744 26.9835 169.087 26.771 160.345L26.7588 159.813L27.279 159.703C35.6197 157.935 43.3474 159.974 48.4813 165.298C53.4637 170.464 55.3199 178.023 53.4466 185.519C53.3612 185.861 53.0143 186.071 52.6699 185.985C52.3256 185.9 52.118 185.551 52.2035 185.209C53.9693 178.145 52.2328 171.033 47.5605 166.187C42.8467 161.3 35.7687 159.368 28.0728 160.848C28.5099 169.055 34.4693 178.094 44.1192 185.143C44.4049 185.35 44.466 185.751 44.2584 186.037C44.1338 186.208 43.9385 186.3 43.7406 186.3Z" fill="#2E2E2E"/>
<path d="M49.5584 186.3C49.2263 186.3 48.9454 186.044 48.921 185.707C48.2909 177.332 43.5136 169.538 36.7482 165.858C36.438 165.689 36.3232 165.301 36.4917 164.988C36.6603 164.678 37.0511 164.563 37.3612 164.732C44.5003 168.618 49.5389 176.812 50.1984 185.612C50.2252 185.963 49.9615 186.271 49.6073 186.298C49.5902 186.298 49.5755 186.298 49.5584 186.298V186.3Z" fill="#2E2E2E"/>
<path d="M57.7012 186.518C57.369 186.518 57.0881 186.261 57.0637 185.924C56.4751 177.85 61.1474 165.618 67.478 158.655C67.715 158.394 68.1204 158.374 68.3842 158.611C68.6455 158.848 68.665 159.253 68.4281 159.517C62.3026 166.253 57.7769 178.057 58.3435 185.831C58.3704 186.183 58.1042 186.491 57.7525 186.518C57.7378 186.518 57.7207 186.518 57.7061 186.518H57.7012Z" fill="#2E2E2E"/>
<path d="M40.5967 161.51C40.3085 161.51 40.0471 161.315 39.9763 161.022C38.0468 153.162 39.1313 145.671 43.1978 138.757L43.4665 138.3L43.9647 138.479C51.3138 141.097 58.9389 145.527 59.7693 158.528C59.7913 158.882 59.5251 159.185 59.1709 159.207C58.8192 159.227 58.5139 158.963 58.492 158.609C57.7275 146.646 50.8351 142.369 44.038 139.866C40.3134 146.433 39.3926 153.258 41.2219 160.714C41.3074 161.058 41.0949 161.405 40.753 161.488C40.7017 161.501 40.6504 161.508 40.5991 161.508L40.5967 161.51Z" fill="#2E2E2E"/>
<path d="M53.5224 168.022H53.5078C53.1537 168.014 52.8728 167.721 52.8826 167.367C53.0682 158.96 50.7846 154.286 49.4193 151.492L49.2117 151.067C49.0578 150.749 49.1897 150.366 49.5096 150.212C49.8296 150.058 50.2106 150.19 50.3644 150.51L50.5696 150.932C51.9862 153.831 54.3553 158.68 54.1624 167.396C54.155 167.746 53.8692 168.022 53.5224 168.022Z" fill="#2E2E2E"/>
<path d="M226.219 144.147C225.413 144.147 224.255 143.952 222.846 143.173C222.401 142.929 222.206 142.46 221.996 141.961C221.671 141.19 221.266 140.23 219.876 139.412C219.571 139.233 219.47 138.84 219.649 138.535C219.827 138.23 220.22 138.127 220.526 138.308C222.282 139.341 222.819 140.618 223.176 141.463C223.271 141.688 223.4 141.996 223.474 142.057C225.652 143.261 226.971 142.775 226.983 142.77C227.311 142.636 227.684 142.789 227.821 143.117C227.955 143.444 227.801 143.818 227.474 143.954C227.437 143.969 226.991 144.147 226.221 144.147H226.219Z" fill="white"/>
<path d="M105.382 139.678C105.382 139.678 104.635 137.397 101.313 135.968C97.9915 134.539 96.0986 133.433 96.0986 133.433L105.03 133.147C105.03 133.147 112.626 133.23 113.185 133.147C114.258 132.986 114.675 132.253 114.675 132.253L139.612 145.544L149.345 137.309L159.486 128.267L169.582 118.605L173.798 115.711L173.226 118.561L178.656 118.612C178.656 118.612 183.802 114.353 187.375 113.246C190.948 112.14 194.92 110.946 196.593 110.946C197.736 110.946 203.434 112.052 206.335 114.394C208.382 117.281 211.132 124.677 212.06 127.749C212.988 130.822 213.846 146.06 213.775 150.676C213.704 155.292 210.878 171.861 210.878 171.861L209.633 185.905C209.633 185.905 213.347 207.124 213.313 208.516C213.027 208.66 159.554 207.859 159.554 207.859L161.156 188.403L159.693 174.506C159.693 174.506 153.228 176.651 151.87 176.792C150.512 176.934 135.255 172.264 131.916 170.86C128.575 169.455 98.3603 154.374 98.3603 154.374L105.392 139.673L105.382 139.678Z" fill="url(#paint3_linear_291_7895)"/>
<path d="M160.225 173.776C160.413 176.038 160.543 177.515 160.543 177.515L161.363 188.411L160.008 208.25H161.544C161.544 208.25 163.097 193.547 163.156 188.626C163.2 184.803 162.553 178.328 161.984 173.38L160.228 173.776H160.225Z" fill="white"/>
<path d="M161.166 140.95C161.3 140.003 161.81 139.302 162.016 138.623C164.346 130.88 171.702 121.355 174.22 118.837C173.844 118.568 172.76 118.551 172.76 118.551L171.915 118.91C171.915 118.91 167.276 124.391 165.423 127.254C163.569 130.118 161.166 134.18 160.391 136.906C160.152 137.748 159.94 139.145 159.744 140.757L161.166 140.948V140.95Z" fill="white"/>
<path d="M112.56 133.369C112.777 133.726 139.965 148.221 139.965 148.221L168.226 123.478L173.631 116.531L173.365 116.009L139.433 145.689L114.916 131.989L112.56 133.369Z" fill="white"/>
<path d="M105.888 140.31L112.211 143.312L148.541 153.582C148.541 153.582 174.013 131.442 175.359 130.077C177.476 127.932 179.567 124.967 179.567 124.967L147.667 150.942L112.604 141.502L105.888 138.65V140.31Z" fill="white"/>
<path d="M232.659 53.7257C228.394 51.8915 228.121 47.2168 223.419 45.3777C218.842 43.5874 212.944 46.0982 210.372 52.7414C209.795 52.1553 209.178 51.5789 208.513 51.0074C198.128 42.0878 176.215 44.0563 175.798 52.7317C175.456 59.8439 186.813 64.8972 193.581 65.4394C193.109 67.7914 191.632 73.2183 196.819 74.8108L197.107 85.7746C197.107 85.7746 197.366 91.773 199.733 93.788C206.684 91.9294 212.531 86.2582 215.308 78.8114C217.806 72.107 218.637 63.3682 212.719 55.4623L213.591 56.2047C216.536 52.7268 220.193 55.3792 221.665 57.868C226.25 65.6177 223.072 68.8978 229.633 77.1628C236.193 85.4302 251.653 82.1599 252.039 66.9072C252.425 51.6546 236.923 55.5575 232.659 53.7233V53.7257Z" fill="#EA0753"/>
<path d="M177.634 54.1751C178.033 45.9223 197.877 43.7389 208.75 51.2223C198.312 42.4346 176.587 44.4227 176.172 53.059C176.018 56.2682 178.245 59.0575 181.357 61.2019C179.036 59.2382 177.505 56.852 177.634 54.1727V54.1751Z" fill="white"/>
<path d="M211.901 53.7013C214.473 47.0581 220.372 44.5449 224.949 46.3376C225.417 46.5208 225.84 46.7332 226.228 46.9677C225.493 46.2741 224.619 45.6659 223.486 45.2238C218.955 43.4507 213.132 45.8979 210.521 52.3873C211.008 52.8221 211.467 53.2593 211.901 53.7013Z" fill="white"/>
<path d="M177.524 57.4186C177.524 57.4186 176.257 61.5438 175.644 62.6282C175.031 63.7126 173.502 69.2324 172.273 70.2997C171.045 71.3646 170.156 72.2805 169.45 72.5931C168.744 72.9058 167.093 73.8216 167.879 75.2577C168.666 76.6939 171.323 78.2033 171.323 78.2033C171.323 78.2033 170.427 84.7708 170.969 86.7174C171.514 88.664 173.968 92.7403 176.374 93.9688C178.777 95.1973 181.103 95.8421 181.103 95.8421C181.103 95.8421 181.469 100.033 181.103 102.305C180.736 104.578 179.408 108.994 178.987 109.961C178.567 110.929 175.48 114.394 175.441 114.443C175.402 114.492 173.392 117.931 173.392 117.931L178.985 118.165C178.985 118.165 184.94 113.855 186.928 112.548C188.913 111.241 193.915 109.659 196.282 110.274C198.649 110.892 202.002 111.791 202.065 111.815C202.131 111.842 204.799 112.787 204.799 112.787L202.117 108.806C202.117 108.806 200.41 103.689 200.331 101.049C200.253 98.409 200.226 94.7259 200.202 94.6478C200.175 94.5696 200.085 93.6904 200.085 93.6904C200.085 93.6904 198.126 92.264 197.672 89.6556C197.217 87.0471 197.615 85.716 197.615 85.716C197.615 85.716 202.879 84.8636 202.84 82.2894C202.801 79.7126 202.617 78.7113 202.012 77.495C201.406 76.2787 200.595 75.0966 199.235 74.994C197.877 74.8938 195.811 74.7351 195.811 74.7351C195.811 74.7351 194.169 73.0792 193.564 71.9141C192.958 70.7491 192.745 68.7268 192.948 67.8354C193.151 66.9439 192.948 65.3661 192.948 65.3661C192.948 65.3661 188.151 64.0839 185.514 62.9555C182.873 61.8271 181.215 60.6059 180.697 60.2103C180.179 59.8146 177.517 57.4211 177.517 57.4211L177.524 57.4186Z" fill="white"/>
<path d="M185.157 96.206C181.188 96.206 175.798 95.3219 172.208 91.2016C169.922 88.5785 169.521 84.7928 170.779 77.6977C170.84 77.3484 171.174 77.1188 171.521 77.1799C171.871 77.2409 172.103 77.5731 172.039 77.9224C170.857 84.5827 171.174 88.068 173.172 90.359C178.626 96.6188 188.806 94.7113 189.949 94.4744C190.296 94.4011 190.635 94.6233 190.706 94.9702C190.777 95.317 190.557 95.6565 190.21 95.7273C189.729 95.8274 187.746 96.2035 185.155 96.2035L185.157 96.206Z" fill="#2E2E2E"/>
<path d="M197.496 86.3559C197.178 86.3559 196.858 86.3315 196.538 86.2802C195.649 86.1385 194.824 85.8088 194.086 85.3032C193.796 85.103 193.72 84.7048 193.923 84.4118C194.123 84.1211 194.523 84.0479 194.814 84.2481C195.393 84.6462 196.042 84.9051 196.741 85.0175C197.987 85.2153 199.232 84.9173 200.253 84.1773C201.274 83.4373 201.946 82.3455 202.144 81.0999C202.341 79.8543 202.043 78.6062 201.303 77.5878C200.563 76.5669 199.472 75.8952 198.226 75.6974C197.581 75.5948 196.936 75.6241 196.311 75.7853C195.969 75.8732 195.62 75.6681 195.532 75.3237C195.444 74.9817 195.649 74.6325 195.994 74.5446C196.79 74.3394 197.61 74.3028 198.429 74.4322C200.011 74.6838 201.401 75.5386 202.341 76.8355C203.282 78.1324 203.66 79.72 203.409 81.3026C203.157 82.8853 202.302 84.275 201.005 85.2153C199.97 85.9651 198.751 86.3584 197.496 86.3584V86.3559Z" fill="#2E2E2E"/>
<path d="M200.175 81.3075C200.139 81.3075 200.102 81.305 200.066 81.2977C199.716 81.2366 199.482 80.9069 199.543 80.5577C199.658 79.8836 199.501 79.2412 199.111 78.7918C198.725 78.3473 198.134 78.1153 197.445 78.1324C197.081 78.147 196.798 77.8637 196.785 77.5096C196.776 77.1555 197.054 76.8599 197.408 76.8501C198.495 76.8159 199.435 77.2092 200.078 77.9492C200.72 78.6892 200.984 79.7175 200.803 80.7702C200.749 81.0828 200.478 81.3026 200.173 81.3026L200.175 81.3075Z" fill="#2E2E2E"/>
<path d="M177.566 69.6427C177.268 70.7296 177.544 71.7529 178.182 71.9264C178.819 72.1022 179.579 71.3622 179.877 70.2753C180.175 69.1885 179.899 68.1651 179.261 67.9917C178.624 67.8183 177.864 68.5559 177.566 69.6427Z" fill="#2E2E2E"/>
<path d="M184.66 67.2687C184.452 67.2687 184.249 67.1686 184.127 66.983C182.725 64.8825 179.853 63.4953 177.13 63.6003C176.776 63.6198 176.478 63.3389 176.465 62.9848C176.451 62.6307 176.727 62.3327 177.081 62.3205C180.214 62.1935 183.558 63.8201 185.195 66.2723C185.39 66.5678 185.312 66.9635 185.016 67.1613C184.906 67.2346 184.784 67.2687 184.662 67.2687H184.66Z" fill="#2E2E2E"/>
<path d="M171.41 78.4499C171.319 78.4499 171.226 78.4304 171.141 78.3889C169.192 77.4827 167.006 76.22 167.411 74.4811C167.67 73.3673 168.371 72.852 169.343 72.1364C169.631 71.9239 169.959 71.6821 170.318 71.3939C171.273 70.627 171.71 70.2777 172.956 67.5374C173.742 65.8082 175.474 60.2493 175.491 60.1932C175.562 59.9343 176.07 58.1953 176.629 56.7177C176.753 56.3855 177.122 56.2194 177.454 56.344C177.784 56.4685 177.953 56.8373 177.828 57.1695C177.335 58.4762 176.836 60.1296 176.722 60.5522C176.644 60.8037 174.944 66.2649 174.123 68.0674C172.807 70.964 172.252 71.4842 171.124 72.3904C170.74 72.6981 170.401 72.9472 170.103 73.1671C169.184 73.8436 168.806 74.144 168.659 74.7717C168.593 75.0574 168.755 75.8659 171.681 77.2263C172.001 77.3753 172.14 77.7563 171.991 78.0762C171.883 78.3107 171.651 78.4475 171.41 78.4475V78.4499Z" fill="#2E2E2E"/>
<path d="M178.99 110.34C178.899 110.34 178.809 110.32 178.721 110.281C178.399 110.132 178.259 109.751 178.408 109.431C179.683 106.669 180.839 101.074 180.582 95.7248C180.565 95.3707 180.838 95.0703 181.19 95.0532C181.549 95.0361 181.845 95.3096 181.862 95.6613C182.128 101.215 180.912 107.06 179.573 109.966C179.466 110.201 179.234 110.338 178.992 110.338L178.99 110.34Z" fill="#2E2E2E"/>
<path d="M177.041 86.5269C175.891 86.5269 174.743 86.29 173.834 85.8113C173.522 85.6452 173.402 85.2593 173.568 84.9466C173.734 84.634 174.12 84.5144 174.433 84.6804C175.998 85.5108 178.548 85.4327 179.999 84.5119C180.297 84.3214 180.692 84.4118 180.883 84.7097C181.073 85.0077 180.983 85.4034 180.685 85.5939C179.708 86.2142 178.372 86.5293 177.041 86.5293V86.5269Z" fill="#2E2E2E"/>
<path d="M159.51 208.89C159.488 208.89 159.466 208.89 159.444 208.888C159.092 208.851 158.836 208.538 158.873 208.187C159.403 202.962 160.206 192.714 160.509 188.403C160.333 184.481 160.096 181.618 159.908 179.318C159.752 177.41 159.615 175.764 159.556 174.079C159.544 173.725 159.82 173.429 160.174 173.417C160.524 173.41 160.824 173.681 160.836 174.035C160.895 175.691 161.029 177.322 161.183 179.213C161.374 181.533 161.611 184.417 161.789 188.384V188.42V188.457C161.486 192.753 160.68 203.062 160.148 208.316C160.113 208.646 159.835 208.892 159.51 208.892V208.89Z" fill="#2E2E2E"/>
<path d="M139.504 146.46L139.123 146.25L113.815 132.314C113.505 132.143 113.392 131.755 113.563 131.445C113.734 131.134 114.125 131.022 114.433 131.193L139.36 144.919C151.967 134.512 161.197 125.864 168.627 118.903C171.804 115.923 174.808 113.112 177.663 110.543C177.927 110.306 178.33 110.328 178.567 110.592C178.804 110.855 178.782 111.261 178.518 111.495C175.673 114.055 172.674 116.864 169.501 119.838C161.993 126.872 152.649 135.628 139.838 146.187L139.504 146.463V146.46Z" fill="#2E2E2E"/>
<path d="M205.351 114.187C205.153 114.187 204.957 114.094 204.833 113.923C203.553 112.162 202.816 111.083 201.673 109.305C201.594 109.182 201.524 109.053 201.47 108.926C199.382 104.176 199.374 100.553 199.369 96.3575C199.369 95.5368 199.369 94.6869 199.35 93.8003C199.342 93.4462 199.623 93.1555 199.977 93.1482H199.99C200.336 93.1482 200.622 93.4266 200.63 93.7759C200.647 94.6723 200.649 95.5271 200.649 96.355C200.656 100.573 200.661 103.904 202.642 108.408C202.671 108.474 202.708 108.543 202.752 108.608C203.895 110.384 204.594 111.405 205.873 113.166C206.081 113.452 206.017 113.852 205.732 114.06C205.617 114.143 205.487 114.182 205.356 114.182L205.351 114.187Z" fill="#2E2E2E"/>
<path d="M159.288 141.888C159.251 141.888 159.215 141.886 159.176 141.878C158.826 141.817 158.594 141.485 158.655 141.136C160.238 132.172 165.299 125.986 171.158 118.822C173.524 115.928 175.972 112.936 178.346 109.559C178.548 109.27 178.949 109.199 179.237 109.402C179.525 109.605 179.596 110.005 179.394 110.294C176.993 113.708 174.531 116.72 172.149 119.631C166.402 126.655 161.442 132.722 159.918 141.358C159.864 141.668 159.593 141.888 159.288 141.888Z" fill="#2E2E2E"/>
<path d="M105.382 158.956C105.291 158.956 105.199 158.936 105.108 158.894C104.788 158.743 104.652 158.362 104.803 158.042L112.606 141.488C112.758 141.168 113.139 141.031 113.459 141.182C113.779 141.334 113.915 141.715 113.764 142.035L105.961 158.589C105.851 158.821 105.621 158.956 105.382 158.956Z" fill="#2E2E2E"/>
<path d="M213.494 208.89C213.176 208.89 212.9 208.653 212.859 208.331C212.39 204.604 211.447 199.714 210.614 195.401C209.837 191.364 209.166 187.878 208.987 185.971L208.982 185.924V185.878C209.508 176.541 210.443 169.941 211.266 164.119C212.028 158.736 212.685 154.085 212.817 148.639C213.166 134.173 210.511 122.308 205.138 114.319C198.258 109.124 188.608 110.904 179.293 119.094L179.122 119.243L178.895 119.252C176.821 119.338 172.491 119.186 172.308 119.181C171.954 119.169 171.678 118.874 171.69 118.52C171.702 118.165 172.007 117.889 172.352 117.902C172.396 117.902 176.509 118.046 178.619 117.982C183.509 113.728 188.64 111.087 193.466 110.347C198.148 109.632 202.481 110.675 205.995 113.366L206.078 113.43L206.137 113.515C211.698 121.726 214.451 133.885 214.094 148.671C213.963 154.193 213.298 158.877 212.531 164.299C211.713 170.085 210.785 176.643 210.265 185.902C210.443 187.759 211.105 191.192 211.869 195.161C212.705 199.494 213.65 204.406 214.126 208.174C214.17 208.526 213.921 208.846 213.572 208.89C213.545 208.892 213.518 208.895 213.491 208.895L213.494 208.89Z" fill="#2E2E2E"/>
<path d="M199.577 94.4939L199.321 94.2766C196.771 92.1053 196.48 86.0604 196.47 85.804C196.456 85.4498 196.729 85.1519 197.084 85.1372C197.44 85.1177 197.736 85.3961 197.75 85.7478C197.816 87.267 198.336 91.3946 199.914 93.0749C206.514 91.1772 212.026 85.7893 214.71 78.5892C217.468 71.1888 218.557 60.4814 208.099 51.4959C200.981 45.3802 188.174 44.4961 181.132 47.527C179.064 48.4185 176.57 50.05 176.441 52.7659C176.338 54.903 177.952 57.3356 180.983 59.6192C186.078 63.4562 193.664 65.7569 197.223 64.5479C197.557 64.4332 197.921 64.6139 198.036 64.9485C198.151 65.2831 197.97 65.647 197.635 65.7618C193.259 67.2541 185.094 64.3184 180.214 60.645C177.82 58.8426 175.002 56.0045 175.161 52.7073C175.288 50.072 177.229 47.8152 180.627 46.3547C188.015 43.1747 201.458 44.1053 208.934 50.5287C213.767 54.6807 216.669 59.6046 217.558 65.161C218.259 69.5548 217.707 74.2246 215.912 79.041C213.04 86.754 207.053 92.501 199.902 94.4133L199.577 94.5013V94.4939Z" fill="#2E2E2E"/>
<path d="M196.153 75.7999C196.029 75.7999 195.904 75.7633 195.794 75.69C193.325 74.0145 190.836 70.8736 192.995 65.4222C193.125 65.0925 193.496 64.9338 193.826 65.0632C194.155 65.1927 194.317 65.5664 194.185 65.8936C192.702 69.6354 193.486 72.576 196.512 74.6276C196.805 74.8254 196.881 75.2235 196.683 75.5166C196.559 75.6998 196.358 75.7975 196.153 75.7975V75.7999Z" fill="#2E2E2E"/>
<path d="M238.963 82.2235C235.167 82.2235 231.513 80.5626 229.132 77.561C225.363 72.8105 224.706 69.5695 224.074 66.4335C223.585 64.0131 223.077 61.5121 221.116 58.1954C220.291 56.8008 218.708 55.3305 217.03 55.1888C215.953 55.0984 214.964 55.5796 214.082 56.62C213.853 56.8911 213.45 56.9229 213.179 56.6957C212.907 56.4661 212.876 56.0632 213.103 55.7921C214.554 54.0775 216.097 53.8235 217.138 53.9114C219.416 54.1044 221.299 55.9875 222.218 57.5433C224.289 61.0456 224.819 63.6565 225.329 66.1819C225.962 69.3057 226.558 72.2586 230.136 76.7672C233.05 80.4405 238.103 81.8742 242.709 80.3331C247.982 78.5697 251.231 73.5457 251.399 66.8951C251.678 55.9557 243.376 55.4281 237.314 55.0447C235.289 54.9152 233.543 54.8053 232.407 54.3169C230.187 53.3619 228.978 51.706 227.811 50.1038C226.595 48.4356 225.447 46.8627 223.187 45.9786C221.045 45.1408 218.737 45.1995 216.686 46.1422C214.185 47.295 212.263 49.6324 211.124 52.9003C211.007 53.2349 210.643 53.4108 210.309 53.296C209.974 53.1787 209.798 52.8148 209.913 52.4802C211.498 47.9227 214.177 45.8858 216.148 44.9797C218.518 43.8879 221.185 43.8195 223.654 44.7867C226.26 45.8076 227.574 47.6077 228.844 49.3515C229.96 50.8829 231.015 52.3288 232.913 53.1445C233.843 53.5451 235.49 53.6501 237.395 53.7698C243.603 54.163 252.989 54.7589 252.679 66.9317C252.496 74.1441 248.92 79.6101 243.112 81.5518C241.747 82.0085 240.345 82.2283 238.96 82.2283L238.963 82.2235Z" fill="#2E2E2E"/>
<path d="M112.801 124.181H48.1856C47.4529 124.181 46.8594 124.774 46.8594 125.507V131.552C46.8594 132.285 47.4529 132.878 48.1856 132.878H81.3213C81.3213 132.878 76.5025 127.559 77.6504 126.57C80.2955 124.288 92.3315 132.878 92.3315 132.878H112.801C113.534 132.878 114.127 132.285 114.127 131.552V125.507C114.127 124.774 113.534 124.181 112.801 124.181Z" fill="url(#paint4_linear_291_7895)"/>
<path d="M48.2738 132.478V126.433C48.2738 125.7 48.8673 125.107 49.6001 125.107H114.216C114.277 125.107 114.335 125.116 114.394 125.124C114.177 124.691 113.732 124.391 113.214 124.391H48.5987C47.8659 124.391 47.2725 124.985 47.2725 125.717V131.762C47.2725 132.434 47.7731 132.981 48.4179 133.069C48.3276 132.89 48.2714 132.69 48.2714 132.475L48.2738 132.478Z" fill="white"/>
<path d="M112.801 133.516H93.0914C92.7372 133.516 92.4515 133.23 92.4515 132.876C92.4515 132.522 92.7372 132.236 93.0914 132.236H112.801C113.178 132.236 113.485 131.928 113.485 131.552V125.507C113.485 125.129 113.178 124.823 112.801 124.823H48.1859C47.8073 124.823 47.502 125.131 47.502 125.507V131.552C47.502 131.928 47.8097 132.236 48.1859 132.236H80.9284C81.2825 132.236 81.5682 132.522 81.5682 132.876C81.5682 133.23 81.2825 133.516 80.9284 133.516H48.1859C47.1014 133.516 46.2197 132.634 46.2197 131.55V125.505C46.2197 124.42 47.1014 123.539 48.1859 123.539H112.801C113.886 123.539 114.767 124.42 114.767 125.505V131.55C114.767 132.634 113.886 133.516 112.801 133.516Z" fill="#2E2E2E"/>
<path d="M52.9485 129.168C52.5944 129.168 52.3086 128.883 52.3086 128.528V124.181C52.3086 123.827 52.5944 123.541 52.9485 123.541C53.3027 123.541 53.5884 123.827 53.5884 124.181V128.528C53.5884 128.883 53.3027 129.168 52.9485 129.168Z" fill="#2E2E2E"/>
<path d="M84.511 128.546C84.1569 128.546 83.8711 128.26 83.8711 127.906V124.181C83.8711 123.827 84.1569 123.541 84.511 123.541C84.8652 123.541 85.1509 123.827 85.1509 124.181V127.906C85.1509 128.26 84.8652 128.546 84.511 128.546Z" fill="#2E2E2E"/>
<path d="M58.1604 133.057C57.8062 133.057 57.5205 132.771 57.5205 132.417V124.523C57.5205 124.169 57.8062 123.883 58.1604 123.883C58.5145 123.883 58.8003 124.169 58.8003 124.523V132.417C58.8003 132.771 58.5145 133.057 58.1604 133.057Z" fill="#2E2E2E"/>
<path d="M63.8294 133.057C63.4752 133.057 63.1895 132.771 63.1895 132.417V124.523C63.1895 124.169 63.4752 123.883 63.8294 123.883C64.1835 123.883 64.4693 124.169 64.4693 124.523V132.417C64.4693 132.771 64.1835 133.057 63.8294 133.057Z" fill="#2E2E2E"/>
<path d="M73.9914 133.057C73.6373 133.057 73.3516 132.771 73.3516 132.417V124.523C73.3516 124.169 73.6373 123.883 73.9914 123.883C74.3456 123.883 74.6314 124.169 74.6314 124.523V132.417C74.6314 132.771 74.3456 133.057 73.9914 133.057Z" fill="#2E2E2E"/>
<path d="M79.3997 133.057C79.0456 133.057 78.7598 132.771 78.7598 132.417V124.523C78.7598 124.169 79.0456 123.883 79.3997 123.883C79.7538 123.883 80.0396 124.169 80.0396 124.523V132.417C80.0396 132.771 79.7538 133.057 79.3997 133.057Z" fill="#2E2E2E"/>
<path d="M90.2727 131.857C89.9186 131.857 89.6328 131.572 89.6328 131.217V124.523C89.6328 124.169 89.9186 123.883 90.2727 123.883C90.6269 123.883 90.9126 124.169 90.9126 124.523V131.217C90.9126 131.572 90.6269 131.857 90.2727 131.857Z" fill="#2E2E2E"/>
<path d="M95.68 133.057C95.3258 133.057 95.04 132.771 95.04 132.417V124.523C95.04 124.169 95.3258 123.883 95.68 123.883C96.0341 123.883 96.3199 124.169 96.3199 124.523V132.417C96.3199 132.771 96.0341 133.057 95.68 133.057Z" fill="#2E2E2E"/>
<path d="M101.075 133.057C100.721 133.057 100.436 132.771 100.436 132.417V124.523C100.436 124.169 100.721 123.883 101.075 123.883C101.43 123.883 101.715 124.169 101.715 124.523V132.417C101.715 132.771 101.43 133.057 101.075 133.057Z" fill="#2E2E2E"/>
<path d="M106.483 130.612C106.129 130.612 105.843 130.326 105.843 129.972V124.523C105.843 124.169 106.129 123.883 106.483 123.883C106.837 123.883 107.123 124.169 107.123 124.523V129.972C107.123 130.326 106.837 130.612 106.483 130.612Z" fill="#2E2E2E"/>
<path d="M69.1194 131.533C68.7653 131.533 68.4795 131.247 68.4795 130.893V124.523C68.4795 124.169 68.7653 123.883 69.1194 123.883C69.4736 123.883 69.7594 124.169 69.7594 124.523V130.893C69.7594 131.247 69.4736 131.533 69.1194 131.533Z" fill="#2E2E2E"/>
<path d="M116.817 115.366H52.2041C51.4717 115.366 50.8779 115.96 50.8779 116.693V122.735C50.8779 123.468 51.4717 124.061 52.2041 124.061H116.817C117.55 124.061 118.143 123.468 118.143 122.735V116.693C118.143 115.96 117.55 115.366 116.817 115.366Z" fill="url(#paint5_linear_291_7895)"/>
<path d="M52.1654 123.8V117.755C52.1654 117.022 52.7589 116.429 53.4916 116.429H118.107C118.224 116.429 118.334 116.448 118.442 116.478C118.246 115.989 117.77 115.642 117.213 115.642H52.5977C51.865 115.642 51.2715 116.236 51.2715 116.969V123.014C51.2715 123.629 51.6916 124.142 52.2607 124.291C52.1996 124.139 52.1654 123.973 52.1654 123.8Z" fill="white"/>
<path d="M116.82 124.701H52.2044C51.12 124.701 50.2383 123.82 50.2383 122.735V116.69C50.2383 115.606 51.12 114.724 52.2044 114.724H116.82C117.904 114.724 118.786 115.606 118.786 116.69V122.735C118.786 123.82 117.904 124.701 116.82 124.701ZM52.2044 116.009C51.8258 116.009 51.5205 116.317 51.5205 116.693V122.738C51.5205 123.116 51.8283 123.421 52.2044 123.421H116.82C117.199 123.421 117.504 123.114 117.504 122.738V116.693C117.504 116.314 117.196 116.009 116.82 116.009H52.2044Z" fill="#2E2E2E"/>
<path d="M56.967 120.354C56.6129 120.354 56.3271 120.068 56.3271 119.714V115.366C56.3271 115.012 56.6129 114.727 56.967 114.727C57.3212 114.727 57.607 115.012 57.607 115.366V119.714C57.607 120.068 57.3212 120.354 56.967 120.354Z" fill="#2E2E2E"/>
<path d="M88.5295 120.354C88.1754 120.354 87.8896 120.068 87.8896 119.714V115.366C87.8896 115.012 88.1754 114.727 88.5295 114.727C88.8837 114.727 89.1695 115.012 89.1695 115.366V119.714C89.1695 120.068 88.8837 120.354 88.5295 120.354Z" fill="#2E2E2E"/>
<path d="M62.179 124.245C61.8248 124.245 61.5391 123.959 61.5391 123.605V115.711C61.5391 115.357 61.8248 115.071 62.179 115.071C62.5331 115.071 62.8189 115.357 62.8189 115.711V123.605C62.8189 123.959 62.5331 124.245 62.179 124.245Z" fill="#2E2E2E"/>
<path d="M67.8479 124.245C67.4938 124.245 67.208 123.959 67.208 123.605V115.711C67.208 115.357 67.4938 115.071 67.8479 115.071C68.2021 115.071 68.4878 115.357 68.4878 115.711V123.605C68.4878 123.959 68.2021 124.245 67.8479 124.245Z" fill="#2E2E2E"/>
<path d="M78.01 124.245C77.6558 124.245 77.3701 123.959 77.3701 123.605V115.711C77.3701 115.357 77.6558 115.071 78.01 115.071C78.3641 115.071 78.6499 115.357 78.6499 115.711V123.605C78.6499 123.959 78.3641 124.245 78.01 124.245Z" fill="#2E2E2E"/>
<path d="M83.4183 124.245C83.0641 124.245 82.7783 123.959 82.7783 123.605V115.711C82.7783 115.357 83.0641 115.071 83.4183 115.071C83.7724 115.071 84.0581 115.357 84.0581 115.711V123.605C84.0581 123.959 83.7724 124.245 83.4183 124.245Z" fill="#2E2E2E"/>
<path d="M94.2913 124.245C93.9372 124.245 93.6514 123.959 93.6514 123.605V115.711C93.6514 115.357 93.9372 115.071 94.2913 115.071C94.6454 115.071 94.9312 115.357 94.9312 115.711V123.605C94.9312 123.959 94.6454 124.245 94.2913 124.245Z" fill="#2E2E2E"/>
<path d="M99.6985 124.245C99.3443 124.245 99.0586 123.959 99.0586 123.605V115.711C99.0586 115.357 99.3443 115.071 99.6985 115.071C100.053 115.071 100.338 115.357 100.338 115.711V123.605C100.338 123.959 100.053 124.245 99.6985 124.245Z" fill="#2E2E2E"/>
<path d="M105.094 124.245C104.74 124.245 104.454 123.959 104.454 123.605V115.711C104.454 115.357 104.74 115.071 105.094 115.071C105.448 115.071 105.734 115.357 105.734 115.711V123.605C105.734 123.959 105.448 124.245 105.094 124.245Z" fill="#2E2E2E"/>
<path d="M110.501 121.797C110.147 121.797 109.861 121.511 109.861 121.157V115.708C109.861 115.354 110.147 115.068 110.501 115.068C110.855 115.068 111.141 115.354 111.141 115.708V121.157C111.141 121.511 110.855 121.797 110.501 121.797Z" fill="#2E2E2E"/>
<path d="M73.1379 122.718C72.7838 122.718 72.498 122.432 72.498 122.078V115.708C72.498 115.354 72.7838 115.068 73.1379 115.068C73.4921 115.068 73.7778 115.354 73.7778 115.708V122.078C73.7778 122.432 73.4921 122.718 73.1379 122.718Z" fill="#2E2E2E"/>
<path d="M109.012 106.554H44.3985C43.666 106.554 43.0723 107.148 43.0723 107.881V113.923C43.0723 114.655 43.666 115.249 44.3985 115.249H109.012C109.744 115.249 110.338 114.655 110.338 113.923V107.881C110.338 107.148 109.744 106.554 109.012 106.554Z" fill="url(#paint6_linear_291_7895)"/>
<path d="M44.3236 115.061V109.016C44.3236 108.284 44.9171 107.69 45.6498 107.69H110.265C110.39 107.69 110.51 107.712 110.624 107.746C110.451 107.216 109.958 106.833 109.371 106.833H44.7559C44.0232 106.833 43.4297 107.426 43.4297 108.159V114.204C43.4297 114.81 43.84 115.315 44.3944 115.474C44.3505 115.344 44.3236 115.208 44.3236 115.061Z" fill="white"/>
<path d="M109.014 115.887H44.3987C43.3143 115.887 42.4326 115.005 42.4326 113.921V107.876C42.4326 106.791 43.3143 105.91 44.3987 105.91H109.014C110.099 105.91 110.98 106.791 110.98 107.876V113.921C110.98 115.005 110.099 115.887 109.014 115.887ZM44.3987 107.194C44.0202 107.194 43.7149 107.502 43.7149 107.878V113.923C43.7149 114.302 44.0226 114.607 44.3987 114.607H109.014C109.39 114.607 109.698 114.299 109.698 113.923V107.878C109.698 107.502 109.39 107.194 109.014 107.194H44.3987Z" fill="#2E2E2E"/>
<path d="M49.1614 111.542C48.8073 111.542 48.5215 111.256 48.5215 110.902V106.554C48.5215 106.2 48.8073 105.914 49.1614 105.914C49.5156 105.914 49.8013 106.2 49.8013 106.554V110.902C49.8013 111.256 49.5156 111.542 49.1614 111.542Z" fill="#2E2E2E"/>
<path d="M80.7239 111.542C80.3698 111.542 80.084 111.256 80.084 110.902V106.554C80.084 106.2 80.3698 105.914 80.7239 105.914C81.0781 105.914 81.3638 106.2 81.3638 106.554V110.902C81.3638 111.256 81.0781 111.542 80.7239 111.542Z" fill="#2E2E2E"/>
<path d="M54.3733 115.43C54.0192 115.43 53.7334 115.144 53.7334 114.79V106.896C53.7334 106.542 54.0192 106.256 54.3733 106.256C54.7275 106.256 55.0132 106.542 55.0132 106.896V114.79C55.0132 115.144 54.7275 115.43 54.3733 115.43Z" fill="#2E2E2E"/>
<path d="M60.0423 115.43C59.6881 115.43 59.4023 115.144 59.4023 114.79V106.896C59.4023 106.542 59.6881 106.256 60.0423 106.256C60.3964 106.256 60.6821 106.542 60.6821 106.896V114.79C60.6821 115.144 60.3964 115.43 60.0423 115.43Z" fill="#2E2E2E"/>
<path d="M70.2073 115.43C69.8531 115.43 69.5674 115.144 69.5674 114.79V106.896C69.5674 106.542 69.8531 106.256 70.2073 106.256C70.5614 106.256 70.8472 106.542 70.8472 106.896V114.79C70.8472 115.144 70.5614 115.43 70.2073 115.43Z" fill="#2E2E2E"/>
<path d="M75.6155 115.43C75.2614 115.43 74.9756 115.144 74.9756 114.79V106.896C74.9756 106.542 75.2614 106.256 75.6155 106.256C75.9697 106.256 76.2554 106.542 76.2554 106.896V114.79C76.2554 115.144 75.9697 115.43 75.6155 115.43Z" fill="#2E2E2E"/>
<path d="M86.4856 115.43C86.1315 115.43 85.8457 115.144 85.8457 114.79V106.896C85.8457 106.542 86.1315 106.256 86.4856 106.256C86.8398 106.256 87.1255 106.542 87.1255 106.896V114.79C87.1255 115.144 86.8398 115.43 86.4856 115.43Z" fill="#2E2E2E"/>
<path d="M91.8928 115.43C91.5387 115.43 91.2529 115.144 91.2529 114.79V106.896C91.2529 106.542 91.5387 106.256 91.8928 106.256C92.2469 106.256 92.5327 106.542 92.5327 106.896V114.79C92.5327 115.144 92.2469 115.43 91.8928 115.43Z" fill="#2E2E2E"/>
<path d="M97.2884 115.43C96.9342 115.43 96.6484 115.144 96.6484 114.79V106.896C96.6484 106.542 96.9342 106.256 97.2884 106.256C97.6425 106.256 97.9282 106.542 97.9282 106.896V114.79C97.9282 115.144 97.6425 115.43 97.2884 115.43Z" fill="#2E2E2E"/>
<path d="M102.696 112.985C102.341 112.985 102.056 112.699 102.056 112.345V106.896C102.056 106.542 102.341 106.256 102.696 106.256C103.05 106.256 103.335 106.542 103.335 106.896V112.345C103.335 112.699 103.05 112.985 102.696 112.985Z" fill="#2E2E2E"/>
<path d="M65.3323 113.906C64.9781 113.906 64.6924 113.62 64.6924 113.266V106.896C64.6924 106.542 64.9781 106.256 65.3323 106.256C65.6864 106.256 65.9722 106.542 65.9722 106.896V113.266C65.9722 113.62 65.6864 113.906 65.3323 113.906Z" fill="#2E2E2E"/>
<path d="M112.799 97.7593H48.1856C47.4531 97.7593 46.8594 98.3531 46.8594 99.0856V105.128C46.8594 105.86 47.4531 106.454 48.1856 106.454H112.799C113.531 106.454 114.125 105.86 114.125 105.128V99.0856C114.125 98.3531 113.531 97.7593 112.799 97.7593Z" fill="url(#paint7_linear_291_7895)"/>
<path d="M48.0688 106.271V100.226C48.0688 99.4934 48.6623 98.9 49.395 98.9H114.011C114.025 98.9 114.04 98.9048 114.057 98.9048C113.884 98.3748 113.39 97.989 112.804 97.989H48.1885C47.4558 97.989 46.8623 98.5824 46.8623 99.3151V105.36C46.8623 106.076 47.4314 106.657 48.1421 106.681C48.1006 106.552 48.0713 106.415 48.0713 106.271H48.0688Z" fill="white"/>
<path d="M112.801 107.094H48.1859C47.1014 107.094 46.2197 106.212 46.2197 105.128V99.0831C46.2197 97.9987 47.1014 97.117 48.1859 97.117H112.801C113.886 97.117 114.767 97.9987 114.767 99.0831V105.128C114.767 106.212 113.886 107.094 112.801 107.094ZM48.1859 98.4017C47.8073 98.4017 47.502 98.7094 47.502 99.0856V105.13C47.502 105.509 47.8097 105.814 48.1859 105.814H112.801C113.178 105.814 113.485 105.507 113.485 105.13V99.0856C113.485 98.707 113.178 98.4017 112.801 98.4017H48.1859Z" fill="#2E2E2E"/>
<path d="M52.9485 102.747C52.5944 102.747 52.3086 102.461 52.3086 102.107V97.7593C52.3086 97.4052 52.5944 97.1194 52.9485 97.1194C53.3027 97.1194 53.5884 97.4052 53.5884 97.7593V102.107C53.5884 102.461 53.3027 102.747 52.9485 102.747Z" fill="#2E2E2E"/>
<path d="M84.511 102.747C84.1569 102.747 83.8711 102.461 83.8711 102.107V97.7593C83.8711 97.4052 84.1569 97.1194 84.511 97.1194C84.8652 97.1194 85.1509 97.4052 85.1509 97.7593V102.107C85.1509 102.461 84.8652 102.747 84.511 102.747Z" fill="#2E2E2E"/>
<path d="M58.1604 106.635C57.8062 106.635 57.5205 106.349 57.5205 105.995V98.1013C57.5205 97.7471 57.8062 97.4614 58.1604 97.4614C58.5145 97.4614 58.8003 97.7471 58.8003 98.1013V105.995C58.8003 106.349 58.5145 106.635 58.1604 106.635Z" fill="#2E2E2E"/>
<path d="M63.8294 106.635C63.4752 106.635 63.1895 106.349 63.1895 105.995V98.1013C63.1895 97.7471 63.4752 97.4614 63.8294 97.4614C64.1835 97.4614 64.4693 97.7471 64.4693 98.1013V105.995C64.4693 106.349 64.1835 106.635 63.8294 106.635Z" fill="#2E2E2E"/>
<path d="M73.9914 106.635C73.6373 106.635 73.3516 106.349 73.3516 105.995V98.1013C73.3516 97.7471 73.6373 97.4614 73.9914 97.4614C74.3456 97.4614 74.6314 97.7471 74.6314 98.1013V105.995C74.6314 106.349 74.3456 106.635 73.9914 106.635Z" fill="#2E2E2E"/>
<path d="M79.3997 106.635C79.0456 106.635 78.7598 106.349 78.7598 105.995V98.1013C78.7598 97.7471 79.0456 97.4614 79.3997 97.4614C79.7538 97.4614 80.0396 97.7471 80.0396 98.1013V105.995C80.0396 106.349 79.7538 106.635 79.3997 106.635Z" fill="#2E2E2E"/>
<path d="M90.2727 106.635C89.9186 106.635 89.6328 106.349 89.6328 105.995V98.1013C89.6328 97.7471 89.9186 97.4614 90.2727 97.4614C90.6269 97.4614 90.9126 97.7471 90.9126 98.1013V105.995C90.9126 106.349 90.6269 106.635 90.2727 106.635Z" fill="#2E2E2E"/>
<path d="M95.68 106.635C95.3258 106.635 95.04 106.349 95.04 105.995V98.1013C95.04 97.7471 95.3258 97.4614 95.68 97.4614C96.0341 97.4614 96.3199 97.7471 96.3199 98.1013V105.995C96.3199 106.349 96.0341 106.635 95.68 106.635Z" fill="#2E2E2E"/>
<path d="M101.075 106.635C100.721 106.635 100.436 106.349 100.436 105.995V98.1013C100.436 97.7471 100.721 97.4614 101.075 97.4614C101.43 97.4614 101.715 97.7471 101.715 98.1013V105.995C101.715 106.349 101.43 106.635 101.075 106.635Z" fill="#2E2E2E"/>
<path d="M106.483 104.19C106.129 104.19 105.843 103.904 105.843 103.55V98.1013C105.843 97.7471 106.129 97.4614 106.483 97.4614C106.837 97.4614 107.123 97.7471 107.123 98.1013V103.55C107.123 103.904 106.837 104.19 106.483 104.19Z" fill="#2E2E2E"/>
<path d="M69.1194 105.111C68.7653 105.111 68.4795 104.825 68.4795 104.471V98.1013C68.4795 97.7471 68.7653 97.4614 69.1194 97.4614C69.4736 97.4614 69.7594 97.7471 69.7594 98.1013V104.471C69.7594 104.825 69.4736 105.111 69.1194 105.111Z" fill="#2E2E2E"/>
<path d="M111.59 89.0645H46.9766C46.2442 89.0645 45.6504 89.6583 45.6504 90.3907V96.4332C45.6504 97.1656 46.2442 97.7594 46.9766 97.7594H111.59C112.322 97.7594 112.916 97.1656 112.916 96.4332V90.3907C112.916 89.6583 112.322 89.0645 111.59 89.0645Z" fill="url(#paint8_linear_291_7895)"/>
<path d="M47.1382 97.5054V91.4605C47.1382 90.7278 47.7316 90.1343 48.4644 90.1343H113.08C113.112 90.1343 113.141 90.1416 113.173 90.1441C113.058 89.5286 112.521 89.0621 111.873 89.0621H47.2578C46.5251 89.0621 45.9316 89.6556 45.9316 90.3883V96.4332C45.9316 97.1341 46.4763 97.7008 47.1651 97.7496C47.1504 97.6715 47.1406 97.5884 47.1406 97.5054H47.1382Z" fill="white"/>
<path d="M111.592 98.3993H46.9769C45.8925 98.3993 45.0107 97.5176 45.0107 96.4332V90.3883C45.0107 89.3039 45.8925 88.4222 46.9769 88.4222H111.592C112.677 88.4222 113.558 89.3039 113.558 90.3883V96.4332C113.558 97.5176 112.677 98.3993 111.592 98.3993ZM46.9769 89.7069C46.5983 89.7069 46.293 90.0146 46.293 90.3908V96.4356C46.293 96.8142 46.6007 97.1195 46.9769 97.1195H111.592C111.968 97.1195 112.276 96.8118 112.276 96.4356V90.3908C112.276 90.0122 111.968 89.7069 111.592 89.7069H46.9769Z" fill="#2E2E2E"/>
<path d="M51.7395 94.0519C51.3854 94.0519 51.0996 93.7661 51.0996 93.412V89.0645C51.0996 88.7104 51.3854 88.4246 51.7395 88.4246C52.0937 88.4246 52.3794 88.7104 52.3794 89.0645V93.412C52.3794 93.7661 52.0937 94.0519 51.7395 94.0519Z" fill="#2E2E2E"/>
<path d="M83.302 94.0519C82.9479 94.0519 82.6621 93.7661 82.6621 93.412V89.0645C82.6621 88.7104 82.9479 88.4246 83.302 88.4246C83.6562 88.4246 83.9419 88.7104 83.9419 89.0645V93.412C83.9419 93.7661 83.6562 94.0519 83.302 94.0519Z" fill="#2E2E2E"/>
<path d="M56.9514 97.9425C56.5973 97.9425 56.3115 97.6568 56.3115 97.3026V89.4089C56.3115 89.0547 56.5973 88.769 56.9514 88.769C57.3055 88.769 57.5913 89.0547 57.5913 89.4089V97.3026C57.5913 97.6568 57.3055 97.9425 56.9514 97.9425Z" fill="#2E2E2E"/>
<path d="M62.6203 97.9425C62.2662 97.9425 61.9805 97.6568 61.9805 97.3026V89.4089C61.9805 89.0547 62.2662 88.769 62.6203 88.769C62.9745 88.769 63.2603 89.0547 63.2603 89.4089V97.3026C63.2603 97.6568 62.9745 97.9425 62.6203 97.9425Z" fill="#2E2E2E"/>
<path d="M72.7825 97.9425C72.4284 97.9425 72.1426 97.6568 72.1426 97.3026V89.4089C72.1426 89.0547 72.4284 88.769 72.7825 88.769C73.1367 88.769 73.4224 89.0547 73.4224 89.4089V97.3026C73.4224 97.6568 73.1367 97.9425 72.7825 97.9425Z" fill="#2E2E2E"/>
<path d="M78.1907 97.9425C77.8365 97.9425 77.5508 97.6568 77.5508 97.3026V89.4089C77.5508 89.0547 77.8365 88.769 78.1907 88.769C78.5448 88.769 78.8306 89.0547 78.8306 89.4089V97.3026C78.8306 97.6568 78.5448 97.9425 78.1907 97.9425Z" fill="#2E2E2E"/>
<path d="M89.0637 97.9425C88.7096 97.9425 88.4238 97.6568 88.4238 97.3026V89.4089C88.4238 89.0547 88.7096 88.769 89.0637 88.769C89.4178 88.769 89.7036 89.0547 89.7036 89.4089V97.3026C89.7036 97.6568 89.4178 97.9425 89.0637 97.9425Z" fill="#2E2E2E"/>
<path d="M94.471 97.9425C94.1168 97.9425 93.8311 97.6568 93.8311 97.3026V89.4089C93.8311 89.0547 94.1168 88.769 94.471 88.769C94.8251 88.769 95.1109 89.0547 95.1109 89.4089V97.3026C95.1109 97.6568 94.8251 97.9425 94.471 97.9425Z" fill="#2E2E2E"/>
<path d="M99.8664 97.9425C99.5123 97.9425 99.2266 97.6568 99.2266 97.3026V89.4089C99.2266 89.0547 99.5123 88.769 99.8664 88.769C100.221 88.769 100.506 89.0547 100.506 89.4089V97.3026C100.506 97.6568 100.221 97.9425 99.8664 97.9425Z" fill="#2E2E2E"/>
<path d="M105.274 95.4953C104.92 95.4953 104.634 95.2095 104.634 94.8554V89.4064C104.634 89.0523 104.92 88.7665 105.274 88.7665C105.628 88.7665 105.914 89.0523 105.914 89.4064V94.8554C105.914 95.2095 105.628 95.4953 105.274 95.4953Z" fill="#2E2E2E"/>
<path d="M67.9104 96.4161C67.5563 96.4161 67.2705 96.1303 67.2705 95.7761V89.4064C67.2705 89.0523 67.5563 88.7665 67.9104 88.7665C68.2646 88.7665 68.5503 89.0523 68.5503 89.4064V95.7761C68.5503 96.1303 68.2646 96.4161 67.9104 96.4161Z" fill="#2E2E2E"/>
<path d="M115.608 80.2524H50.9951C50.2627 80.2524 49.6689 80.8462 49.6689 81.5786V87.6211C49.6689 88.3535 50.2627 88.9473 50.9951 88.9473H115.608C116.341 88.9473 116.934 88.3535 116.934 87.6211V81.5786C116.934 80.8462 116.341 80.2524 115.608 80.2524Z" fill="url(#paint9_linear_291_7895)"/>
<path d="M51.0541 88.7104V82.2161C51.0541 81.735 51.4449 81.3418 51.9285 81.3418H116.996C117.101 81.3418 117.201 81.3564 117.299 81.3784C117.106 80.8875 116.629 80.5358 116.068 80.5358H51.4522C50.7195 80.5358 50.126 81.1293 50.126 81.862V87.9069C50.126 88.5346 50.5631 89.0572 51.1493 89.194C51.0907 89.045 51.0541 88.8814 51.0541 88.7104Z" fill="white"/>
<path d="M115.611 89.5848H50.9954C49.911 89.5848 49.0293 88.7031 49.0293 87.6186V81.5738C49.0293 80.4893 49.911 79.6077 50.9954 79.6077H115.611C116.695 79.6077 117.577 80.4893 117.577 81.5738V87.6186C117.577 88.7031 116.695 89.5848 115.611 89.5848ZM50.9954 80.8924C50.6169 80.8924 50.3115 81.2001 50.3115 81.5762V87.6211C50.3115 87.9997 50.6193 88.305 50.9954 88.305H115.611C115.987 88.305 116.295 87.9972 116.295 87.6211V81.5762C116.295 81.2001 115.987 80.8924 115.611 80.8924H50.9954Z" fill="#2E2E2E"/>
<path d="M55.7581 85.2398C55.404 85.2398 55.1182 84.954 55.1182 84.5999V80.2525C55.1182 79.8983 55.404 79.6125 55.7581 79.6125C56.1122 79.6125 56.398 79.8983 56.398 80.2525V84.5999C56.398 84.954 56.1122 85.2398 55.7581 85.2398Z" fill="#2E2E2E"/>
<path d="M87.3206 85.2398C86.9665 85.2398 86.6807 84.954 86.6807 84.5999V80.2525C86.6807 79.8983 86.9665 79.6125 87.3206 79.6125C87.6747 79.6125 87.9605 79.8983 87.9605 80.2525V84.5999C87.9605 84.954 87.6747 85.2398 87.3206 85.2398Z" fill="#2E2E2E"/>
<path d="M60.9699 89.128C60.6158 89.128 60.3301 88.8423 60.3301 88.4881V80.5944C60.3301 80.2403 60.6158 79.9545 60.9699 79.9545C61.3241 79.9545 61.6099 80.2403 61.6099 80.5944V88.4881C61.6099 88.8423 61.3241 89.128 60.9699 89.128Z" fill="#2E2E2E"/>
<path d="M66.639 89.128C66.2848 89.128 65.999 88.8423 65.999 88.4881V80.5944C65.999 80.2403 66.2848 79.9545 66.639 79.9545C66.9931 79.9545 67.2788 80.2403 67.2788 80.5944V88.4881C67.2788 88.8423 66.9931 89.128 66.639 89.128Z" fill="#2E2E2E"/>
<path d="M76.801 89.128C76.4469 89.128 76.1611 88.8423 76.1611 88.4881V80.5944C76.1611 80.2403 76.4469 79.9545 76.801 79.9545C77.1551 79.9545 77.4409 80.2403 77.4409 80.5944V88.4881C77.4409 88.8423 77.1551 89.128 76.801 89.128Z" fill="#2E2E2E"/>
<path d="M82.2083 89.128C81.8541 89.128 81.5684 88.8423 81.5684 88.4881V80.5944C81.5684 80.2403 81.8541 79.9545 82.2083 79.9545C82.5624 79.9545 82.8482 80.2403 82.8482 80.5944V88.4881C82.8482 88.8423 82.5624 89.128 82.2083 89.128Z" fill="#2E2E2E"/>
<path d="M93.0823 89.128C92.7282 89.128 92.4424 88.8423 92.4424 88.4881V80.5944C92.4424 80.2403 92.7282 79.9545 93.0823 79.9545C93.4365 79.9545 93.7222 80.2403 93.7222 80.5944V88.4881C93.7222 88.8423 93.4365 89.128 93.0823 89.128Z" fill="#2E2E2E"/>
<path d="M98.4895 89.128C98.1354 89.128 97.8496 88.8423 97.8496 88.4881V80.5944C97.8496 80.2403 98.1354 79.9545 98.4895 79.9545C98.8437 79.9545 99.1295 80.2403 99.1295 80.5944V88.4881C99.1295 88.8423 98.8437 89.128 98.4895 89.128Z" fill="#2E2E2E"/>
<path d="M103.885 89.128C103.531 89.128 103.245 88.8423 103.245 88.4881V80.5944C103.245 80.2403 103.531 79.9545 103.885 79.9545C104.239 79.9545 104.525 80.2403 104.525 80.5944V88.4881C104.525 88.8423 104.239 89.128 103.885 89.128Z" fill="#2E2E2E"/>
<path d="M109.292 86.6832C108.938 86.6832 108.652 86.3975 108.652 86.0433V80.5944C108.652 80.2403 108.938 79.9545 109.292 79.9545C109.646 79.9545 109.932 80.2403 109.932 80.5944V86.0433C109.932 86.3975 109.646 86.6832 109.292 86.6832Z" fill="#2E2E2E"/>
<path d="M71.929 87.604C71.5748 87.604 71.2891 87.3183 71.2891 86.9641V80.5944C71.2891 80.2403 71.5748 79.9545 71.929 79.9545C72.2831 79.9545 72.5689 80.2403 72.5689 80.5944V86.9641C72.5689 87.3183 72.2831 87.604 71.929 87.604Z" fill="#2E2E2E"/>
<path d="M107.802 71.4379H43.1886C42.4561 71.4379 41.8623 72.0316 41.8623 72.7641V78.8065C41.8623 79.539 42.4561 80.1328 43.1886 80.1328H107.802C108.534 80.1328 109.128 79.539 109.128 78.8065V72.7641C109.128 72.0316 108.534 71.4379 107.802 71.4379Z" fill="url(#paint10_linear_291_7895)"/>
<path d="M43.043 79.8861V73.8412C43.043 73.1085 43.6364 72.515 44.3691 72.515H108.985C109.143 72.515 109.295 72.5467 109.434 72.598C109.207 72.1975 108.78 71.9239 108.286 71.9239L42.5643 71.6968C41.8315 71.6968 42.3445 72.5174 42.3445 73.2477V79.2926C42.3445 79.8665 42.7108 80.3477 43.2188 80.5333C43.1089 80.3404 43.0405 80.1205 43.0405 79.8812L43.043 79.8861Z" fill="white"/>
<path d="M107.804 80.7727H43.1888C42.1044 80.7727 41.2227 79.891 41.2227 78.8065V72.7617C41.2227 71.6772 42.1044 70.7955 43.1888 70.7955H107.804C108.889 70.7955 109.77 71.6772 109.77 72.7617V78.8065C109.77 79.891 108.889 80.7727 107.804 80.7727ZM43.1888 72.0802C42.8102 72.0802 42.5049 72.388 42.5049 72.7641V78.809C42.5049 79.1876 42.8127 79.4929 43.1888 79.4929H107.804C108.183 79.4929 108.488 79.1851 108.488 78.809V72.7641C108.488 72.388 108.18 72.0802 107.804 72.0802H43.1888Z" fill="#2E2E2E"/>
<path d="M47.9515 76.4252C47.5973 76.4252 47.3115 76.1395 47.3115 75.7853V71.4379C47.3115 71.0837 47.5973 70.798 47.9515 70.798C48.3056 70.798 48.5913 71.0837 48.5913 71.4379V75.7853C48.5913 76.1395 48.3056 76.4252 47.9515 76.4252Z" fill="#2E2E2E"/>
<path d="M79.514 76.4252C79.1598 76.4252 78.874 76.1395 78.874 75.7853V71.4379C78.874 71.0837 79.1598 70.798 79.514 70.798C79.8681 70.798 80.1538 71.0837 80.1538 71.4379V75.7853C80.1538 76.1395 79.8681 76.4252 79.514 76.4252Z" fill="#2E2E2E"/>
<path d="M53.1643 80.3135C52.8101 80.3135 52.5244 80.0277 52.5244 79.6736V71.7798C52.5244 71.4256 52.8101 71.1399 53.1643 71.1399C53.5184 71.1399 53.8042 71.4256 53.8042 71.7798V79.6736C53.8042 80.0277 53.5184 80.3135 53.1643 80.3135Z" fill="#2E2E2E"/>
<path d="M58.8352 80.3135C58.481 80.3135 58.1953 80.0277 58.1953 79.6736V71.7798C58.1953 71.4256 58.481 71.1399 58.8352 71.1399C59.1893 71.1399 59.4751 71.4256 59.4751 71.7798V79.6736C59.4751 80.0277 59.1893 80.3135 58.8352 80.3135Z" fill="#2E2E2E"/>
<path d="M68.9974 80.3135C68.6432 80.3135 68.3574 80.0277 68.3574 79.6736V71.7798C68.3574 71.4256 68.6432 71.1399 68.9974 71.1399C69.3515 71.1399 69.6373 71.4256 69.6373 71.7798V79.6736C69.6373 80.0277 69.3515 80.3135 68.9974 80.3135Z" fill="#2E2E2E"/>
<path d="M74.4055 80.3135C74.0514 80.3135 73.7656 80.0277 73.7656 79.6736V71.7798C73.7656 71.4256 74.0514 71.1399 74.4055 71.1399C74.7596 71.1399 75.0454 71.4256 75.0454 71.7798V79.6736C75.0454 80.0277 74.7596 80.3135 74.4055 80.3135Z" fill="#2E2E2E"/>
<path d="M85.2756 80.3135C84.9215 80.3135 84.6357 80.0277 84.6357 79.6736V71.7798C84.6357 71.4256 84.9215 71.1399 85.2756 71.1399C85.6298 71.1399 85.9155 71.4256 85.9155 71.7798V79.6736C85.9155 80.0277 85.6298 80.3135 85.2756 80.3135Z" fill="#2E2E2E"/>
<path d="M90.6839 80.3135C90.3297 80.3135 90.0439 80.0277 90.0439 79.6736V71.7798C90.0439 71.4256 90.3297 71.1399 90.6839 71.1399C91.038 71.1399 91.3237 71.4256 91.3237 71.7798V79.6736C91.3237 80.0277 91.038 80.3135 90.6839 80.3135Z" fill="#2E2E2E"/>
<path d="M96.0783 80.3135C95.7242 80.3135 95.4385 80.0277 95.4385 79.6736V71.7798C95.4385 71.4256 95.7242 71.1399 96.0783 71.1399C96.4325 71.1399 96.7183 71.4256 96.7183 71.7798V79.6736C96.7183 80.0277 96.4325 80.3135 96.0783 80.3135Z" fill="#2E2E2E"/>
<path d="M101.486 77.8687C101.131 77.8687 100.846 77.5829 100.846 77.2287V71.7798C100.846 71.4256 101.131 71.1399 101.486 71.1399C101.84 71.1399 102.126 71.4256 102.126 71.7798V77.2287C102.126 77.5829 101.84 77.8687 101.486 77.8687Z" fill="#2E2E2E"/>
<path d="M64.1224 78.7894C63.7682 78.7894 63.4824 78.5037 63.4824 78.1495V71.7798C63.4824 71.4256 63.7682 71.1399 64.1224 71.1399C64.4765 71.1399 64.7622 71.4256 64.7622 71.7798V78.1495C64.7622 78.5037 64.4765 78.7894 64.1224 78.7894Z" fill="#2E2E2E"/>
<path d="M111.59 62.6429H46.9766C46.2442 62.6429 45.6504 63.2366 45.6504 63.9691V70.0115C45.6504 70.744 46.2442 71.3377 46.9766 71.3377H111.59C112.322 71.3377 112.916 70.744 112.916 70.0115V63.9691C112.916 63.2366 112.322 62.6429 111.59 62.6429Z" fill="url(#paint11_linear_291_7895)"/>
<path d="M47.0234 71.052V65.0071C47.0234 64.2744 47.6169 63.6809 48.3496 63.6809H112.965C113.163 63.6809 113.351 63.7273 113.52 63.8054C113.322 63.3243 112.848 62.9824 112.294 62.9824H47.678C46.9453 62.9824 45.751 63.229 45.751 63.9618V70.4047C45.751 70.9372 46.6693 71.3402 47.1236 71.5502C47.0601 71.3939 47.0234 71.2254 47.0234 71.0471V71.052Z" fill="white"/>
<path d="M111.592 71.9777H46.9769C45.8925 71.9777 45.0107 71.0959 45.0107 70.0115V63.9666C45.0107 62.8822 45.8925 62.0005 46.9769 62.0005H111.592C112.677 62.0005 113.558 62.8822 113.558 63.9666V70.0115C113.558 71.0959 112.677 71.9777 111.592 71.9777ZM46.9769 63.2852C46.5983 63.2852 46.293 63.593 46.293 63.9691V70.014C46.293 70.3925 46.6007 70.6978 46.9769 70.6978H111.592C111.968 70.6978 112.276 70.3901 112.276 70.014V63.9691C112.276 63.593 111.968 63.2852 111.592 63.2852H46.9769Z" fill="#2E2E2E"/>
<path d="M51.7395 67.6302C51.3854 67.6302 51.0996 67.3444 51.0996 66.9903V62.6429C51.0996 62.2887 51.3854 62.0029 51.7395 62.0029C52.0937 62.0029 52.3794 62.2887 52.3794 62.6429V66.9903C52.3794 67.3444 52.0937 67.6302 51.7395 67.6302Z" fill="#2E2E2E"/>
<path d="M83.302 67.6302C82.9479 67.6302 82.6621 67.3444 82.6621 66.9903V62.6429C82.6621 62.2887 82.9479 62.0029 83.302 62.0029C83.6562 62.0029 83.9419 62.2887 83.9419 62.6429V66.9903C83.9419 67.3444 83.6562 67.6302 83.302 67.6302Z" fill="#2E2E2E"/>
<path d="M56.9514 71.5185C56.5973 71.5185 56.3115 71.2327 56.3115 70.8786V62.9848C56.3115 62.6307 56.5973 62.3449 56.9514 62.3449C57.3055 62.3449 57.5913 62.6307 57.5913 62.9848V70.8786C57.5913 71.2327 57.3055 71.5185 56.9514 71.5185Z" fill="#2E2E2E"/>
<path d="M62.6203 71.5185C62.2662 71.5185 61.9805 71.2327 61.9805 70.8786V62.9848C61.9805 62.6307 62.2662 62.3449 62.6203 62.3449C62.9745 62.3449 63.2603 62.6307 63.2603 62.9848V70.8786C63.2603 71.2327 62.9745 71.5185 62.6203 71.5185Z" fill="#2E2E2E"/>
<path d="M72.7825 71.5185C72.4284 71.5185 72.1426 71.2327 72.1426 70.8786V62.9848C72.1426 62.6307 72.4284 62.3449 72.7825 62.3449C73.1367 62.3449 73.4224 62.6307 73.4224 62.9848V70.8786C73.4224 71.2327 73.1367 71.5185 72.7825 71.5185Z" fill="#2E2E2E"/>
<path d="M78.1907 71.5185C77.8365 71.5185 77.5508 71.2327 77.5508 70.8786V62.9848C77.5508 62.6307 77.8365 62.3449 78.1907 62.3449C78.5448 62.3449 78.8306 62.6307 78.8306 62.9848V70.8786C78.8306 71.2327 78.5448 71.5185 78.1907 71.5185Z" fill="#2E2E2E"/>
<path d="M89.0637 71.5185C88.7096 71.5185 88.4238 71.2327 88.4238 70.8786V62.9848C88.4238 62.6307 88.7096 62.3449 89.0637 62.3449C89.4178 62.3449 89.7036 62.6307 89.7036 62.9848V70.8786C89.7036 71.2327 89.4178 71.5185 89.0637 71.5185Z" fill="#2E2E2E"/>
<path d="M94.471 71.5185C94.1168 71.5185 93.8311 71.2327 93.8311 70.8786V62.9848C93.8311 62.6307 94.1168 62.3449 94.471 62.3449C94.8251 62.3449 95.1109 62.6307 95.1109 62.9848V70.8786C95.1109 71.2327 94.8251 71.5185 94.471 71.5185Z" fill="#2E2E2E"/>
<path d="M99.8664 71.5185C99.5123 71.5185 99.2266 71.2327 99.2266 70.8786V62.9848C99.2266 62.6307 99.5123 62.3449 99.8664 62.3449C100.221 62.3449 100.506 62.6307 100.506 62.9848V70.8786C100.506 71.2327 100.221 71.5185 99.8664 71.5185Z" fill="#2E2E2E"/>
<path d="M105.274 69.0737C104.92 69.0737 104.634 68.7879 104.634 68.4338V62.9848C104.634 62.6307 104.92 62.3449 105.274 62.3449C105.628 62.3449 105.914 62.6307 105.914 62.9848V68.4338C105.914 68.7879 105.628 69.0737 105.274 69.0737Z" fill="#2E2E2E"/>
<path d="M67.9104 69.9944C67.5563 69.9944 67.2705 69.7087 67.2705 69.3545V62.9848C67.2705 62.6307 67.5563 62.3449 67.9104 62.3449C68.2646 62.3449 68.5503 62.6307 68.5503 62.9848V69.3545C68.5503 69.7087 68.2646 69.9944 67.9104 69.9944Z" fill="#2E2E2E"/>
<path d="M111.58 53.8479H46.9668C46.2344 53.8479 45.6406 54.4416 45.6406 55.1741V61.2165C45.6406 61.949 46.2344 62.5428 46.9668 62.5428H111.58C112.312 62.5428 112.906 61.949 112.906 61.2165V55.1741C112.906 54.4416 112.312 53.8479 111.58 53.8479Z" fill="url(#paint12_linear_291_7895)"/>
<path d="M47.245 62.3156V56.2707C47.245 55.538 47.8386 54.9445 48.5713 54.9445H113.187C113.248 54.9445 113.306 54.9543 113.365 54.9616C113.187 54.4389 112.698 54.0604 112.115 54.0604H47.499C46.7663 54.0604 46.1729 54.6538 46.1729 55.3866V61.4314C46.1729 62.1031 46.6735 62.6502 47.3208 62.7381C47.2744 62.6038 47.245 62.4646 47.245 62.3156Z" fill="white"/>
<path d="M111.583 63.1827H46.9671C45.8827 63.1827 45.001 62.301 45.001 61.2165V55.1717C45.001 54.0872 45.8827 53.2056 46.9671 53.2056H111.583C112.667 53.2056 113.549 54.0872 113.549 55.1717V61.2165C113.549 62.301 112.667 63.1827 111.583 63.1827ZM46.9671 54.4903C46.5885 54.4903 46.2832 54.798 46.2832 55.1741V61.219C46.2832 61.5976 46.591 61.9029 46.9671 61.9029H111.583C111.961 61.9029 112.266 61.5951 112.266 61.219V55.1741C112.266 54.7955 111.959 54.4903 111.583 54.4903H46.9671Z" fill="#2E2E2E"/>
<path d="M51.7298 58.8352C51.3756 58.8352 51.0898 58.5495 51.0898 58.1953V53.8479C51.0898 53.4938 51.3756 53.208 51.7298 53.208C52.0839 53.208 52.3696 53.4938 52.3696 53.8479V58.1953C52.3696 58.5495 52.0839 58.8352 51.7298 58.8352Z" fill="#2E2E2E"/>
<path d="M83.2923 58.8352C82.9381 58.8352 82.6523 58.5495 82.6523 58.1953V53.8479C82.6523 53.4938 82.9381 53.208 83.2923 53.208C83.6464 53.208 83.9321 53.4938 83.9321 53.8479V58.1953C83.9321 58.5495 83.6464 58.8352 83.2923 58.8352Z" fill="#2E2E2E"/>
<path d="M56.9416 62.7235C56.5875 62.7235 56.3018 62.4378 56.3018 62.0836V54.1898C56.3018 53.8357 56.5875 53.5499 56.9416 53.5499C57.2958 53.5499 57.5816 53.8357 57.5816 54.1898V62.0836C57.5816 62.4378 57.2958 62.7235 56.9416 62.7235Z" fill="#2E2E2E"/>
<path d="M62.6106 62.7235C62.2565 62.7235 61.9707 62.4378 61.9707 62.0836V54.1898C61.9707 53.8357 62.2565 53.5499 62.6106 53.5499C62.9648 53.5499 63.2505 53.8357 63.2505 54.1898V62.0836C63.2505 62.4378 62.9648 62.7235 62.6106 62.7235Z" fill="#2E2E2E"/>
<path d="M72.7756 62.7235C72.4215 62.7235 72.1357 62.4378 72.1357 62.0836V54.1898C72.1357 53.8357 72.4215 53.5499 72.7756 53.5499C73.1298 53.5499 73.4155 53.8357 73.4155 54.1898V62.0836C73.4155 62.4378 73.1298 62.7235 72.7756 62.7235Z" fill="#2E2E2E"/>
<path d="M78.1809 62.7235C77.8268 62.7235 77.541 62.4378 77.541 62.0836V54.1898C77.541 53.8357 77.8268 53.5499 78.1809 53.5499C78.5351 53.5499 78.8208 53.8357 78.8208 54.1898V62.0836C78.8208 62.4378 78.5351 62.7235 78.1809 62.7235Z" fill="#2E2E2E"/>
<path d="M89.054 62.7235C88.6998 62.7235 88.4141 62.4378 88.4141 62.0836V54.1898C88.4141 53.8357 88.6998 53.5499 89.054 53.5499C89.4081 53.5499 89.6939 53.8357 89.6939 54.1898V62.0836C89.6939 62.4378 89.4081 62.7235 89.054 62.7235Z" fill="#2E2E2E"/>
<path d="M94.4612 62.7235C94.1071 62.7235 93.8213 62.4378 93.8213 62.0836V54.1898C93.8213 53.8357 94.1071 53.5499 94.4612 53.5499C94.8154 53.5499 95.1011 53.8357 95.1011 54.1898V62.0836C95.1011 62.4378 94.8154 62.7235 94.4612 62.7235Z" fill="#2E2E2E"/>
<path d="M99.8567 62.7235C99.5026 62.7235 99.2168 62.4378 99.2168 62.0836V54.1898C99.2168 53.8357 99.5026 53.5499 99.8567 53.5499C100.211 53.5499 100.497 53.8357 100.497 54.1898V62.0836C100.497 62.4378 100.211 62.7235 99.8567 62.7235Z" fill="#2E2E2E"/>
<path d="M105.264 60.2787C104.91 60.2787 104.624 59.9929 104.624 59.6388V54.1898C104.624 53.8357 104.91 53.5499 105.264 53.5499C105.618 53.5499 105.904 53.8357 105.904 54.1898V59.6388C105.904 59.9929 105.618 60.2787 105.264 60.2787Z" fill="#2E2E2E"/>
<path d="M67.9007 61.1995C67.5465 61.1995 67.2607 60.9137 67.2607 60.5596V54.1898C67.2607 53.8357 67.5465 53.5499 67.9007 53.5499C68.2548 53.5499 68.5405 53.8357 68.5405 54.1898V60.5596C68.5405 60.9137 68.2548 61.1995 67.9007 61.1995Z" fill="#2E2E2E"/>
<path d="M115.598 45.0333H50.9854C50.2529 45.0333 49.6592 45.6271 49.6592 46.3595V52.402C49.6592 53.1344 50.2529 53.7282 50.9854 53.7282H115.598C116.331 53.7282 116.925 53.1344 116.925 52.402V46.3595C116.925 45.6271 116.331 45.0333 115.598 45.0333Z" fill="url(#paint13_linear_291_7895)"/>
<path d="M51.1048 53.5157V46.826C51.1048 46.4499 51.4077 46.1471 51.7838 46.1471H117.047C117.122 46.1471 117.193 46.1568 117.266 46.169C117.042 45.7587 116.609 45.4778 116.109 45.4778H50.438C49.7053 45.4778 50.1669 46.0713 50.1669 46.804V52.8489C50.1669 53.5059 50.6456 54.0457 51.2733 54.1507C51.1707 53.9627 51.1048 53.7477 51.1048 53.5181V53.5157Z" fill="white"/>
<path d="M115.601 54.3681H50.9857C49.9012 54.3681 49.0195 53.4864 49.0195 52.402V46.3571C49.0195 45.2727 49.9012 44.391 50.9857 44.391H115.601C116.686 44.391 117.567 45.2727 117.567 46.3571V52.402C117.567 53.4864 116.686 54.3681 115.601 54.3681ZM50.9857 45.6757C50.6095 45.6757 50.3018 45.9834 50.3018 46.3596V52.4044C50.3018 52.7806 50.6095 53.0883 50.9857 53.0883H115.601C115.98 53.0883 116.285 52.7806 116.285 52.4044V46.3596C116.285 45.9834 115.977 45.6757 115.601 45.6757H50.9857Z" fill="#2E2E2E"/>
<path d="M55.7483 50.0207C55.3942 50.0207 55.1084 49.7349 55.1084 49.3808V45.0333C55.1084 44.6792 55.3942 44.3934 55.7483 44.3934C56.1025 44.3934 56.3883 44.6792 56.3883 45.0333V49.3808C56.3883 49.7349 56.1025 50.0207 55.7483 50.0207Z" fill="#2E2E2E"/>
<path d="M87.3127 50.0207C86.9586 50.0207 86.6729 49.7349 86.6729 49.3808V45.0333C86.6729 44.6792 86.9586 44.3934 87.3127 44.3934C87.6669 44.3934 87.9527 44.6792 87.9527 45.0333V49.3808C87.9527 49.7349 87.6669 50.0207 87.3127 50.0207Z" fill="#2E2E2E"/>
<path d="M60.9602 53.9114C60.6061 53.9114 60.3203 53.6256 60.3203 53.2714V45.3777C60.3203 45.0235 60.6061 44.7378 60.9602 44.7378C61.3144 44.7378 61.6001 45.0235 61.6001 45.3777V53.2714C61.6001 53.6256 61.3144 53.9114 60.9602 53.9114Z" fill="#2E2E2E"/>
<path d="M66.6311 53.9114C66.277 53.9114 65.9912 53.6256 65.9912 53.2714V45.3777C65.9912 45.0235 66.277 44.7378 66.6311 44.7378C66.9853 44.7378 67.271 45.0235 67.271 45.3777V53.2714C67.271 53.6256 66.9853 53.9114 66.6311 53.9114Z" fill="#2E2E2E"/>
<path d="M76.7942 53.9114C76.44 53.9114 76.1543 53.6256 76.1543 53.2714V45.3777C76.1543 45.0235 76.44 44.7378 76.7942 44.7378C77.1483 44.7378 77.4341 45.0235 77.4341 45.3777V53.2714C77.4341 53.6256 77.1483 53.9114 76.7942 53.9114Z" fill="#2E2E2E"/>
<path d="M82.2015 53.9114C81.8473 53.9114 81.5615 53.6256 81.5615 53.2714V45.3777C81.5615 45.0235 81.8473 44.7378 82.2015 44.7378C82.5556 44.7378 82.8413 45.0235 82.8413 45.3777V53.2714C82.8413 53.6256 82.5556 53.9114 82.2015 53.9114Z" fill="#2E2E2E"/>
<path d="M93.0725 53.9114C92.7184 53.9114 92.4326 53.6256 92.4326 53.2714V45.3777C92.4326 45.0235 92.7184 44.7378 93.0725 44.7378C93.4267 44.7378 93.7124 45.0235 93.7124 45.3777V53.2714C93.7124 53.6256 93.4267 53.9114 93.0725 53.9114Z" fill="#2E2E2E"/>
<path d="M98.4797 53.9114C98.1256 53.9114 97.8398 53.6256 97.8398 53.2714V45.3777C97.8398 45.0235 98.1256 44.7378 98.4797 44.7378C98.8339 44.7378 99.1196 45.0235 99.1196 45.3777V53.2714C99.1196 53.6256 98.8339 53.9114 98.4797 53.9114Z" fill="#2E2E2E"/>
<path d="M103.875 53.9114C103.521 53.9114 103.235 53.6256 103.235 53.2714V45.3777C103.235 45.0235 103.521 44.7378 103.875 44.7378C104.229 44.7378 104.515 45.0235 104.515 45.3777V53.2714C104.515 53.6256 104.229 53.9114 103.875 53.9114Z" fill="#2E2E2E"/>
<path d="M109.282 51.4666C108.928 51.4666 108.643 51.1808 108.643 50.8267V45.3777C108.643 45.0235 108.928 44.7378 109.282 44.7378C109.637 44.7378 109.922 45.0235 109.922 45.3777V50.8267C109.922 51.1808 109.637 51.4666 109.282 51.4666Z" fill="#2E2E2E"/>
<path d="M71.9211 52.3849C71.567 52.3849 71.2812 52.0991 71.2812 51.745V45.3753C71.2812 45.0211 71.567 44.7354 71.9211 44.7354C72.2753 44.7354 72.5611 45.0211 72.5611 45.3753V51.745C72.5611 52.0991 72.2753 52.3849 71.9211 52.3849Z" fill="#2E2E2E"/>
<path d="M107.794 36.2213H43.1807C42.4482 36.2213 41.8545 36.815 41.8545 37.5475V43.5899C41.8545 44.3224 42.4482 44.9161 43.1807 44.9161H107.794C108.526 44.9161 109.12 44.3224 109.12 43.5899V37.5475C109.12 36.815 108.526 36.2213 107.794 36.2213Z" fill="url(#paint14_linear_291_7895)"/>
<path d="M43.1538 44.8868V38.3876C43.1538 37.9065 43.5445 37.5181 44.0233 37.5181H109.093C109.11 37.5181 109.125 37.523 109.139 37.523C108.942 37.0394 108.468 36.6975 107.913 36.6975H43.2979C42.5652 36.6975 41.9717 37.291 41.9717 38.0237V44.0686C41.9717 44.7842 42.5407 45.3631 43.249 45.3899C43.1855 45.2361 43.1513 45.0675 43.1513 44.8917L43.1538 44.8868Z" fill="white"/>
<path d="M107.797 45.556H43.181C42.0966 45.556 41.2148 44.6743 41.2148 43.5899V37.545C41.2148 36.4606 42.0966 35.5789 43.181 35.5789H107.797C108.881 35.5789 109.763 36.4606 109.763 37.545V43.5899C109.763 44.6743 108.881 45.556 107.797 45.556ZM43.181 36.8636C42.8024 36.8636 42.4971 37.1714 42.4971 37.5475V43.5924C42.4971 43.9709 42.8048 44.2762 43.181 44.2762H107.797C108.173 44.2762 108.48 43.9685 108.48 43.5924V37.5475C108.48 37.1689 108.173 36.8636 107.797 36.8636H43.181Z" fill="#2E2E2E"/>
<path d="M47.9436 41.2086C47.5895 41.2086 47.3037 40.9228 47.3037 40.5687V36.2213C47.3037 35.8671 47.5895 35.5814 47.9436 35.5814C48.2978 35.5814 48.5835 35.8671 48.5835 36.2213V40.5687C48.5835 40.9228 48.2978 41.2086 47.9436 41.2086Z" fill="#2E2E2E"/>
<path d="M79.5071 41.2086C79.153 41.2086 78.8672 40.9228 78.8672 40.5687V36.2213C78.8672 35.8671 79.153 35.5814 79.5071 35.5814C79.8613 35.5814 80.147 35.8671 80.147 36.2213V40.5687C80.147 40.9228 79.8613 41.2086 79.5071 41.2086Z" fill="#2E2E2E"/>
<path d="M53.1555 45.0968C52.8014 45.0968 52.5156 44.8111 52.5156 44.4569V36.5632C52.5156 36.209 52.8014 35.9233 53.1555 35.9233C53.5096 35.9233 53.7954 36.209 53.7954 36.5632V44.4569C53.7954 44.8111 53.5096 45.0968 53.1555 45.0968Z" fill="#2E2E2E"/>
<path d="M58.8245 45.0968C58.4704 45.0968 58.1846 44.8111 58.1846 44.4569V36.5632C58.1846 36.209 58.4704 35.9233 58.8245 35.9233C59.1786 35.9233 59.4644 36.209 59.4644 36.5632V44.4569C59.4644 44.8111 59.1786 45.0968 58.8245 45.0968Z" fill="#2E2E2E"/>
<path d="M68.9875 45.0968C68.6334 45.0968 68.3477 44.8111 68.3477 44.4569V36.5632C68.3477 36.209 68.6334 35.9233 68.9875 35.9233C69.3417 35.9233 69.6275 36.209 69.6275 36.5632V44.4569C69.6275 44.8111 69.3417 45.0968 68.9875 45.0968Z" fill="#2E2E2E"/>
<path d="M74.3948 45.0968C74.0407 45.0968 73.7549 44.8111 73.7549 44.4569V36.5632C73.7549 36.209 74.0407 35.9233 74.3948 35.9233C74.749 35.9233 75.0347 36.209 75.0347 36.5632V44.4569C75.0347 44.8111 74.749 45.0968 74.3948 45.0968Z" fill="#2E2E2E"/>
<path d="M85.2679 45.0968C84.9137 45.0968 84.6279 44.8111 84.6279 44.4569V36.5632C84.6279 36.209 84.9137 35.9233 85.2679 35.9233C85.622 35.9233 85.9077 36.209 85.9077 36.5632V44.4569C85.9077 44.8111 85.622 45.0968 85.2679 45.0968Z" fill="#2E2E2E"/>
<path d="M90.6761 45.0968C90.3219 45.0968 90.0361 44.8111 90.0361 44.4569V36.5632C90.0361 36.209 90.3219 35.9233 90.6761 35.9233C91.0302 35.9233 91.3159 36.209 91.3159 36.5632V44.4569C91.3159 44.8111 91.0302 45.0968 90.6761 45.0968Z" fill="#2E2E2E"/>
<path d="M96.0706 45.0968C95.7165 45.0968 95.4307 44.8111 95.4307 44.4569V36.5632C95.4307 36.209 95.7165 35.9233 96.0706 35.9233C96.4247 35.9233 96.7105 36.209 96.7105 36.5632V44.4569C96.7105 44.8111 96.4247 45.0968 96.0706 45.0968Z" fill="#2E2E2E"/>
<path d="M101.478 42.652C101.124 42.652 100.838 42.3663 100.838 42.0121V36.5632C100.838 36.209 101.124 35.9233 101.478 35.9233C101.832 35.9233 102.118 36.209 102.118 36.5632V42.0121C102.118 42.3663 101.832 42.652 101.478 42.652Z" fill="#2E2E2E"/>
<path d="M64.1145 43.5728C63.7604 43.5728 63.4746 43.287 63.4746 42.9329V36.5632C63.4746 36.209 63.7604 35.9233 64.1145 35.9233C64.4687 35.9233 64.7544 36.209 64.7544 36.5632V42.9329C64.7544 43.287 64.4687 43.5728 64.1145 43.5728Z" fill="#2E2E2E"/>
<path d="M111.58 27.4263H46.9668C46.2344 27.4263 45.6406 28.02 45.6406 28.7525V34.7949C45.6406 35.5274 46.2344 36.1211 46.9668 36.1211H111.58C112.312 36.1211 112.906 35.5274 112.906 34.7949V28.7525C112.906 28.02 112.312 27.4263 111.58 27.4263Z" fill="url(#paint15_linear_291_7895)"/>
<path d="M47.0352 36.209V29.5584C47.0352 29.1628 47.3575 28.8404 47.7532 28.8404H112.977C113.023 28.8404 113.065 28.8501 113.109 28.8526C113.04 28.1834 112.483 27.6607 111.797 27.6607H47.1817C46.4489 27.6607 45.8555 28.2542 45.8555 28.9869V35.0318C45.8555 35.7181 46.3781 36.275 47.0473 36.3434C47.0424 36.2994 47.0352 36.2554 47.0352 36.2115V36.209Z" fill="white"/>
<path d="M111.583 36.761H46.9671C45.8827 36.761 45.001 35.8794 45.001 34.7949V28.7501C45.001 27.6656 45.8827 26.7839 46.9671 26.7839H111.583C112.667 26.7839 113.549 27.6656 113.549 28.7501V34.7949C113.549 35.8794 112.667 36.761 111.583 36.761ZM46.9671 28.0686C46.5885 28.0686 46.2832 28.3764 46.2832 28.7525V34.7974C46.2832 35.1735 46.591 35.4812 46.9671 35.4812H111.583C111.961 35.4812 112.266 35.1735 112.266 34.7974V28.7525C112.266 28.3764 111.959 28.0686 111.583 28.0686H46.9671Z" fill="#2E2E2E"/>
<path d="M51.7298 32.4136C51.3756 32.4136 51.0898 32.1279 51.0898 31.7737V27.4263C51.0898 27.0721 51.3756 26.7864 51.7298 26.7864C52.0839 26.7864 52.3696 27.0721 52.3696 27.4263V31.7737C52.3696 32.1279 52.0839 32.4136 51.7298 32.4136Z" fill="#2E2E2E"/>
<path d="M83.2923 32.4136C82.9381 32.4136 82.6523 32.1279 82.6523 31.7737V27.4263C82.6523 27.0721 82.9381 26.7864 83.2923 26.7864C83.6464 26.7864 83.9321 27.0721 83.9321 27.4263V31.7737C83.9321 32.1279 83.6464 32.4136 83.2923 32.4136Z" fill="#2E2E2E"/>
<path d="M56.9416 36.3018C56.5875 36.3018 56.3018 36.0161 56.3018 35.6619V27.7682C56.3018 27.4141 56.5875 27.1283 56.9416 27.1283C57.2958 27.1283 57.5816 27.4141 57.5816 27.7682V35.6619C57.5816 36.0161 57.2958 36.3018 56.9416 36.3018Z" fill="#2E2E2E"/>
<path d="M62.6106 36.3018C62.2565 36.3018 61.9707 36.0161 61.9707 35.6619V27.7682C61.9707 27.4141 62.2565 27.1283 62.6106 27.1283C62.9648 27.1283 63.2505 27.4141 63.2505 27.7682V35.6619C63.2505 36.0161 62.9648 36.3018 62.6106 36.3018Z" fill="#2E2E2E"/>
<path d="M72.7756 36.3018C72.4215 36.3018 72.1357 36.0161 72.1357 35.6619V27.7682C72.1357 27.4141 72.4215 27.1283 72.7756 27.1283C73.1298 27.1283 73.4155 27.4141 73.4155 27.7682V35.6619C73.4155 36.0161 73.1298 36.3018 72.7756 36.3018Z" fill="#2E2E2E"/>
<path d="M78.1809 36.3018C77.8268 36.3018 77.541 36.0161 77.541 35.6619V27.7682C77.541 27.4141 77.8268 27.1283 78.1809 27.1283C78.5351 27.1283 78.8208 27.4141 78.8208 27.7682V35.6619C78.8208 36.0161 78.5351 36.3018 78.1809 36.3018Z" fill="#2E2E2E"/>
<path d="M89.054 36.3018C88.6998 36.3018 88.4141 36.0161 88.4141 35.6619V27.7682C88.4141 27.4141 88.6998 27.1283 89.054 27.1283C89.4081 27.1283 89.6939 27.4141 89.6939 27.7682V35.6619C89.6939 36.0161 89.4081 36.3018 89.054 36.3018Z" fill="#2E2E2E"/>
<path d="M94.4612 36.3018C94.1071 36.3018 93.8213 36.0161 93.8213 35.6619V27.7682C93.8213 27.4141 94.1071 27.1283 94.4612 27.1283C94.8154 27.1283 95.1011 27.4141 95.1011 27.7682V35.6619C95.1011 36.0161 94.8154 36.3018 94.4612 36.3018Z" fill="#2E2E2E"/>
<path d="M99.8567 36.3018C99.5026 36.3018 99.2168 36.0161 99.2168 35.6619V27.7682C99.2168 27.4141 99.5026 27.1283 99.8567 27.1283C100.211 27.1283 100.497 27.4141 100.497 27.7682V35.6619C100.497 36.0161 100.211 36.3018 99.8567 36.3018Z" fill="#2E2E2E"/>
<path d="M105.264 33.857C104.91 33.857 104.624 33.5713 104.624 33.2171V27.7682C104.624 27.4141 104.91 27.1283 105.264 27.1283C105.618 27.1283 105.904 27.4141 105.904 27.7682V33.2171C105.904 33.5713 105.618 33.857 105.264 33.857Z" fill="#2E2E2E"/>
<path d="M67.9007 34.7778C67.5465 34.7778 67.2607 34.492 67.2607 34.1379V27.7682C67.2607 27.4141 67.5465 27.1283 67.9007 27.1283C68.2548 27.1283 68.5405 27.4141 68.5405 27.7682V34.1379C68.5405 34.492 68.2548 34.7778 67.9007 34.7778Z" fill="#2E2E2E"/>
<path d="M64.2588 136.752C65.1942 137.03 68.3376 137.836 70.9192 138.183C73.5008 138.53 81.6192 141.964 84.4108 143.288C85.7737 143.933 99.1774 151.382 99.8051 152.581L105.523 139.92C101.674 135.25 95.9193 134.781 90.5216 131.86C85.2485 129.005 85.7663 129.354 82.0075 126.455C79.0913 124.208 77.1155 126.606 77.875 128.387C78.8227 130.614 79.9633 131.418 81.9099 133.33C78.5247 133.035 73.9965 133.035 72.3381 132.978C70.4404 132.915 66.6889 132.781 64.4249 133C61.8653 133.25 61.6332 135.975 64.2588 136.754V136.752Z" fill="white"/>
<path d="M105.601 140.56C105.428 140.56 105.252 140.489 105.125 140.35C101.987 136.884 99.2171 135.887 96.2838 134.83C94.7939 134.292 93.2528 133.738 91.6067 132.847C90.6541 132.331 89.814 131.879 89.0471 131.467C85.9721 129.813 84.1159 128.814 81.2192 127.039C80.1251 126.367 79.1042 126.284 78.4887 126.816C78.0955 127.156 77.9709 127.671 78.1663 128.135C78.8648 129.776 81.9031 133.157 87.1957 138.183C87.4375 138.413 87.6231 138.589 87.7306 138.694C87.9846 138.94 87.9895 139.346 87.7428 139.6C87.4961 139.854 87.0907 139.859 86.8367 139.612C86.7292 139.509 86.5509 139.338 86.314 139.114C82.8067 135.782 78.0246 131.073 76.989 128.638C76.5763 127.669 76.8425 126.548 77.6533 125.849C78.7133 124.936 80.296 124.972 81.8909 125.952C84.7558 127.708 86.5998 128.699 89.6552 130.343C90.4221 130.756 91.2647 131.21 92.2173 131.725C93.7779 132.571 95.2727 133.108 96.7185 133.628C99.8057 134.739 102.722 135.79 106.075 139.492C106.312 139.754 106.293 140.159 106.031 140.398C105.909 140.508 105.755 140.564 105.601 140.564V140.56Z" fill="#2E2E2E"/>
<path d="M99.2028 152.928C99.0929 152.928 98.9806 152.898 98.878 152.84C97.9035 152.266 97.0267 151.748 96.2109 151.264C91.9929 148.768 89.4456 147.261 83.3714 143.947C80.5334 142.399 73.6995 139.282 70.7492 138.85C67.5448 138.381 64.6139 137.599 63.7908 137.372C61.9981 136.874 61.3411 135.475 61.4901 134.383C61.6269 133.377 62.4964 132.361 64.1279 132.361C64.7116 132.361 65.7179 132.348 66.9928 132.334C71.2425 132.285 78.3523 132.202 80.9998 132.436C81.3515 132.468 81.6129 132.778 81.5811 133.13C81.5494 133.482 81.2392 133.743 80.8875 133.711C78.3034 133.484 71.2328 133.565 67.0075 133.613C65.7277 133.628 64.719 133.64 64.1279 133.64C63.361 133.64 62.8359 133.99 62.7602 134.554C62.6844 135.111 63.0826 135.846 64.1352 136.136C64.9388 136.359 67.8061 137.123 70.9372 137.582C74.2979 138.076 81.5347 141.483 83.9869 142.821C90.0806 146.148 92.6353 147.657 96.8631 150.161C97.6788 150.642 98.5532 151.162 99.5277 151.736C99.833 151.917 99.9331 152.307 99.7548 152.613C99.6351 152.815 99.4227 152.928 99.2028 152.928Z" fill="#2E2E2E"/>
<path d="M152.078 177.442C152.063 177.442 152.051 177.442 152.039 177.442C137.624 176.763 100.348 156.596 97.7936 154.782L97.3369 154.457L106.044 137.9L113.396 141.156L147.516 150.241C160.05 140.169 174.985 127.471 178.619 124.091C178.878 123.849 179.284 123.866 179.525 124.122C179.767 124.381 179.753 124.787 179.494 125.029C175.823 128.441 160.673 141.322 148.068 151.44L147.816 151.643L112.927 142.345L106.625 139.553L99.0075 154.034C103.983 157.07 138.811 175.534 152.102 176.157C153.704 176.13 179.723 167.753 202.459 143.957C202.703 143.701 203.109 143.691 203.365 143.935C203.622 144.179 203.629 144.585 203.385 144.841C191.263 157.529 178.407 165.645 169.756 170.22C160.634 175.044 153.319 177.437 152.08 177.437L152.078 177.442Z" fill="#2E2E2E"/>
<path d="M257.201 208.89H1.13206C0.777915 208.89 0.492188 208.604 0.492188 208.25C0.492188 207.896 0.777915 207.61 1.13206 207.61H257.201C257.555 207.61 257.84 207.896 257.84 208.25C257.84 208.604 257.555 208.89 257.201 208.89Z" fill="#2E2E2E"/>
<defs>
<linearGradient id="paint0_linear_291_7895" x1="129.07" y1="37.5937" x2="154.195" y2="60.8036" gradientUnits="userSpaceOnUse">
<stop stop-color="#C1C7D6"/>
<stop offset="1" stop-color="#A5A9B8"/>
</linearGradient>
<linearGradient id="paint1_linear_291_7895" x1="240.718" y1="103.551" x2="263.354" y2="120.803" gradientUnits="userSpaceOnUse">
<stop stop-color="#FFBF31"/>
<stop offset="1" stop-color="#FF8031"/>
</linearGradient>
<linearGradient id="paint2_linear_291_7895" x1="38.2479" y1="192.636" x2="63.4703" y2="198.759" gradientUnits="userSpaceOnUse">
<stop stop-color="#484857"/>
<stop offset="1" stop-color="#2E2E2E"/>
</linearGradient>
<linearGradient id="paint3_linear_291_7895" x1="201.697" y1="175.581" x2="138.254" y2="126.711" gradientUnits="userSpaceOnUse">
<stop stop-color="#74AAE0"/>
<stop offset="1" stop-color="#A5D1FE"/>
</linearGradient>
<linearGradient id="paint4_linear_291_7895" x1="46.8594" y1="128.528" x2="114.125" y2="128.528" gradientUnits="userSpaceOnUse">
<stop stop-color="#FFBF31"/>
<stop offset="1" stop-color="#FF8031"/>
</linearGradient>
<linearGradient id="paint5_linear_291_7895" x1="50.8779" y1="119.714" x2="118.143" y2="119.714" gradientUnits="userSpaceOnUse">
<stop stop-color="#FFBF31"/>
<stop offset="1" stop-color="#FF8031"/>
</linearGradient>
<linearGradient id="paint6_linear_291_7895" x1="43.0723" y1="110.899" x2="110.34" y2="110.899" gradientUnits="userSpaceOnUse">
<stop stop-color="#FFBF31"/>
<stop offset="1" stop-color="#FF8031"/>
</linearGradient>
<linearGradient id="paint7_linear_291_7895" x1="46.8594" y1="102.107" x2="114.125" y2="102.107" gradientUnits="userSpaceOnUse">
<stop stop-color="#FFBF31"/>
<stop offset="1" stop-color="#FF8031"/>
</linearGradient>
<linearGradient id="paint8_linear_291_7895" x1="45.6504" y1="93.4119" x2="112.916" y2="93.4119" gradientUnits="userSpaceOnUse">
<stop stop-color="#FFBF31"/>
<stop offset="1" stop-color="#FF8031"/>
</linearGradient>
<linearGradient id="paint9_linear_291_7895" x1="49.6689" y1="84.5974" x2="116.937" y2="84.5974" gradientUnits="userSpaceOnUse">
<stop stop-color="#FFBF31"/>
<stop offset="1" stop-color="#FF8031"/>
</linearGradient>
<linearGradient id="paint10_linear_291_7895" x1="41.8623" y1="75.7853" x2="109.13" y2="75.7853" gradientUnits="userSpaceOnUse">
<stop stop-color="#FFBF31"/>
<stop offset="1" stop-color="#FF8031"/>
</linearGradient>
<linearGradient id="paint11_linear_291_7895" x1="45.6504" y1="66.9903" x2="112.916" y2="66.9903" gradientUnits="userSpaceOnUse">
<stop stop-color="#FFBF31"/>
<stop offset="1" stop-color="#FF8031"/>
</linearGradient>
<linearGradient id="paint12_linear_291_7895" x1="45.6406" y1="58.1953" x2="112.909" y2="58.1953" gradientUnits="userSpaceOnUse">
<stop stop-color="#FFBF31"/>
<stop offset="1" stop-color="#FF8031"/>
</linearGradient>
<linearGradient id="paint13_linear_291_7895" x1="49.6592" y1="49.3808" x2="116.927" y2="49.3808" gradientUnits="userSpaceOnUse">
<stop stop-color="#FFBF31"/>
<stop offset="1" stop-color="#FF8031"/>
</linearGradient>
<linearGradient id="paint14_linear_291_7895" x1="41.8545" y1="40.5687" x2="109.12" y2="40.5687" gradientUnits="userSpaceOnUse">
<stop stop-color="#FFBF31"/>
<stop offset="1" stop-color="#FF8031"/>
</linearGradient>
<linearGradient id="paint15_linear_291_7895" x1="45.6406" y1="31.7737" x2="112.909" y2="31.7737" gradientUnits="userSpaceOnUse">
<stop stop-color="#FFBF31"/>
<stop offset="1" stop-color="#FF8031"/>
</linearGradient>
</defs>
</svg>
